<svg xmlns="http://www.w3.org/2000/svg" version="1.1" xmlns:xlink="http://www.w3.org/1999/xlink" width="927.04773" height="927.26392"><svg xmlns="http://www.w3.org/2000/svg" version="1.1" xmlns:xlink="http://www.w3.org/1999/xlink" width="927.04773" height="927.26392"><svg xmlns:osb="http://www.openswatchbook.org/uri/2009/osb" xmlns:dc="http://purl.org/dc/elements/1.1/" xmlns:cc="http://creativecommons.org/ns#" xmlns:rdf="http://www.w3.org/1999/02/22-rdf-syntax-ns#" xmlns:svg="http://www.w3.org/2000/svg" xmlns="http://www.w3.org/2000/svg" xmlns:xlink="http://www.w3.org/1999/xlink" xmlns:sodipodi="http://sodipodi.sourceforge.net/DTD/sodipodi-0.dtd" xmlns:inkscape="http://www.inkscape.org/namespaces/inkscape" version="1.1" id="svg8" inkscape:version="1.0.2 (e86c8708, 2021-01-15)" sodipodi:docname="Kopf_Finazwesir_BigCircel.svg" x="0px" y="0px" viewBox="0 0 927.04773 927.26389" xml:space="preserve" width="927.04773" height="927.26392"><metadata id="metadata846"><rdf:rdf><cc:work rdf:about=""><dc:format>image/svg+xml</dc:format><dc:type rdf:resource="http://purl.org/dc/dcmitype/StillImage"></dc:type><dc:title></dc:title></cc:work></rdf:rdf></metadata><defs id="defs844"><linearGradient id="linearGradient1257" osb:paint="solid"><stop style="stop-color:#000000;stop-opacity:1;" offset="0" id="stop1255"></stop></linearGradient><linearGradient id="linearGradient1082" osb:paint="solid"><stop style="stop-color:#000000;stop-opacity:1;" offset="0" id="stop1080"></stop></linearGradient><linearGradient id="linearGradient916" osb:paint="solid"><stop style="stop-color:#1c1203;stop-opacity:1;" offset="0" id="stop914"></stop></linearGradient><linearGradient id="linearGradient910" osb:paint="solid"><stop style="stop-color:#e7ecef;stop-opacity:1;" offset="0" id="stop908"></stop></linearGradient><linearGradient id="linearGradient904" osb:paint="solid"><stop style="stop-color:#6e6e6e;stop-opacity:1;" offset="0" id="stop902"></stop></linearGradient><linearGradient id="linearGradient898" osb:paint="solid"><stop style="stop-color:#d19e55;stop-opacity:1;" offset="0" id="stop896"></stop></linearGradient><linearGradient id="linearGradient892" osb:paint="solid"><stop style="stop-color:#eeca96;stop-opacity:1;" offset="0" id="stop890"></stop></linearGradient><linearGradient id="linearGradient886" osb:paint="solid"><stop style="stop-color:#000000;stop-opacity:1;" offset="0" id="stop884"></stop></linearGradient><linearGradient id="linearGradient1125" osb:paint="solid" gradientTransform="translate(-95.762332,330.3293)"><stop style="stop-color:#bf90c1;stop-opacity:1;" offset="0" id="stop1123"></stop></linearGradient><linearGradient id="linearGradient862" osb:paint="solid" gradientTransform="matrix(2.0434892,0,0,1.6989944,2497.7208,3343.6001)"><stop style="stop-color:#802183;stop-opacity:1;" offset="0" id="stop860"></stop></linearGradient><linearGradient id="linearGradient856" osb:paint="solid" gradientTransform="matrix(2.0434892,0,0,1.7151641,3415.7089,2197.9472)"><stop style="stop-color:#f9ee91;stop-opacity:1;" offset="0" id="stop854"></stop></linearGradient><linearGradient id="linearGradient850" osb:paint="solid" gradientTransform="matrix(2.0434892,0,0,1.740537,3481.9324,4168.0801)"><stop style="stop-color:#dfc805;stop-opacity:1;" offset="0" id="stop848"></stop></linearGradient><linearGradient inkscape:collect="always" xlink:href="#linearGradient886" id="linearGradient1084" x1="-36.86887" y1="-248.84566" x2="123.38092" y2="-248.84566" gradientUnits="userSpaceOnUse" gradientTransform="translate(0.99999993,73.999999)"></linearGradient><linearGradient inkscape:collect="always" xlink:href="#linearGradient1257" id="linearGradient1259" x1="-550.62476" y1="-904.92706" x2="-7.2524977" y2="-904.92706" gradientUnits="userSpaceOnUse" gradientTransform="translate(226,578.29288)"></linearGradient></defs>
<style type="text/css" id="style833">
	.st0{fill:none;}
	.st1{fill:#F9EE91;}
	.st2{fill:#802183;}
	.st3{fill:#DFC805;stroke:#F9EE91;stroke-width:0.2673;}
</style>
<sodipodi:namedview bordercolor="#666666" borderopacity="1.0" fit-margin-bottom="0" fit-margin-left="0" fit-margin-right="0" fit-margin-top="0" id="base" inkscape:current-layer="layer1" inkscape:cx="217.32219" inkscape:cy="726.77103" inkscape:document-rotation="0" inkscape:document-units="mm" inkscape:pageopacity="0.0" inkscape:pageshadow="2" inkscape:window-height="1289" inkscape:window-maximized="0" inkscape:window-width="2205" inkscape:window-x="156" inkscape:window-y="69" inkscape:zoom="0.70710678" pagecolor="#ffffff" showgrid="false" showguides="true" inkscape:guide-bbox="true">
	</sodipodi:namedview>
<g id="layer1" transform="translate(481.69837,652.56347)" inkscape:groupmode="layer" inkscape:label="Ebene 1" style="opacity:1">
	
	
	
	
		
	
	
<path style="fill:#8d0267;fill-opacity:1;stroke-width:1.00157" d="M 54.93328,194.99803 C 21.845349,159.8153 -16.611892,128.64641 -47.278144,99.07312 -90.479638,71.750503 -103.07586,41.069469 -103.07586,12.273059 c 0,-5.8599498 6.87064,-21.202363 8.20763,-22.539353 0.17266,-0.17266 1.82994,0.12086 3.68285,0.65227 3.87639,1.11173 9.71171,6.2980796 11.36648,10.10235953 0.62267,1.43151007 4.05713,4.84324047 7.63213,7.58162047 7.69563,5.89471 10.94973,11.01227 11.01045,17.31562 0.0328,3.40238 0.70756,5.28614 2.76645,7.72296 l 2.7231,3.22296 8.76106,-2.49265 c 25.82541,-7.3477 50.2478997,-10.5483 80.23894,-10.51543 29.01838,0.0318 52.0222,3.11679 78.53589,10.53221 12.11411,3.38811 12.44781,3.42548 14.43247,1.6161 22.03164,10.89438 13.35197,5.072292 23.79941,9.480166 36.88503,12.007214 70.32185,40.12404 94.67137,61.568158 l 5.26238,4.63447 -7.85076,6.75697 c -46.79548,40.27576 -107.50647,75.50277 -167.791615,86.27798 l -10.592496,1.89328 z" id="path936" sodipodi:nodetypes="ccssssssscsssccscsscc"></path><path style="fill:#dfc805;fill-opacity:1;stroke-width:0.32" d="m -37.811518,213.83737 c -0.09702,-0.15703 -2.733536,-0.37975 -5.85888,-0.49495 -8.302848,-0.30608 -21.858816,-1.60685 -26.962432,-2.5872 -1.358272,-0.26093 -13.00298,-2.07603 -17.28,-2.6935 -1.32,-0.19056 -3.048,-0.4865 -3.84,-0.65763 -0.792,-0.17114 -3.024,-0.60775 -4.96,-0.97024 -1.936,-0.3625 -3.952,-0.78938 -4.48,-0.94858 -0.528,-0.1592 -2.688,-0.67949 -4.8,-1.15616 -11.62294,-2.6233 -28.30976,-7.21053 -35.02064,-9.6272 -2.21066,-0.7961 -5.89136,-2.06666 -8.17936,-2.82346 -2.288,-0.75683 -6.752,-2.40934 -9.92,-3.67228 -3.168,-1.26292 -6.984,-2.73232 -8.48,-3.26532 -1.496,-0.53296 -3.728,-1.43788 -4.96,-2.01091 -1.232,-0.57299 -4.904,-2.23366 -8.16,-3.69037 -11.66486,-5.21868 -30.67123,-15.08496 -38.1415,-19.79936 -1.70583,-1.07654 -3.18996,-1.95734 -3.29808,-1.95734 -0.21789,0 -10.93338,-6.7591 -15.20042,-9.58806 -2.8153,-1.8665 -8.3216,-5.7322 -15.52,-10.89578 -16.4047,-11.76752 -41.28346,-33.81837 -53.26637,-47.211714 l -3.44953,-3.85559 5.20224,-2.7992 c 4.88323,-2.62755 17.04368,-8.49356 18.63366,-8.9886 0.94234,-0.29341 0.90848,-0.64896 -0.19568,-2.05501 -1.688,-2.14951 -3.83149,-6.2601 -4.80643,-9.21725 -6.12919,-18.59088 5.80701,-39.35942 34.55721,-60.12832 16.50778,-11.92509 40.74496,-24.61418 66.0449,-34.57702 2.464,-0.97031 5.128,-2.0304 5.92,-2.35578 6.27322,-2.57715 25.07146,-8.9865 37.02426,-12.62358 23.54761,-7.16525 43.39481,-11.98557 73.21574,-17.78215 3.747232,-0.72838 18.60016,-3.2319 23.68,-3.99136 1.936,-0.28944 4.816,-0.72595 6.4,-0.97001 1.584,-0.24407 4.68,-0.67373 6.88,-0.95479 2.2,-0.28105 5.512,-0.72061 7.36,-0.97673 1.848,-0.25616 5.448,-0.68551 8,-0.95412 2.552,-0.2686 6.584,-0.70102 8.96,-0.96096 6.376256,-0.69753 14.2989119,-1.32492 28.32,-2.24256 15.190016,-0.99414 41.58304,-1.37932 56.48,-0.82425 11.66406,0.43462 26.69411,1.4512 31.52,2.1319 0.528,0.0745 2.904,0.3552 5.28,0.62378 35.28563,3.98893 65.44915,13.15168 82.56,25.07923 7.9472,5.53981 14.27443,12.67642 16.96163,19.13133 3.13498,7.53056 3.34938,15.42576 0.63863,23.5168 -0.92772,2.76909 -3.18954,7.57168 -4.67159,9.91942 -0.42278,0.6697 -0.76867,1.27869 -0.76867,1.35325 0,0.0746 3.636,1.93661 8.08,4.13779 18.97494,9.39869 34.53197,19.18983 50.96,32.07277 2.288,1.79427 6.68,4.98234 9.76,7.08458 7.47674,5.10323 15.88086,11.20867 20.76918,15.08844 l 0.76922,0.6105 -2.82675,3.48154 c -8.45271,10.41065 -17.4385,20.33081 -27.65184,30.527234 -4.67488,4.66713 -9.61411,9.47126 -10.97603,10.67581 l -2.4762,2.19011 -3.6038,-3.16759 c -14.43344,-12.686464 -30.9153,-25.081954 -46.16378,-34.718304 -19.50166,-12.32419 -39.63747,-22.5416 -59.36,-30.12067 -3.5119,-1.34957 -3.68451,-1.45907 -3.77856,-2.39655 -0.24883,-2.48051 1.47635,-5.49852 4.18538,-7.32185 l 1.50556,-1.01328 -1.48384,-0.71831 c -0.81612,-0.39507 -1.96422,-1.14012 -2.55139,-1.65564 -0.95321,-0.83696 -1.21373,-0.913 -2.43235,-0.70992 -4.36006,0.72656 -8.21181,2.57196 -11.39834,5.46112 l -2.03353,1.84374 -3.56647,-1.05782 C -36.112846,37.903719 -10.098318,2.8590458 87.28717,-14.645104 c 12.39738,-1.57392 26.1368,-1.73664 41.74832,-0.49443 l 2.41168,0.1919 -6.94064,-4.58476 c -12.46138,-8.23159 -22.53622,-14.33936 -32.73936,-19.84794 -7.3583,-3.9727 -21.40989,-10.75338 -25.76,-12.43066 -8.756864,-3.37638 -11.810688,-4.51404 -14.4,-5.36457 -12.421376,-4.08013 -27.572928,-6.99805 -39.52,-7.61082 -7.0593281,-0.36211 -15.30784,-0.28032 -20.32,0.20147 -8.616064,0.82823 -10.194848,1.00426 -11.52,1.28464 -0.792,0.16756 -2.736,0.52884 -4.32,0.80282 -1.584,0.27398 -3.456,0.62531 -4.16,0.7807 -0.704,0.15543 -1.99872,0.43706 -2.877152,0.62586 -1.627872,0.34986 -6.266848,1.67568 -8.002848,2.28723 -0.528,0.18599 -1.464,0.47978 -2.08,0.65283 -0.616,0.17306 -1.57376,0.52141 -2.128352,0.77418 -0.554624,0.25274 -1.119296,0.45952 -1.254912,0.45952 -0.32336,0 -4.065184,1.46518 -5.896736,2.30896 -0.792,0.3649 -2.16,0.98538 -3.04,1.37888 -2.414048,1.07946 -9.250272,4.92595 -12.32,6.93203 -17.53616,11.45987 -29.34704,27.57565 -33.60982,45.86012993 -0.72474,3.10854007 -0.78893,3.48899007 -1.24496,7.37760007 -0.39629,3.3791 -0.38404,11.23085 0.0221,14.0624 1.16297,8.11136 2.0792,11.72848 4.57968,18.08 3.38985,8.61053 8.38281,16.93046 15.09881,25.15958 18.464433,18.755187 44.163172,39.006214 57.190338,50.186154 29.6758079,22.14573 57.705952,50.60368 82.43328,83.69145 4.668062,6.24634 5.608702,7.63149 5.354852,7.88538 -0.19994,0.1999 -12.532708,2.35421 -22.784132,3.9799 -3.344,0.53031 -6.944,1.10599 -8,1.2793 -1.056,0.17331 -2.856,0.38458 -4,0.4695 -1.144,0.0849 -3.736,0.36045 -5.76,0.61229 -2.024,0.25184 -7.208,0.62707 -11.52,0.83386 -4.3120001,0.20678 -7.9768001,0.50345 -8.1440001,0.65929 -0.401984,0.37463 -41.3631359,0.37245 -41.5946879,-0.003 z" id="path952" sodipodi:nodetypes="csssssssssssssssssscsssssssssssssssssscssssssssscssscssssscsssscccscssssssssssssssssssscsccsssssssscc"></path><path style="fill:#f9ee91;fill-opacity:1;stroke-width:0.32" d="m -38.1369,214.36575 c -0.108768,-0.176 -1.233824,-0.32 -2.500096,-0.32 h -2.302336 l -6.014944,-6.23014 c -11.364928,-11.77149 -23.452672,-21.64842 -39.422624,-32.21232 -16.69229,-11.0417 -41.50438,-24.39901 -63.84,-34.36752 -1.672,-0.74621 -5.992,-2.68298 -9.6,-4.30391 -6.07299,-2.72838 -18.62473,-8.15286 -28.16,-12.16995 -32.19667,-13.56397 -48.49242,-21.02598 -58.8377,-26.94244 -4.12326,-2.358107 -4.78867,-2.699517 -11.8823,-6.097027 -19.31533,-9.25107 -29.86717,-20.98899 -31.32528,-34.84649 -1.05347,-10.01191 2.42694,-19.66314 11.17568,-30.99021 2.69955,-3.49517 10.33069,-11.22797 14.5496,-14.743461 10.94147,-9.1172096 23.52643,-17.4624296 36.16,-23.978109 2.816,-1.45232 5.264,-2.74969 5.44,-2.88301 0.86518,-0.65542 13.19581,-6.64147 17.85805,-8.6694 1.26608,-0.55069 2.87795,-1.25789 3.58195,-1.57156 0.704,-0.31366 3.08,-1.31324 5.28,-2.22131 2.2,-0.90803 4.45376,-1.85846 5.00835,-2.11206 0.55463,-0.2536 1.10884,-0.46109 1.23165,-0.46109 0.12282,0 0.67703,-0.20781 1.23165,-0.46179 3.61309,-1.65463 24.70173,-9.31376 28.36835,-10.30304 0.968,-0.26119 2.768,-0.80762 4,-1.21431 7.40557,-2.4446 19.79591,-6.15033 28,-8.37427 0.968,-0.2624 2.264,-0.61389 2.88,-0.78109 3.1081,-0.84368 6.3913,-1.67942 7.68,-1.95494 0.792,-0.16934 1.728,-0.42931 2.08,-0.5777 0.352,-0.14838 1.792,-0.51209 3.2,-0.80822 1.408,-0.29613 2.92,-0.65574 3.36,-0.79917 0.44,-0.14342 1.952,-0.50374 3.36,-0.8007 1.408,-0.29696 2.776,-0.61888 3.04,-0.71533 0.47936,-0.17514 2.50573,-0.60922 4.32,-0.92538 0.528001,-0.092 -2.28,1.46688 -6.24,3.46423 -15.68419,7.91078 -23.51208,14.73089 -36.024,26.64121 -7.22988,6.882253 -9.85459,12.15997 -14.05638,20.6504994 -3.79799,7.67449995 -4.37031,9.33558 -5.95389,17.2799995 -0.61568,3.0887711 -0.73261,4.6825311 -0.72784,9.9200011 0.005,5.54714 0.10208,6.69738 0.87366,10.35907 0.47738,2.26551 1.15981,5.00151 1.51652,6.08 1.06873,3.23152 4.61782,10.1424 6.74268,13.1296 2.05856,2.89405 8.58391,9.76695 11.94925,12.5857 6.63904,5.56077 17.63648,12.75561 27.70112,18.12285 0,0 7.06831,4.89586 9.90061,6.82403 16.614078,11.238297 26.090366,18.342947 41.91827,31.427237 10.498048,8.67834 25.86336,22.89437 37.53808,34.73034 16.5405805,16.76905 32.2013405,35.25232 44.7353,52.79782 4.3799,6.13117 4.75788,6.69875 4.57955,6.87712 -0.32973,0.3297 -7.08611,0.97741 -13.73293,1.31651 -3.6959995,0.18855 -6.9700495,0.47936 -7.2756495,0.64627 -0.77584,0.42368 -41.1022385,0.40756 -41.3643505,-0.0166 z M 285.33785,70.760813 c -1.0311,-0.85529 -3.67475,-2.9008 -5.87475,-4.54553 -2.2,-1.64477 -4.504,-3.377 -5.12,-3.84941 -2.31008,-1.77162 -6.16624,-4.65719 -6.84234,-5.12013 -0.38553,-0.264 -2.34611,-1.632 -4.35676,-3.04 -2.01069,-1.408 -4.11191,-2.848 -4.66941,-3.2 -0.55747,-0.352 -2.43511,-1.59539 -4.17255,-2.76314 -4.22892,-2.84224 -12.69212,-8.25302 -14.67894,-9.38467 -0.88,-0.50121 -2.104,-1.30105 -2.72,-1.77741 -0.616,-0.47635 -2.128,-1.40556 -3.36,-2.06489 -1.232,-0.65936 -4.76,-2.60211 -7.84,-4.31722 -14.93123,-8.31449 -21.07952,-10.72397 -26.32227,-12.62912 -5.93854,-1.788571 -4.14746,-4.50355 -4.14746,-4.50355 2.15393,-5.0722444 2.05064,-3.076031 5.17118,-12.91854068 0.59489,-2.80928992 0.82221,-7.25822062 0.63645,-8.03645992 -0.4738,-5.8425614 -3.09124,-12.4579004 -4.90199,-15.1353694 -4.24665,-6.72042 -3.89063,-6.41991 -6.98493,-11.02407 -2.1257,-3.16298 -9.35956,-9.43535 -12.16778,-11.32614 -1.10176,-0.74182 -3.01648,-2.10579 -4.25498,-3.03107 -1.23846,-0.92528 -3.32646,-2.17289 -4.64,-2.77248 -1.3135,-0.59958 -3.39622,-1.65824 -4.62822,-2.35261 -1.34442,-0.75769 -4.09517,-1.81353 -6.88,-2.6408 -2.552,-0.75808 -5.936,-1.7918 -7.52,-2.29721 -5.19322,-1.65693 -10.18755,-2.85024 -13.28,-3.17303 -1.672,-0.17452 -4.48,-0.53971 -6.24,-0.81148 -8.53677,-1.31831 -24.79434,-1.84976 -40.16,-1.3128 -9.65382,0.33737 -11.35373,0.4294 -14.88,0.80563 -1.76,0.18777 -5.072,0.49373 -7.36,0.67987 -2.288,0.18618 -6.032,0.56109 -8.32,0.83318 -2.288,0.2721 -5.312,0.61565 -6.72,0.7634 -1.408,0.14777 -3.208,0.41846 -4,0.6015 -2.26291,0.52304 -4.27792,0.41011 -7.62202,-0.42717 -3.64598,-0.91286 -8.84035,-1.98387 -11.09798,-2.28825 -0.88,-0.11866 -1.81395,-0.33053 -2.07549,-0.47088 -0.55328,-0.2969 -0.39609,-0.33751 4.15549,-1.07405 1.672,-0.27059 4.48,-0.76983 6.24,-1.10944 1.76,-0.33962 4.208,-0.77895 5.44,-0.97629 2.57549,-0.41251 5.75635,-0.99645 12.32,-2.26173 2.552,-0.49193 6.152,-1.13933 8,-1.43865 3.70275,-0.59972 11.26016,-2.03594 16.96,-3.22308 7.84733,-1.63443 10.69613,-2.05456 12.8,-1.88764 2.288478,0.18156 13.99091,1.36316 15.52227,1.56729 0.52928,0.0706 1.60928,0.20762 2.4,0.30461 6.93117,0.84992 15.31114,2.04883 15.6208,2.23478 0.1193,0.0717 0.93693,0.22532 1.81693,0.34144 0.88,0.11616 2.68,0.4346 4,0.70762 1.32,0.27306 2.688,0.53994 3.04,0.59309 1.07597,0.16243 3.76148,-0.16156 8.285,0.8809 18.63542,4.962624 20.88268,5.704073 41.13245,14.67232 4.4128,2.43437 9.02613,6.00867 11.22255,7.61091 2.93888,2.14384 8.96282,8.10352 10.99795,10.88064 8.36055,11.4086 9.26323,24.82096 2.56935,38.1753894 l -1.71591,3.42333 9.67431,4.7952896 c 11.89974,5.898371 16.88592,8.616581 26.9543,14.694111 8.98752,5.42506 25.01354,16.53156 34.08,23.6184 3.72829,2.91421 13.69917,10.89904 14.95414,11.97549 l 1.31738,1.12992 -3.68928,4.63008 c -2.02912,2.54653 -3.80256,4.67283 -3.94102,4.72512 -0.13847,0.0523 -1.09536,-0.6047 -2.12647,-1.46 z m -375.773246,-96.31507 c -0.389728,-1.188 -0.903008,-2.592 -1.14064,-3.12 -0.237632,-0.528 -0.89024,-2.04 -1.450208,-3.36 -0.559968,-1.32 -1.578944,-3.53267 -2.264384,-4.91706 -0.685472,-1.38438 -1.246976,-2.68038 -1.24784,-2.88 0,-0.19961 -0.510016,-1.35376 -1.131484,-2.5648 -0.62144,-1.211 -1.04263,-2.28915 -0.93591,-2.39584 0.24727,-0.24726 3.57469,-0.83702 9.268962,-1.64281 2.464,-0.34871 4.84,-0.69776 5.28,-0.77575 0.44,-0.0779 2.024,-0.2958 3.52,-0.48412 4.92784,-0.62029 14.524768,-1.92772 16.48,-2.24512 2.9976,-0.48663 5.28,-0.72925 5.28,-0.56125 0,0.0843 -1.044,0.77449 -2.32,1.53369 -7.40736,4.40727 -12.625472,8.30205 -17.866016,13.33508 -3.263296,3.13408 -8.920128,9.59539 -8.944096,10.21606 -0.01088,0.27766 -1.468224,2.02192 -1.689504,2.02192 -0.07168,0 -0.449184,-0.972 -0.83888,-2.16 z" id="path968" sodipodi:nodetypes="sscssssssssssssssssssssssssssssssssssssssccssssssssssssssssssscccccsssssssssssssssssssssssssscssssccssscsssscssssssscssssssssssss"></path><path style="opacity:1;fill:#eeca96;fill-opacity:1;stroke-width:0.32" d="M -3.4493332,47.264915 C -9.145461,46.888875 -16.218901,45.881745 -22.804117,44.509165 -65.275765,35.656685 -105.92156,6.3634749 -135.08012,-36.407505 -171.94546,-90.48312 -187.839,-161.52873 -177.70834,-226.95954 c 6.1728,-39.86816 22.08009,-76.32157 44.8976,-102.88797 3.77389,-4.39392 11.34883,-12.09932 15.39923,-15.66442 25.540161,-22.4801 56.633473,-34.42151 89.600001,-34.41097 49.182976,0.0157 103.106173,25.49549 136.730749,75.12498 44.07637,65.05622 44.13647,111.20784 48.86615,160.3459 3.13933,32.61545 -5.78298,63.028385 -17.44861,91.489445 -4.26256,10.39955 -11.57063,24.12067 -17.93578,33.67507 -23.60691,35.43504 -57.649249,58.70253 -95.012509,64.93978 -9.526752,1.59033 -21.606784,2.22208 -30.8378242,1.61264 z" id="path984" sodipodi:nodetypes="sssssssssssss"></path><path style="opacity:1;fill:#d3a25b;fill-opacity:1;stroke-width:0.32" d="m -28.491455,41.666611 c -12.513856,-3.19949 -23.492,-7.48643 -35.529216,-13.87415 -25.419936,-13.48937 -49.373459,-35.1240306 -68.458099,-61.83078 -24.84732,-34.77104 -41.53142,-79.253501 -46.5688,-124.160001 -0.84054,-7.49293 -1.19734,-12.27171 -0.93824,-12.56515 0.11408,-0.12915 0.75258,-1.24285 1.41895,-2.47485 0.66633,-1.232 1.52441,-2.744 1.90685,-3.36 0.3824,-0.616 0.79843,-1.336 0.92448,-1.6 1.52787,-3.20013 9.34726,-13.91818 15.55017,-21.31472 4.55187,-5.42774 16.78039,-17.27456 23.85837,-23.1136 2.78214,-2.2952 6.91248,-5.55418 7.83552,-6.18253 0.616,-0.41936 2.2,-1.56381 3.52,-2.54323 4.6256,-3.43216 14.27584,-9.74333 19.77475,-12.93251 l 3.42525,-1.98653 0.24451,2.59654 c 6.051665,64.26282 18.966737,107.73652 46.877873,157.796581 5.025984,9.01434 6.939104,12.29424 17.371936,29.78269 16.17744,27.11808 21.608608,37.60134 25.614816,49.4416594 6.6692158,19.7108206 4.3927998,35.5315206 -6.788352,47.1780806 -1.689024,1.75933 -2.847296,2.71395 -3.284864,2.7073 -0.371744,-0.006 -3.411904,-0.70983 -6.755904,-1.5648 z" id="path1000"></path><path style="display:inline;opacity:1;fill:#756f74;fill-opacity:1;stroke-width:0.32" d="m 50.831409,76.413645 c -15.475456,-1.26573 -28.36384,-3.48858 -40.65443,-7.01162 -2.1040692,-0.6031 -4.6895692,-1.26889 -5.7455692,-1.47952 -17.0200608,-3.39453 -44.8378908,-13.48057 -63.8092208,-23.13565 -29.99603,-15.26585 -50.196409,-33.74806 -69.142909,-63.26176 -7.4815,-11.65424 -13.52272,-23.94611 -15.36784,-31.26851 -0.76509,-3.03622 -0.83667,-6.79251 -0.15462,-8.11145 1.58454,-3.0642 6.60601,-2.43984 12.65846,1.57388 4.99923,3.31527 11.15923,9.26205 20.42496,19.71796 23.858659,26.9233903 42.825829,42.0975603 59.871169,47.8983 3.74154,1.27331 8.92518,2.47293 12.05936,2.79088 6.49027,0.65837 13.94189,-1.22467 20.00893,-5.0563804 l 2.08051,-1.313959 0.83194,-3.1200903 c 0.45756,-1.71607 0.99529,-4.05612996 1.19491,-5.20012996 0.36029,-2.06480004 0.82221,-15.89360034 0.57184,-17.12000034 -0.09,-0.4408 -0.80016,0.65472 -2.28176,3.52 -3.18595,6.1612803 -5.39616,8.8118103 -6.93955,8.3219503 -1.44263,-0.45785 -2.72218,-4.5216903 -3.57741,-11.3619503 -0.56317,-4.50426 -0.5648,-20.69434 -0.003,-25.76 1.9135,-17.2415 6.66633,-28.90768 14.87232,-36.50515 7.1322508,-6.60339 18.9978208,-11.88909 40.8615,-18.20247 7.872738,-2.27331 10.737602,-2.837495 14.560002,-2.867385 3.790144,-0.0294 6.066208,0.622555 7.629792,2.186145 1.775616,1.77561 1.879296,2.49644 2.144416,14.90886 0.133472,6.248 0.397952,12.296 0.587776,13.44 0.189824,1.144 0.348032,3.09571 0.351584,4.33718 0.0144,5.08695 -3.076,7.93008 -10.073568,9.2673 -1.232,0.23542 -5.750592,0.66262 -10.041344,0.94931 -4.290748,0.28669 -9.330748,0.79715 -11.199998,1.13437 -11.24563,2.02867 -19.4969892,7.7367 -27.2806092,18.87184 -1.4849,2.12432 -4.4380493,6.90454 -4.4380493,7.18384 0,0.0851 1.1340793,1.56464 2.5201893,3.28787 5.05309,6.28205 11.72861,11.46407 20.9998092,16.3015703 8.17111,4.26352 16.994626,7.82474004 23.755682,9.58797001 4.023328,1.04924999 5.381888,1.21836999 9.84432,1.22536999 3.920032,0.006 5.882336,-0.40844 7.84,-1.65659996 3.769984,-2.40368004 5.065504,-8.06234004 3.537216,-15.45002034 -0.382304,-1.848 -0.902592,-3.81376 -1.15616,-4.36835 -0.253568,-0.55463 -0.461056,-1.13111 -0.461056,-1.28112 0,-1.00551 -3.783904,-7.692 -6.145472,-10.85962 -0.668,-0.89597 -1.214528,-1.7208 -1.214528,-1.83293 0,-0.11216 0.67696,0.22544 1.504384,0.75015 6.196704,3.92985 15.299264,3.13632 20.56928,-1.79319 0.832,-0.7782 1.590304,-1.41494 1.68512,-1.41494 0.09485,0 0.197568,0.828 0.22832,1.84 0.182496,6.0072 1.77744,14.81635 3.345888,18.48 0.226048,0.528 0.60896,1.464 0.85088,2.08 0.989184,2.51856 3.152256,6.2185603 4.851296,8.2982703 2.447424,2.99584 4.915296,4.22435004 8.774144,4.36784004 1.460064,0.0543 2.738784,-0.0374 2.841568,-0.20371 0.102784,-0.16630004 0.606112,-0.30240004 1.118528,-0.30240004 0.830912,0 2.7408,-0.72333 5.590591,-2.11738 4.468,-2.18556 8.66122,-6.00473 11.47223,-10.4488303 0.64227,-1.01542 1.16777,-1.90896 1.16777,-1.98563 0,-0.0767 0.42727,-1.04589 0.94947,-2.15379 2.15831,-4.57904 3.11933,-9.88445 3.3376,-18.42557 0.0597,-2.33814 0.18727,-4.32979 0.28336,-4.42592 0.0961,-0.0961 0.47508,-0.0141 0.84218,0.18246 1.17331,0.62794 0.73123,-0.10883 -2.01894,-3.36489 -7.89114,-9.34259 -14.45431,-13.75488 -22.861829,-15.36951 -3.265216,-0.62707 -9.152512,-0.55558 -15.57184,0.18906 -10.740704,1.24592 -14.94016,0.53984 -17.52992,-2.94739 -1.240832,-1.67085 -1.504928,-2.9096 -1.998144,-9.37261 -0.25664,-3.36285 -1.0376,-9.51219 -1.74752,-13.76 -1.434336,-8.58259 -1.55728,-10.8983 -0.679616,-12.8 2.46352,-5.337695 10.017184,-5.699965 32.6752,-1.56704 14.615869,2.66598 23.438849,6.48445 29.772899,12.88531 7.47107,7.54989 13.11974,20.24096 16.46909,37.00173 1.90992,9.55757 2.71904,16.40707 2.71622,22.99392 -0.003,4.53626 -0.29619,6.19734 -1.25091,7.06138 -0.55696,0.50403 -0.69066,0.50905 -1.56157,0.0587 -1.19702,-0.619 -3.01699,-2.67654 -5.19424,-5.87235 -1.90214,-2.79193 -2.35082,-3.35568 -2.10246,-2.64163 0.0918,0.264 0.68544,2.28 1.3192,4.48 3.09692,10.75098 5.11657,15.2422703 10.79241,24.00000034 10.46061,16.14053966 11.36611,17.74338966 12.74519,22.55999966 0.96992,3.38762 1.05993,9.80118 0.18192,12.96 -2.75882,9.92528 -12.7616,19.77136 -28.37287,27.92842 -2.20285,1.15097 -5.29885,2.61708 -6.88,3.25804 -1.58118,0.64093 -3.16288,1.3009 -3.51488,1.4666 -1.03158,0.48556 -8.024,2.71814 -11.84,3.78032 -5.808191,1.6167 -10.812095,2.52057 -20.799999,3.75715 -5.400832,0.66864 -24.94512,0.85837 -31.68,0.30752 z" id="path1016"></path><path style="opacity:1;fill:#000000;stroke-width:0.32" d="m 45.455537,-34.686158 c -7.16736,-0.9184 -17.07337,-3.73952 -22.33798,-6.36163 -3.9641,-1.9744 -5.03069,-3.08214 -5.03069,-5.22496 0,-3.54803 3.99971,-5.95459 11.00509,-6.6216 3.8872,-0.37011 6.75862,-0.25088 16.19491,0.67238 16.29126,1.59396 23.65123,1.59261 37.76,-0.007 9.73696,-1.1039 11.3496,-1.1615 13.08426,-0.46742 2.68502,1.07434 2.32816,3.63443 -0.92669,6.64787 -5.64048,5.22208 -18.09626,9.74109 -31.03562,11.25981 -4.38041,0.51418 -15.04441,0.57251 -18.71328,0.10243 z" id="path1032"></path><path style="opacity:0;fill:#e7ecef;fill-opacity:0.909804;stroke-width:0.32" d="m -16.270677,-143.69649 c -2.078624,-0.34768 -5.93808,-1.72717 -7.803872,-2.78941 -6.043168,-3.44044 -10.296384,-8.88448 -12.225856,-15.64886 -0.924928,-3.24256 -0.992448,-9.40883 -0.137664,-12.57328 0.810624,-3.00112 3.108992,-7.528 4.991744,-9.83197 3.204032,-3.92077 8.399648,-7.24691 13.451776,-8.61155 3.185856,-0.86054 9.3292478,-0.78755 12.6181758,0.14998 11.6698242,3.32647 19.2386242,13.72352 18.6531202,25.62327 -0.20784,4.22451 -0.783232,6.41673 -2.68192,10.21849 -2.566368,5.13856 -7.68112,9.85933 -12.980896,11.981 -4.1274562,1.65232 -9.462592,2.22192 -13.884608,1.48233 z m 126.428637,-10.18624 c -11.964609,-1.91843 -20.943229,-11.81728 -21.514879,-23.71997 -0.57549,-11.98281 7.14429,-22.55932 18.820869,-25.78553 2.54009,-0.70183 9.92323,-0.7984 12.1415,-0.15882 9.48621,2.73511 16.21517,9.3224 18.62512,18.23309 0.86835,3.21056 0.94035,9.1423 0.14973,12.33149 -0.72967,2.94329 -2.65015,6.93597 -4.52835,9.4144 -3.17402,4.18838 -8.96695,8.00102 -13.9265,9.16579 -2.55037,0.59894 -7.59786,0.86746 -9.76749,0.51955 z" id="path1048"></path><path style="opacity:1;fill:#e7ecef;fill-opacity:1;stroke-width:0.32" d="m -16.270684,-143.69643 c -2.07862,-0.3477 -5.93808,-1.7272 -7.80387,-2.7895 -6.04317,-3.4404 -10.29638,-8.8844 -12.22586,-15.6488 -0.92492,-3.2426 -0.99244,-9.4089 -0.13766,-12.5733 0.81062,-3.0011 3.10899,-7.528 4.99174,-9.832 3.20404,-3.9207 8.39965,-7.2469 13.45178,-8.6115 3.18586,-0.8606 9.32925,-0.7876 12.61818,0.15 11.66982,3.3264 19.23862,13.7235 18.65312,25.6232 -0.20784,4.2245 -0.78324,6.4168 -2.68192,10.2185 -2.56637,5.1386 -7.68112,9.8594 -12.9809,11.981 -4.12746,1.6523 -9.46259,2.2219 -13.88461,1.4824 z m 126.428644,-10.1863 c -11.96461,-1.9184 -20.94323,-11.8173 -21.51488,-23.72 -0.57549,-11.9828 7.14429,-22.5593 18.82087,-25.7855 2.54009,-0.7018 9.92323,-0.7984 12.1415,-0.1588 9.48621,2.7351 16.21517,9.3224 18.62512,18.2331 0.86835,3.2105 0.94035,9.1423 0.14973,12.3315 -0.72967,2.9433 -2.65015,6.9359 -4.52835,9.4144 -3.17402,4.1884 -8.96695,8.001 -13.9265,9.1658 -2.55037,0.5989 -7.59786,0.8674 -9.76749,0.5195 z" id="path1116"></path><path style="opacity:1;fill:#1b1203;fill-opacity:0.909804;stroke:url(#linearGradient1084);stroke-width:0.32" d="m -21.614161,-155.25989 c -5.744128,-0.66711 -10.618752,-3.85901 -12.872704,-8.42903 -5.550944,-11.25504 6.508224,-23.39292 20.342688,-20.47545 8.0875518,1.70553 13.55267183,8.65971 12.3777279,15.75024 -1.39408,8.41289 -10.2328639,14.27088 -19.8477119,13.15424 z m 123.789981,-10.37984 c -4.62195,-1.23363 -8.589757,-4.16003 -10.500057,-7.74413 -5.22698,-9.80678 3.40672,-21.184 16.075677,-21.184 4.97734,0 9.09984,1.5713 12.41251,4.73104 8.33593,7.95114 3.71005,20.93386 -8.57885,24.07683 -2.93027,0.74941 -6.86365,0.79971 -9.40928,0.12026 z" id="path1064"></path><path style="fill:#ffffff;fill-opacity:0.964706;stroke-width:0.32" d="m -16.108996,-166.87718 c -3.88192,-1.92151 -4.635136,-6.67325 -1.547296,-9.76109 4.589056,-4.58906 11.83232,-0.64288 10.625696,5.78896 -0.668,3.5608 -5.573376,5.70707 -9.0784,3.97213 z m 125.534816,-10.01255 c -2.09728,-0.93613 -3.36,-3.00425 -3.36,-5.50317 0,-1.74115 0.56762,-2.91244 2.03619,-4.20188 3.04074,-2.6698 7.74407,-1.89156 9.51197,1.57385 1.45568,2.85331 0.29091,6.44541 -2.5912,7.99107 -1.31338,0.70439 -4.17248,0.77597 -5.59696,0.14013 z" id="path1132"></path><path style="opacity:1;fill:#756f74;fill-opacity:1;stroke-width:0.32" d="m 12.887831,-192.51721 c -4.2984967,-0.76026 -7.6436487,-1.88413 -17.9459847,-6.02925 -19.9205113,-8.01491 -28.8451513,-10.23552 -41.0940153,-10.2248 -7.125024,0.006 -10.078144,0.54426 -16.32,2.97344 -5.25152,2.04378 -18.27056,6.39808 -19.129728,6.39808 -0.279968,0 -0.828704,-0.30032 -1.219424,-0.66739 l -0.7104,-0.66736 0.64192,-1.9008 c 1.789792,-5.29991 8.905152,-13.20944 16.638688,-18.49591 2.62704,-1.79574 6.01264,-3.25942 9.30592,-4.0232 1.114752,-0.25852 3.4592,-1.14009 5.20992,-1.95904 13.539776,-6.33369 30.745152,-9.54483 43.5031033,-8.11923 10.891616,1.21703 21.7833607,5.22618 30.1032007,11.08067 l 1.943232,1.3674 1.736768,-1.77296 c 2.177312,-2.22266 3.833952,-3.11076 5.818048,-3.11898 1.730464,-0.007 2.929952,0.70813 3.86496,2.3047 0.737664,1.25962 0.750816,4.72186 0.04349,11.46378 -0.860096,8.19818 -1.977984,12.43805 -4.095072,15.53168 -1.647936,2.4081 -4.460192,4.44083 -7.400096,5.3489 -2.780608,0.85884 -7.637632,1.08633 -10.894528,0.51027 z M 145.65893,-209.9544 c -2.70947,-1.3678 -6.0031,-5.28051 -12.5911,-11.05126 -10.96573,-9.60538 -14.97424,-10.14957 -22.03475,-8.47808 -4.17203,0.98771 -9.28861,3.6607 -18.145249,9.47952 -11.81603,7.76314 -14.07216,8.89178 -17.81334,8.91152 -2.18157,0.0115 -2.5496,-0.0756 -3.32221,-0.78704 -2.71802,-2.50256 -2.72979,-7.72413 -0.0307,-13.56614 2.65421,-5.74471 10.89613,-17.10029 15.46281,-21.30439 11.09943,-10.21814 23.367719,-12.50467 35.330339,-6.5847 12.08387,5.97997 22.20267,16.99478 29.3225,31.90523 2.93453,6.14553 -0.0766,10.3571 -1.52736,11.80786 -0.89018,0.89017 -2.44989,0.77865 -4.65104,-0.33252 z" id="path1148" sodipodi:nodetypes="sscssscsssssscssssssssssssscsssssss"></path><path style="opacity:1;fill:#d3a25b;fill-opacity:1;stroke-width:0.32" d="m 62.018493,-91.22522 c -9.76602,-2.65424 -25.83056,-12.54906 -30.83315,-18.99143 -1.13914,-1.46694 -1.4504,-2.14899 -1.57565,-3.45241 -0.15382,-1.60103 -0.13357,-1.64583 1.41539,-3.12637 0.86432,-0.82614 2.92474,-2.29408 4.57872,-3.26208 5.1968,-3.04147 7.9449,-6.08435 10.70909,-11.85786 2.69293,-5.6246 4.0256,-12.06432 4.0256,-19.45222 0,-5.89693 -0.66896,-10.0432 -3.06259,-18.98221 -5.54864,-20.72121 -6.60957,-26.67152 -6.60909,-37.06771 0,-10.51958 2.01168,-19.52426 6.32522,-28.32 2.32169,-4.73411 3.73811,-6.78426 5.63795,-8.16051 3.12221,-2.2617 7.196,-0.48355 9.55033,4.16857 1.82154,3.5994 2.17322,5.94637 2.56404,17.11194 0.17248,4.928 0.46566,10.4 0.65152,12.16 1.11561,10.56419 4.1831,18.7696 11.20099,29.96211 4.55478,7.26423 6.12624,10.59482 7.45392,15.79789 2.15715,8.45389 2.36733,24.61299 0.49731,38.24 -2.86557,20.88198 -7.18621,32.20592 -13.33933,34.96077 -2.14009,0.95817 -6.22035,1.07872 -9.19027,0.27152 z" id="path1164"></path><path style="opacity:1;fill:#c57eb2;fill-opacity:0.964706;stroke:url(#linearGradient1259);stroke-width:0.32" d="m -194.46973,-114.96312 c -2.63008,-0.43558 -14.22128,-2.85625 -17.6,-3.67552 -13.42243,-3.25472 -26.68474,-7.65485 -37.92,-12.58099 -26.62091,-11.672 -46.93703,-27.78336 -59.81108,-47.43213 -2.48848,-3.79801 -7.11533,-12.71667 -8.34807,-16.09171 -0.48214,-1.32 -1.00294,-2.688 -1.15734,-3.04 -1.26563,-2.88534 -3.36541,-11.23107 -4.09034,-16.25734 -1.1502,-7.97498 -1.3447,-10.95722 -1.17459,-18.00842 0.0914,-3.78995 0.22663,-6.99059 0.30045,-7.11251 0.0738,-0.12195 0.2264,-1.15773 0.33907,-2.30173 0.38832,-3.94291 0.87415,-6.57776 2.27159,-12.32 3.21248,-13.20061 8.63708,-26.10925 16.31452,-38.82307 0.17834,-0.2953 0.85892,-1.47293 1.51239,-2.61693 2.1616,-3.78422 10.55369,-15.66678 14.05184,-19.89632 5.50787,-6.65944 9.36915,-11.05774 13.24569,-15.08804 3.92078,-4.0761 4.23499,-4.4916 3.99342,-5.28 -0.30646,-1.0001 -1.01844,-4.4657 -1.75354,-8.5356 -1.43207,-7.929 -1.68669,-23.837 -0.51988,-32.48 0.86429,-6.402 1.4881,-10.0337 2.30603,-13.4253 0.78861,-3.2699 2.73971,-10.4111 3.15152,-11.5347 4.10589,-11.2027 4.65334,-12.5071 8.39328,-20 6.93789,-13.89989 15.96106,-26.88149 27.58061,-39.67999 1.75763,-1.936 3.40441,-3.6945 3.65952,-3.9078 0.25507,-0.2133 2.28345,-2.1573 4.50755,-4.32 10.98077,-10.6779 20.5609,-18.3212 33.85014,-27.0066 3.2025,-2.0931 6.4425,-4.1753 7.2,-4.6272 0.75748,-0.4519 2.31322,-1.4149 3.45722,-2.1401 5.10662,-3.2369 17.66966,-9.6002 28,-14.1822 0.352,-0.1561 1.792,-0.7057 3.2,-1.2212 1.408,-0.5155 3.59721,-1.3827 4.86492,-1.9271 1.26772,-0.5444 3.64372,-1.4282 5.28,-1.9639 1.63629,-0.5357 3.26308,-1.0997 3.61508,-1.2533 1.27827,-0.5578 5.16515,-1.8984 7.04,-2.428 1.056,-0.2984 2.208,-0.6574 2.56,-0.7979 0.83059,-0.3316 8.0791,-2.4353 9.12,-2.6468 0.44,-0.089 2.528,-0.6115 4.64,-1.1602 4.78115,-1.242 6.29484,-1.5934 8.31999,-1.9315 1.69734,-0.2833 9.368507,-1.7765 11.519997,-2.2423 3.07155,-0.665 19.89955,-2.7363 24.96,-3.0723 1.76,-0.1169 3.848,-0.275 4.64,-0.3514 0.792,-0.076 6.552,-0.1623 12.8,-0.1909 10.00057,-0.046 12.96016,0.039 20,0.5702 0.88,0.066 2.96652,0.2146 4.6367,0.3292 1.67018,0.1146 3.11018,0.2537 3.2,0.3092 0.0898,0.056 0.92726,0.1859 1.86102,0.2898 0.93376,0.104 2.01376,0.2559 2.4,0.3377 0.38624,0.082 1.56628,0.2352 2.62228,0.341 1.66972,0.1674 5.73273,0.8026 8.17289,1.2778 0.4329,0.084 1.57911,0.2984 2.54711,0.4758 1.86028,0.3409 2.75804,0.5109 4.31999993,0.8179 2.39980007,0.4717 14.96486007,3.7114 17.12000007,4.4142 1.32,0.4304 4.128,1.3196 6.24,1.9759 8.14006,2.5298 21.64736,8.4638 29.44,12.9336 8.9559,5.1371 15.63878,9.6503 22.71088,15.3376 4.5793,3.6827 15.01706,13.9708 18.70906,18.4408 3.55562,4.3049 9.061323,12.2419 11.547013,16.6461 1.5746,2.79 6.3441,12.551 6.72045,13.7539 0.22029,0.704 0.66535,1.856 0.98899,2.56 0.32368,0.704 1.08672,2.7889 1.69565,4.6332 0.60896,1.8442 1.22435,3.3779 1.36759,3.4082 0.1432,0.03 3.06838,0.9424 6.50038,2.0268 7.66531,2.4222 9.17878,2.9704 18.4,6.664 5.40742,2.1661 16.04634,7.4752 21.6,10.77899 11.68707,6.9526 20.59414,13.8515 28.5384,22.1043 5.30205,5.5079 6.20378,6.5994 11.35462,13.7445 3.70826,5.1439 8.49335,14.239 10.32736,19.6293 0.51847,1.5239 1.25773,3.6347 1.64282,4.6907 0.38509,1.056 0.82579,2.424 0.9793,3.04 2.44697,9.8181 3.32723,16.9248 3.25011,26.24 -0.0571,6.8979 -0.12535,7.9022 -0.87002,12.79996 -0.9728,6.39811 -1.49849,9.18528 -2.0824,11.04 -0.33241,1.056 -0.82464,2.712 -1.09379,3.68 -1.48083,5.32592 -2.07376,7.08794 -4.23312,12.58003 -2.65917,6.76333 -7.96486,17.49175 -11.33533,22.92067 -1.23088,1.98263 -2.23795,3.65306 -2.23795,3.71204 0,0.33699 -5.72262,8.65152 -8.5808,12.46726 -8.2081,10.95798 -17.15706,20.92691 -27.50896,30.64426 -3.58413,3.36441 -6.73171,6.53315 -6.99466,7.04163 -0.57862,1.11897 -3.69179,1.39158 -2.40094,1.35825 3.07736,-7.91449 0.004,-9.22823 -3.76787,-10.84568 0,0 -1.02455,-1.34237 -0.59479,-2.00729 3.37643,-5.22395 -0.39236,-11.00096 -3.74912,-12.89617 -2.33588,-1.31882 -5.59633,-4.89881 -11.16292,-10.43087 -12.12404,-12.0488 -26.94394,-20.35744 -47.268913,-26.50087 -3.49706,-1.05699 -8.43434,-2.33676 -10.21104,-2.64672 -0.44,-0.0768 -1.232,-0.26713 -1.76,-0.42304 -0.528,-0.1559 -1.896,-0.43836 -3.04,-0.62768 -1.144,-0.18931 -2.44,-0.41856 -2.88,-0.50944 -1.04502,-0.21584 -6.37606,-1.03254 -10.32,-1.58102 -0.572,-0.0795 -2.192,-0.23194 -3.6,-0.33866 -1.408,-0.10672 -2.776,-0.25104 -3.04,-0.32073 -1.42378,-0.37581 -9.48202,-0.63587 -19.68,-0.63514 -10.7168,0 -16.47184,0.27533 -24,1.14483 -10.67674,1.23322 -13.69664,1.62644 -15.68,2.0417 -1.232,0.25795 -3.608,0.69754 -5.28,0.9769 -1.672,0.27936 -3.904,0.70652 -4.96,0.94924 -1.056,0.24272 -2.784,0.60624 -3.84,0.80778 -1.056,0.20157 -2.424,0.49062 -3.04,0.6424 -0.616,0.15174 -1.768,0.42874 -2.56,0.61552 -2.8888,0.68128 -10.14647,2.6032 -12.16,3.22013 -0.44,0.13481 -1.664,0.49827 -2.72,0.80771 -1.056,0.30944 -2.208,0.66973 -2.56,0.80061 -0.352,0.13091 -1.504,0.49091 -2.56,0.8 -1.056,0.30912 -2.208,0.6736 -2.56,0.81001 -0.352,0.13639 -1.432,0.50592 -2.4,0.82119 -0.968,0.31526 -1.904,0.67088 -2.08,0.79024 -0.176,0.11936 -0.81927,0.32393 -1.42951,0.45465 -0.61021,0.13069 -1.33021,0.35175 -1.6,0.49124 -0.26976,0.13948 -1.42649,0.5824 -2.57049,0.98425 -1.144,0.40186 -2.44,0.91655 -2.88,1.14375 -0.44,0.2272 -1.04349,0.41398 -1.34112,0.41504 -0.2976,0 -0.62327,0.13491 -0.72368,0.29737 -0.10039,0.16243 -0.64416,0.39677 -1.20836,0.52067 -0.56422,0.12394 -1.24656,0.34596 -1.51635,0.49341 -0.76995,0.4208 -3.47376,1.57053 -3.69344,1.57053 -0.10893,0 -0.94483,0.34067 -1.85757,0.75706 -0.9127,0.41638 -3.38748,1.52003 -5.49948,2.45257 -14.54679,6.42304 -29.458997,14.95933 -45.265147,25.91146 -5.99584,4.15449 -16.20342,12.55513 -22.35648,18.39891 -13.44969,12.77363 -23.02335,24.66013 -30.75263,38.18186 -10.23904,17.91235 -14.96266,36.17702 -13.75299,53.17814 0.144,2.024 0.35961,4.436 0.4791,5.36 l 0.21731,1.68 -0.92457,-0.0436 c -0.50852,-0.024 -1.28458,-0.1032 -1.72458,-0.17607 z m -45.39917,-247.70031 c 0.39802,-0.5076 0.38672,-0.5189 -0.12083,-0.1209 -0.308,0.2416 -0.56,0.4936 -0.56,0.56 0,0.2634 0.26278,0.094 0.68083,-0.4391 z m 76.28765,-45.1382 c -0.0985,-0.098 -0.35674,-2e-4 -0.57382,0.2185 -0.31367,0.316 -0.27693,0.3527 0.17913,0.1791 0.31559,-0.1202 0.49319,-0.2991 0.39469,-0.3976 z m 270.14486,-34.49519 c -0.10633,-0.1063 -0.38233,-0.1177 -0.61334,-0.025 -0.25526,0.1022 -0.17946,0.178 0.19334,0.1934 0.33732,0.014 0.52634,-0.062 0.42,-0.1681 z m -4.48,-0.96 c -0.10633,-0.1063 -0.38233,-0.1177 -0.61334,-0.025 -0.25526,0.1022 -0.17946,0.178 0.19334,0.1934 0.33732,0.014 0.52634,-0.062 0.42,-0.1681 z m -2.88,-0.64 c -0.10633,-0.1063 -0.38233,-0.1177 -0.61334,-0.025 -0.25526,0.1022 -0.17946,0.178 0.19334,0.1934 0.33732,0.014 0.52634,-0.062 0.42,-0.1681 z m -102.400013,-5.76 c -0.10634,-0.1063 -0.38234,-0.1177 -0.61334,-0.025 -0.25527,0.1022 -0.17946,0.178 0.19334,0.1934 0.33731,0.014 0.52634,-0.062 0.42,-0.1681 z m 2.87999993,0 c -0.10634,-0.1063 -0.38234,-0.1177 -0.61334,-0.025 -0.25526993,0.1022 -0.17945993,0.178 0.19334,0.1934 0.33731,0.014 0.52634,-0.062 0.42,-0.1681 z m 3.20000007,-0.32 c -0.10634,-0.1063 -0.38234,-0.1177 -0.61334,-0.025 -0.25527,0.1022 -0.17946,0.178 0.19334,0.1934 0.33731,0.014 0.52634,-0.062 0.42,-0.1681 z m 4.48,-0.32 c -0.10634,-0.1063 -0.38234,-0.1177 -0.61334,-0.025 -0.25527,0.1022 -0.17946,0.178 0.19334,0.1934 0.33731,0.014 0.52634,-0.062 0.42,-0.1681 z" id="path1180" sodipodi:nodetypes="sssssssssssssscsssssssscsscsssssssccssscccscscscssscsssssssccsssssscssssssssssccssssssssssscsssssssssssssssssscssssssssssscssssssscsscccsccccsccccsccccsccccsccccsccccscc"></path><path style="opacity:1;fill:#8d0267;fill-opacity:1;stroke-width:0.32" d="m -194.20836,-114.45474 c -0.616,-0.14503 -2.848,-0.57498 -4.96,-0.95546 -2.112,-0.38048 -4.344,-0.81898 -4.96,-0.97446 -0.616,-0.15549 -2.848,-0.6609 -4.96,-1.12314 -6.52986,-1.42915 -16.16323,-4.18736 -24.48,-7.00909 -24.21293,-8.21494 -45.1329,-20.3536 -60.11635,-34.88208 -4.80947,-4.66342 -10.09191,-10.74211 -12.93607,-14.88595 -13.24839,-16.17909 -19.83077,-43.24003 -18.06422,-62.46 0.46534,-19.50936 8.9291,-37.58739 18.40367,-54.25946 12.05553,-21.14695 29.82059,-41.14763 45.23575,-54.89004 8.52551,-7.8341 24.67039,-19.7132 36.98469,-28.0275 2.948,-1.9904 6.1725,-3.0584 6.1725,-3.1373 0,-0.079 -0.18,-0.035 -0.4,0.097 -4.39299,2.6434 -15.02515,10.1174 -21.52,15.1277 -11.73514,9.0529 -19.41702,15.6449 -28.68906,24.6187 -2.52579,2.4446 -3.51455,2.7428 -3.88243,2.4002 0,0 -0.37897,-1.53195 -0.73676,-3.11595 -0.62954,-2.787 -0.77965,-3.68491 -1.77763,-11.59161 -0.61255,-4.8529 -0.79797,-17.63245 -0.19308,-23.91875 1.50387,-15.6323 5.99132,-31.72148 13.81868,-47.33158 7.46947,-14.8964 18.19213,-30.13986 30.56813,-42.96526 18.50345,-19.1753 41.5234,-36.55468 64.98864,-47.7096 14.25365,-6.82886 24.07552,-11.8459 18.79014,-5.82192 0,0 -1.06728,2.25717 -2.334,4.10517 -1.26669,1.848 -3.05805,4.584 -3.98077,6.08 -0.92272,1.496 -1.77085,2.792 -1.8847,2.88 -0.11389,0.088 -0.54496,0.808 -0.95796,1.6 -0.41302,0.792 -1.87913,3.6 -3.25801,6.24 -8.3465,15.98 -8.95754,27.7756 -1.7944,34.6405 1.49728,1.4349 1.6623,1.5085 3.36886,1.5022 2.18663,-0.01 4.93341,-1.3579 8.83447,-4.3414 1.408,-1.0768 3.568,-2.6144 4.8,-3.417 2.2878,-1.4903 6.87433,-4.876 7.96688,-5.881 0.33379,-0.307 3.50179,-2.6193 7.04,-5.1384 15.42777,-10.9841 27.00601,-17.7765 41.487293,-24.3385 6.02487,-2.7301 20.85831,-7.3203 27.50583,-8.5117 0.968,-0.1735 3.848,-0.7567 6.4,-1.296 2.552,-0.5393 6.512,-1.2029 8.8,-1.4748 3.73328,-0.4435 6.56422,-0.8068 13.76,-1.7655 1.232,-0.1641 4.07872,-0.4703 6.32604,-0.6803 4.28829,-0.4008 5.25607,-0.9328 2.0386,-1.1207 -1.39024,-0.081 -2.51389,-0.4467 -4.6208,-1.5034 -8.18864,-4.1071 -17.66832,-7.0808 -28.68948,-8.9997 -2.45344,-0.4272 -9.61091,-1.2117 -14.41436,-1.5798 -2.97172,-0.2278 -19.11565,-0.231 -22.56,0 -12.427043,0.8837 -23.031773,1.20947 -27.630003,2.4374 -3.41341,0.91153 0.80213,-1.08103 9.5085,-2.8193 15.657101,-3.35296 33.77783,-5.6566 45.001503,-5.6792 12.83062,-0.014 17.14681,0.2787 25.76,1.7447 12.80777,2.1801 24.0944,6.2106 35.6163203,12.7189 2.61468,1.4769 3.52976,2.147 3.30374,2.4193 -0.37296,0.4494 1.91199993,0.4343 5.8799399,-0.039 6.0303298,-0.7191 16.3741998,-0.282 24.4799998,1.0346 10.032,1.6294 20.4248,5.1149 29.6,9.9269 14.066513,5.79448 24.393779,16.12874 31.396366,23.27942 2.794156,2.71032 -4.659994,-1.54048 -4.780726,-1.70392 -5.42374,-3.3758 -23.14425,-12.7589 -28.0375,-14.846 -1.48598,-0.6338 -3.14198,-1.355 -3.68,-1.6027 -4.89411,-2.253 -12.92291,-4.7052 -18.85491,-5.7587 -3.81306,-0.6772 -5.60442,-0.8203 -10.17549,-0.8127 -3.05126,0 -5.97974,0.1353 -6.50774,0.2894 l -0.96,0.2804 0.85635,0.3434 c 0.47097,0.1888 3.63897,2.2119 7.04,4.4957 11.27049,7.5681 18.03158,14.9814 23.17654,25.4124 1.29152,2.6184 2.6976,6.2148 3.82554,9.7846 0.98093,3.1045 2.16253,6.8416 2.62579,8.3047 0.46326,1.4631 0.93821,2.7195 1.05542,2.7919 0.36234,0.224 5.70679,0.7518 9.73383,0.9614 2.10841,0.1098 3.92713,0.2574 4.04163,0.3282 0.1145,0.071 2.70941,0.431 5.76653,0.8005 3.05709,0.3695 6.27837,0.7922 7.15837,0.9393 0.88,0.1471 2.608,0.4344 3.84,0.6385 1.232,0.204 2.96,0.492 3.84,0.64 0.88,0.1479 2.536,0.4205 3.68,0.6057 1.144,0.1851 3.088,0.5634 4.32,0.8405 1.231997,0.2772 2.959997,0.6296 3.839997,0.7833 0.88,0.1537 2.032,0.4243 2.56,0.6013 0.528,0.177 1.63385,0.4118 2.45747,0.5218 0.82361,0.1099 5.69768,2.1298 6.17151,2.5025 0.80742,0.6351 1.23122,2.40282 2.55377,6.42185 1.94456,3.46111 0.36568,1.67858 -5.10275,0.83005 -1.05967,-0.31595 -2.64,-0.7324 -3.52,-0.8985 -2.99885,-0.5663 -9.551807,-1.9998 -9.776737,-2.1389 -0.12336,-0.076 -2.43216,-0.5009 -5.13069,-0.9438 -2.69849,-0.4428 -5.12829,-0.8745 -5.39949,-0.9593 -0.2712,-0.085 -0.99708,-0.2242 -1.61308,-0.3097 -0.616,-0.086 -1.984,-0.3035 -3.04,-0.4843 -1.056,-0.1809 -2.32564,-0.3296 -2.82141,-0.3307 h -0.90144 l 1.08784,1.36 c 2.63152,3.2898 4.83917,7.9295 7.65126,16.08 1.00778,2.9209 1.20922,3.6088 2.06173,7.04 1.34192,5.4011 1.72474,7.3346 2.97395,15.0206 0.85866,5.283 1.94807,16.1497 1.94807,19.4318 0,1.7371 0.12512,2.5698 0.4,2.6622 0.22,0.074 2.128,0.3532 4.239997,0.6207 20.57427,2.6056 42.28918,8.0531 56.8,14.249 5.32764,2.2749 12.95961,6.0505 14.97603,7.4088 0.75683,0.5098 1.46157,0.9269 1.56611,0.9269 0.24656,0 -0.13613,-9.2772 -0.52797,-12.8 -2.13683,-19.2099 -8.52699,-33.10863 -17.06822,-45.3684 -1.7855,-2.56284 -5.56403,-5.33693 -7.6481,-7.0307 -4.70118,-3.82076 3.68432,-0.13135 13.08763,5.24493 5.32191,3.04278 7.35256,5.30057 10.71176,10.32417 3.56887,5.3371 7.03693,12.8359 8.89351,19.23 0.38326,1.32 0.82176,2.76 0.97443,3.2 0.15264,0.44 0.5119,1.88 0.7983,3.2 0.28644,1.32 0.65357,2.976 0.81588,3.68 1.21107,5.2528 1.91132,12.5257 2.09177,21.7253 l 0.14368,7.3254 3.46967,3.6091 c 5.7519,5.9832 10.37641,12.1398 12.9175,17.197 2.58742,5.1495 6.19111,13.99093 6.85895,19.07563 1.40248,3.62731 1.05226,6.21738 1.09587,9.06759 0.0566,5.5351 -0.032,7.44288 -0.53805,11.6 -1.29328,10.62227 -2.27104,15.07302 -4.02634,18.32794 -0.73321,1.35964 -2.61504,5.0471 -4.18185,8.19436 -8.09034,16.2514 -18.86109,30.25828 -34.82688,45.29092 -6.30842,5.93971 -14.66703,11.88324 -14.90069,11.50519 1.05188,-4.47615 2.73783,-8.74531 -4.52768,-14.44972 0.36774,-6.97873 -0.003,-9.86785 -7.88027,-19.17595 -13.67939,-14.34548 -26.628,-22.94048 -45.635037,-29.47431 -5.04784,-1.73526 -11.62666,-3.64493 -15.04,-4.36579 -6.6088,-1.39568 -10.8001,-2.2071 -12.48,-2.4161 -0.968,-0.12044 -2.048,-0.27187 -2.4,-0.33651 -2.91351,-0.53517 -6.18084,-0.94221 -10.08,-1.25571 -1.32,-0.10614 -2.976,-0.24768 -3.68,-0.3145 -7.66458,-0.72774 -22.33725,-0.79897 -30.88602,-0.14992 -2.2033,0.1673 -5.1553,0.36144 -6.56,0.43146 -1.4047,0.07 -4.8579798,0.43379 -7.6739798,0.80842 -2.81599987,0.37462 -6.1999999,0.82083 -7.5199999,0.99158 -1.32,0.17075 -3.408,0.51936 -4.6400001,0.77469 -1.2320002,0.25533 -3.7520002,0.70214 -5.6000002,0.99296 -1.848,0.29081 -3.792,0.66742 -4.32,0.83693 -0.528,0.16947 -1.68,0.44966 -2.56,0.62256 -5.85879,1.15129 -7.16269,1.43792 -9.28,2.03996 -1.056,0.30029 -2.64,0.73376 -3.52,0.96327 -7.6626,1.9984 -10.38336,2.77296 -11.84,3.37056 -0.352,0.14441 -1.72,0.57161 -3.04,0.94934 -1.32,0.37773 -3.12,0.95165 -4,1.27539 -0.88,0.32372 -2.752,1.01392 -4.16,1.53376 -1.408,0.51981 -3.02634,1.04714 -3.59632,1.17181 -0.56999,0.12464 -1.1185,0.35959 -1.21888,0.52202 -0.10042,0.16246 -0.40432,0.29539 -0.67533,0.29539 -0.27101,0 -0.9465,0.20634 -1.50112,0.4585 -0.55459,0.25219 -2.30435,0.97977 -3.88835,1.61686 -1.584,0.63712 -3.312,1.35078 -3.84,1.58592 -0.528,0.23514 -1.32,0.5359 -1.76,0.66835 -0.44,0.13245 -2.24,0.91994 -4,1.74999 -1.76,0.83004 -3.704,1.70969 -4.32,1.95478 -0.616,0.24509 -3.496,1.6552 -6.4,3.13357 -2.904,1.4784 -6.08714,3.0872 -7.07364,3.57507 -0.98649,0.4879 -2.75302,1.4743 -3.92563,2.19203 -1.172613,0.7177 -2.188093,1.30493 -2.256673,1.30493 -0.7567,0 -14.8184,8.77981 -20.11648,12.56029 -1.788,1.27584 -3.56768,2.53571 -3.95485,2.79971 -4.29149,2.92627 -10.61414,7.90262 -15.78598,12.42458 -12.47405,10.90649 -23.19175,22.90576 -31.49011,35.25542 -1.8025,2.68246 -4.35664,6.70502 -4.35664,6.86131 0,0.0668 -0.55469,1.10627 -1.23261,2.31005 -2.48339,4.4095 -2.88013,5.17754 -4.03831,7.8177 -0.64924,1.48003 -1.3759,3.12294 -1.61481,3.65094 -0.84301,1.86333 -2.16429,5.14099 -2.77344,6.88 -1.19703,3.41734 -3.42487,12.6879 -3.96035,16.48 -0.29824,2.112 -0.59984,4.2 -0.67024,4.64 -0.46605,2.91267 -0.21428,14.7152 0.3942,18.48 0.21677,1.34112 0.20704,1.35955 -0.7023,1.32691 -0.50717,-0.0182 -1.42614,-0.15171 -2.04214,-0.29673 z m -43.32192,-183.20096 c 4.57978,-0.79088 7.32771,-1.63735 11.6281,-3.58186 8.05564,-3.64256 13.35958,-6.50456 20.3494,-10.98026 8.53591,-5.4658 7.76832,-4.746 7.15543,-6.7092 -0.19194,-0.6149 -0.54115,-1.9099 -0.776,-2.8779 -0.23485,-0.968 -0.72378,-2.9217 -1.08647,-4.3417 -0.69702,-2.7286 -1.68166,-8.0994 -2.46003,-13.4183 -0.68013,-4.6475 -0.94144,-17.3501 -0.46461,-22.584 0.8906,-9.7754 3.06874,-18.6214 6.28349,-25.5188 l 1.39021,-2.9828 -2.4688,1.3507 c -3.51709,1.9241 -16.63034,9.803 -18.1208,10.8876 -0.80861,0.5884 -1.28326,1.204 -1.34022,1.7382 -0.12276,1.1514 -1.46861,3.4483 -6.46228,11.0291 -5.78,8.7745 -7.86313,12.1639 -10.73212,17.4619 -9.60538,17.7378 -15.32148,36.2474 -13.54525,43.86152 1.00198,4.29511 2.78889,6.24519 6.26083,6.83248 0.80906,0.13684 1.48819,0.26576 1.50912,0.28647 0.0211,0.0208 1.31696,-0.1832 2.88,-0.45315 z m 52.67629,-27.29592 c 1.1031,-0.6747 2.81421,-1.6762 3.80246,-2.2256 0.98826,-0.5494 3.14826,-1.748 4.8,-2.6635 1.65175,-0.9156 4.65917,-2.5835 6.68317,-3.7064 3.20458,-1.778 23.48195,-11.9378 23.82598,-11.9378 0.07,0 1.1818,-0.487 2.47066,-1.0822 5.16013,-2.3829 11.424,-5.1055 13.54336,-5.8865 1.232,-0.4541 2.528,-1.0013 2.88,-1.2162 1.088,-0.664 17.3328,-7.0245 20.32,-7.9561 0.968,-0.3019 2.84,-0.9545 4.16,-1.4503 1.32,-0.4958 3.264003,-1.141 4.320003,-1.4338 1.056,-0.2928 2.17005,-0.668 2.47565,-0.8337 0.30563,-0.1656 0.83712,-0.3012 1.18112,-0.3012 0.344,0 0.71446,-0.144 0.82323,-0.32 0.10877,-0.176 0.52048,-0.32 0.91488,-0.32 0.39443,0 0.85392,-0.1212 1.02112,-0.2693 0.4416,-0.3911 4.81008,-1.6896 8.464,-2.5157 0.44,-0.099 0.9657,-0.3113 1.16819,-0.4707 0.20253,-0.1595 1.49853,-0.6137 2.88,-1.0095 1.38151,-0.3958 2.50922,-0.858 2.50602,-1.0272 -0.003,-0.1692 -0.19623,-2.5396 -0.42899,-5.2676 -1.14279,-13.3934 -0.91031,-28.1994 0.58537,-37.28 0.20291,-1.232 0.44771,-2.816 0.54397,-3.52 0.28528,-2.086 1.94374,-8.2147 2.99315,-11.0609 1.29591,-3.5147 3.26941,-7.2601 4.71571,-8.9498 l 1.1744,-1.3721 -1.26889,0.2037 c -1.22874,0.1973 -3.27671,0.6342 -5.58893,1.1924 -0.616,0.1487 -1.84,0.4377 -2.72,0.6423 -4.578324,1.70721 -9.514888,2.2552 -14.23478,3.7841 -0.97088,0.3236 -2.84522,0.8375 -4.16522,1.142 -1.32,0.3046 -2.688,0.669 -3.04,0.8098 -1.32906,0.5318 -5.983263,1.9285 -6.426463,1.9285 -0.25424,0 -0.71226,0.132 -1.01789,0.2934 -0.3056,0.1614 -1.41965,0.5331 -2.47565,0.826 -1.97571,0.548 -5.07094,1.6234 -5.92,2.0567 -0.264,0.1348 -1.25235,0.4296 -2.19635,0.6551 -0.944,0.2255 -3.104,0.9163 -4.8,1.5349 -1.696,0.6187 -4.52365,1.6139 -6.28365,2.2115 -1.76,0.5977 -3.488,1.2162 -3.84,1.3745 -0.352,0.1582 -1,0.3886 -1.44,0.5119 -0.71408,0.2001 -2.1975,0.8237 -5.32835,2.2399 -0.55463,0.2508 -1.1745,0.4561 -1.37757,0.4561 -0.20304,0 -0.97328,0.2695 -1.71165,0.599 -0.73833,0.3294 -2.13443,0.8904 -3.10243,1.2466 -0.968,0.3562 -2.624,1.0334 -3.68,1.5049 -3.34464,1.4933 -3.82166,1.6928 -4.64,1.9399 -1.8561,0.5604 -17.20237,7.6417 -25.6,11.8127 -4.46051,2.2155 -14.08,7.2772 -14.08,7.4088 0,0.076 0.49447,-0.8618 1.31931,-1.438 1.02979,-0.71938 3.2102,-2.42477 2.08056,0.0593 -0.0439,0.0965 -0.14649,0.7957 -0.492,1.6018 -1.39446,3.2531 -3.06717,9.6431 -4.01747,15.3474 -1.12701,6.7651 -1.29782,15.4631 -0.4697,23.9176 0.33616,3.432 0.76541,7.032 0.95389,8 0.18848,0.968 0.48903,2.552 0.66791,3.52 0.17888,0.968 0.45152,2.264 0.60585,2.88 0.15434,0.616 0.51517,2.2 0.80183,3.52 0.28665,1.32 0.64291,2.76 0.79171,3.2 0.14877,0.44 0.58173,1.88 0.96214,3.2 0.38042,1.32 0.89511,2.8538 1.14381,3.4084 0.24867,0.5546 0.45216,1.1666 0.45216,1.36 0,0.5136 0.11482,0.4702 2.31437,-0.8751 z m 123.253373,-50.3198 c 0.51028,-0.1614 1.26823,-0.2935 1.68436,-0.2935 0.41612,0 1.00662,-0.1382 1.31225,-0.3071 0.75392,-0.4166 4.4096,-1.2216 8.71565,-1.9192 0.968,-0.1569 3.056,-0.596 4.64,-0.9759 1.584,-0.3799 3.96,-0.8768 5.28,-1.1042 1.32,-0.2275 3.696,-0.6365 5.28,-0.9089 8.19088,-1.4089 14.92442,-2.3018 35.52000023,-4.7103 4.04895997,-0.4735 14.58028977,-1.2499 19.51999977,-1.4391 2.288,-0.088 5.6,-0.2767 7.36,-0.4202 3.73488,-0.3046 35.15677,-0.2462 40.32,0.075 1.936,0.1205 5.824,0.3593 8.64,0.5308 2.816,0.1715 5.66,0.3823 6.32,0.4686 l 1.2,0.1567 v -1.5842 c 0,-0.8713 -0.13386,-1.6669 -0.29747,-1.768 -0.16365,-0.1011 -1.03399,0.2504 -1.93411,0.7811 -0.90013,0.5308 -1.79834,0.965 -1.996,0.965 -0.1977,0 -1.88336,-0.7705 -3.74592,-1.7123 -1.8626,-0.9417 -4.72413,-2.1998 -6.35904,-2.7958 -1.63492,-0.5959 -2.82493,-1.1327 -2.64452,-1.1929 0.26272,-0.088 7.45271,0.6021 11.21706,1.0759 0.44,0.055 1.81718,0.2013 3.06042,0.3243 l 2.26044,0.2236 -0.56016,-5.5541 c -0.58486,-5.7993 -0.6846,-6.4844 -2.04518,-14.0487 -0.96653,-5.3734 -1.71142,-8.8502 -2.09114,-9.76 -0.14691,-0.352 -0.36172,-1.144 -0.4774,-1.76 -0.22951,-1.2224 -1.01101,-3.9432 -1.42464,-4.96 -0.1432,-0.352 -0.73559,-2.008 -1.31639,-3.68 -2.21376,-6.373 -5.10096,-11.2819 -8.804,-14.9689 l -2.01763,-2.0089 -4.73216,-0.4507 c -9.13613,-0.8701 -19.79459,-1.2641 -32.25216,-1.1922 -14.38131,0.083 -28.47378967,0.7166 -33.5364197,1.5078 -1.54902,0.2421 -3.01555,0.3638 -3.2590001,0.2704 -0.46525,-0.1786 -4.1298302,0.1942 -9.7645802,0.9932 -1.848,0.262 -5.232,0.6982 -7.52,0.9693 -2.288,0.2711 -5.528,0.709 -7.2,0.9733 -1.672,0.2642 -4.048,0.6105 -5.28,0.7696 -1.232,0.159 -3.176,0.504 -4.32,0.7666 -1.144,0.2626 -2.872,0.5724 -3.84,0.6884 -0.968,0.1161 -3.17955,0.4881 -4.91459,0.8266 -1.73501,0.3385 -3.19994,0.6155 -3.25543,0.6155 -0.0555,0 -0.7654,0.9997 -1.57769,2.2215 -3.29997,4.9639 -5.216,10.4386 -7.17399,20.4985 -0.39088,2.0083 -1.21292,9.7188 -1.46697,13.76 -0.45213,7.1912 -0.23456,18.3378 0.52294,26.7954 l 0.35069,3.9155 0.83754,-0.1819 c 0.4606,-0.1001 1.255,-0.314 1.76524,-0.4755 z m -130.367743,-17.3816 c -345.54877,-179.05337 -172.77438,-89.52668 0,0 z m 131.325003,-48.3226 c 7.045414,-2.30258 -2.90187,0.7396 -5.405,1.8659 0.838454,-1.93491 3.070037,-1.49795 5.405,-1.8659 z m -58.205003,-4.5005 c 2.112,-0.276 5.28,-0.7217 7.04,-0.9906 1.76,-0.2689 4.064,-0.6105 5.12,-0.7592 1.83978,-0.2592 6.02451,-0.9654 9.760003,-1.6472 0.968,-0.1767 2.624,-0.4442 3.68,-0.5945 1.056,-0.1503 2.64,-0.4188 3.52,-0.5966 0.88,-0.1778 2.68,-0.4882 4,-0.6897 1.32,-0.2016 2.84221,-0.5025 3.38272,-0.6688 0.54048,-0.1662 1.43757,-0.3022 1.9935,-0.3022 0.55594,0 2.1297,-0.2039 3.49728,-0.4532 2.24058,-0.4083 4.99364,-0.8284 11.7665,-1.7953 5.90282,-0.8428 19.54627,-2.3092 25.28,-2.7172 1.408,-0.1002 4.144,-0.3197 6.08,-0.4878 5.80291,-0.5037 7.1407,-0.5883 12.32,-0.7784 7.29786,-0.2679 12.0340502,-0.4784 14.5600003,-0.6472 7.8723499,-0.5261 22.6625897,-0.7521 31.6799997,-0.4841 3.696,0.1098 6.83478,0.1055 6.97507,-0.01 0.49773,-0.4085 -0.44265,-5.7338 -1.6728,-9.4731 -1.13779,-3.4584 -4.18013,-9.541 -6.2192,-12.4341 -3.79126,-5.3791 -11.17907,-12.7602 -17.4943298,-17.4784 -3.04061,-2.2717 -12.6320399,-8.6984 -15.37687,-10.3032 l -1.4680902,-0.8584 h -8.13232 c -18.21069,0 -36.45812,3.086 -52.16116,9.6798 -7.232862,2.33953 -12.972879,5.57343 -19.1703,8.3001 -11.795473,6.2601 -25.363143,13.4662 -34.565633,21.236 -12.44861,10.5107 -18.43677,19.1905 -15.58285,22.5874 1.80842,2.1525 5.80822,3.0821 12.70848,2.9536 2.552,-0.047 6.368,-0.3122 8.48,-0.5881 z m 195.600003,-1.6694 c -0.308,-0.081 -0.812,-0.081 -1.12,0 -0.308,0.081 -0.056,0.1464 0.56,0.1464 0.616,0 0.868,-0.066 0.56,-0.1464 z m -2.9496,-0.4309 c -0.5223,-0.1597 -1.8183,-0.3686 -2.88,-0.4643 -5.51194,-0.4964 -5.22576,-0.4847 -4.0104,-0.1636 0.616,0.1628 1.97786,0.3791 3.02637,0.4807 1.04851,0.1016 1.93705,0.2149 1.97456,0.2517 0.0375,0.037 0.69161,0.094 1.45363,0.1264 1.27747,0.055 1.31142,0.037 0.43584,-0.2309 z" id="path1278" sodipodi:nodetypes="csssssccccsscssssscssccsssssscssssssscssccsscscccsscscccscscccssssssscssssssssssccccsccsccsssssscssssssssssssscsscccssscccssssscssssssscssssssssssssssssssssssssssssssssccssssssssscsssssssssssssssscsssssssscsscssssscssccscssssssssssssssssssssssssssssssssssssscscsssccssssssccscssssssscsssssssssssscssscsssccccccscsssssscsscssscsssscsccssccccsscscssscs"></path><path style="opacity:1;fill:#f9ee91;fill-opacity:1;stroke-width:0.32" d="m -293.06762,-143.50817 c -1.04083,-0.42195 -3.0384,-2.83542 -3.83194,-4.62976 -2.01353,-4.55296 -3.03315,-9.96643 -3.03609,-16.11964 -0.005,-10.27693 3.3063,-15.689 7.35885,-12.02775 5.97769,5.40045 7.6928,26.74301 2.56147,31.87434 -1.20896,1.20896 -1.83808,1.39504 -3.05229,0.90281 z m 32.76288,-84.50086 c -4.89555,-2.5865 -8.41581,-13.62717 -7.3632,-23.09338 0.79152,-7.1183 3.39098,-11.45705 6.8663,-11.46048 1.60672,0 2.68736,0.59514 4.35581,2.40522 2.64659,2.87117 4.5256,8.13117 5.18285,14.50842 1.20368,11.67942 -3.38384,20.6295 -9.04176,17.64022 z m 469.38973,-21.76301 c -1.90983,-1.50227 -4.22349,-8.62893 -5.22352,-16.08963 -0.99882,-7.45178 -0.54496,-17.70371 0.90915,-20.53606 0.49811,-0.97028 1.59104,-2.08634 2.04307,-2.08634 0.79984,0 2.35613,1.67152 3.18234,3.41795 2.24912,4.75427 3.63997,12.08 3.89907,20.53696 0.24541,8.00867 -0.48339,12.82826 -2.21923,14.67597 -0.84519,0.89965 -1.5233,0.9209 -2.59088,0.0811 z m -399.03917,-36.29408 c -4.56464,-1.62819 -8.15705,-6.91043 -9.37024,-13.77795 -0.56137,-3.17779 -0.55795,-5.36669 0.0134,-8.57184 0.812,-4.55507 3.26151,-8.66285 6.19338,-10.38637 1.29952,-0.7639 1.8423,-0.88179 4.06006,-0.88179 2.19268,0 2.76663,0.12154 4,0.84714 2.41844,1.42272 4.39629,3.70144 5.93076,6.83286 1.69312,3.45517 2.38924,6.64646 2.38924,10.95293 0,10.13046 -6.4199,17.40934 -13.21664,14.98502 z m 362.88298,-38.13392 c -2.1136,-0.6496 -4.81786,-3.42553 -6.37485,-6.54377 -4.66208,-9.33697 -4.23664,-23.08732 0.88989,-28.76179 3.03491,-3.35929 7.20448,-3.04622 10.63094,0.79821 6.00496,6.73738 7.64093,21.28319 3.34659,29.75503 -1.16925,2.30666 -3.3832,4.44957 -5.08541,4.92221 -1.49907,0.41626 -1.50038,0.41619 -3.40716,-0.16989 z M -67.739873,-332.349 c -8.519552,-2.07555 -14.913056,-14.87247 -13.336704,-26.69413 1.040512,-7.80307 4.841888,-13.75553 10.013664,-15.68014 2.236256,-0.83219 5.91904,-0.55468 8.218912,0.61933 4.449472,2.2713 8.272544,7.6114 10.016992,13.99185 0.624224,2.28308 0.728352,3.42982 0.721632,7.94802 -0.009,6.05874 -0.369568,7.85008 -2.422752,12.03615 -1.515968,3.09073 -4.016128,5.77227 -6.46128,6.92999 -1.922496,0.91028 -4.940704,1.28983 -6.750464,0.84893 z m 149.242336,-38.20302 c -18.92166,-3.46339 -35.38352,-24.13728 -38.10282,-47.85205 -0.5175,-4.5132 -0.20345,-12.3399 0.65485,-16.32 0.92167,-4.2739 1.43533,-5.7519 3.39184,-9.76 3.90659,-8.0029 10.04202,-13.3422 17.89613,-15.574 3.43533,-0.9762 10.0065,-1.0407 13.6,-0.1335 18.06755,4.5612 33.143517,23.562 36.329567,45.7875 0.59136,4.1255 0.59379,11.6429 0.005,15.52 -2.18583,14.39274 -10.47095,24.96763 -21.934527,27.99667 -2.76451,0.73048 -8.7545,0.90015 -11.84,0.33538 z" id="path1294"></path><path style="fill:#dfc805;fill-opacity:1;stroke-width:0.32" d="m 84.191643,-380.11872 c -6.555808,-0.6756 -14.19824,-5.2155 -19.619008,-11.6545 -9.875328,-11.7303 -14.238752,-28.8526 -10.792512,-42.3502 1.379072,-5.4012 3.604448,-9.4645 7.063648,-12.8974 3.961184,-3.931 8.279424,-5.7077 13.872448,-5.7077 16.613056,0 32.715581,20.2189 33.694911,42.3084 0.83779,18.8968 -9.49091,31.8192 -24.219487,30.3014 z" id="path1310"></path><path style="opacity:1;fill:#d3a25b;fill-opacity:1;stroke-width:0.32" d="m -177.02342,-73.254546 c -3.0095,-0.9831 -4.3748,-1.7208 -7.3793,-3.9873 -4.6722,-3.5246 -8.0939,-7.18 -12.0304,-12.8523 -9.8826,-14.240104 -17.3198,-35.110504 -20.0129,-56.160004 -0.8286,-6.4759 -0.8249,-22.8275 0.01,-27.84 2.5685,-15.4903 8.032,-24.3364 16.317,-26.4191 2.4852,-0.6247 6.6576,-0.2357 9.5444,0.8901 11.8112,4.6057 24.2584,22.102 31.7501,44.6291 3.0704,9.2325 4.9697,17.5506 6.343,27.7799 0.5865,4.3686 0.7117,6.8541 0.7253,14.4 0.016,9.0638 -0.1834,11.7352 -1.3048,17.440004 -1.221,6.2116 -4.0621,12.8905 -7.0806,16.6447 -4.4376,5.5193 -10.6115,7.522 -16.8781,5.4749 z" id="path1326"></path><path style="fill:#eeca96;fill-opacity:1;stroke-width:0.32" d="m -177.01972,-83.254546 c -7.58397,-1.87577 -15.50986,-10.55305 -22.24125,-24.349824 -10.01792,-20.53283 -14.36489,-46.83741 -10.89625,-65.93562 2.51344,-13.83888 9.23814,-21.52864 17.49465,-20.00528 1.96224,0.36205 5.8297,2.04839 7.09738,3.09466 l 0.73449,0.60624 -2.33203,0.0881 c -2.51526,0.095 -3.87142,0.62617 -6.03203,2.36246 -4.47216,3.59392 -7.63056,12.56893 -8.59699,24.42944 -0.39245,4.81651 -0.0881,18.30221 0.45859,20.32 0.0716,0.264 0.28566,1.75834 0.47581,3.32077 0.38688,3.17869 2.02358,11.66432 2.72329,14.11923 0.25082,0.88 0.76333,2.68 1.13892,4 3.2838,11.54074 8.5415,22.752704 13.72342,29.264904 3.2991,4.14608 8.04512,7.81372 10.83242,8.3712 0.55504,0.111 0.93104,0.32828 0.83552,0.48288 -0.24756,0.40051 -3.52685,0.29811 -5.41594,-0.16916 z" id="path1342"></path><path style="opacity:1;fill:#dfc805;fill-opacity:1;stroke-width:0.32" d="m -33.359615,274.55073 c -40.18186,-1.39529 -81.383545,-8.15363 -118.719995,-19.47369 -26.56451,-8.05411 -49.716,-17.32586 -74.72,-29.92403 -38.60221,-19.44957 -74.5903,-44.453 -106.5519,-74.02906 -5.70602,-5.28013 -19.51994,-19.19606 -25.76522,-25.95552 -36.39689,-39.39331 -65.693,-84.922374 -86.53687,-134.486884 -8.00651,-19.03866 -13.25793,-34.13466 -19.211,-55.22486 -17.71272,-62.751696 -21.54924,-131.858796 -11.02585,-198.608296 4.46545,-28.3242 12.79627,-59.8572 23.07995,-87.36 19.31723,-51.6622 47.32491,-99.0931 82.94407,-140.4655 13.30119,-15.4496 30.53268,-32.8667 45.78682,-46.2801 25.16218,-22.1258 51.78176,-40.864 82.24,-57.8909 6.70358,-3.7475 27.50781,-14.091 35.2,-17.5008 20.01635,-8.8729 42.4984,-17.0017 62.24,-22.504 37.42605,-10.4314 70.891475,-15.6217 110.399995,-17.1224 27.8405101,-1.0575 59.80019,0.8255 87.52,5.1565 25.04521,3.9131 53.020585,10.7374 76.000005,18.5394 44.1864,15.0023 84.2601,35.4921 121.59999,62.1745 82.47206,58.9329 143.40336,142.9733 173.40742,239.1746 11.54858,37.028 17.83002,71.9109 20.41277,113.3587 0.25091,4.0265 0.40877,13.6663 0.40877,24.96 0,18.6897 -0.20922,24.3137 -1.45235,39.04 -4.63034,54.851696 -18.27703,106.367396 -41.40973,156.320036 -27.78099,59.99008 -68.94122,114.032744 -120.10669,157.698054 -34.15107,29.14496 -71.77832,52.79753 -113.34018,71.24589 -30.4473,13.51488 -62.10173,23.54444 -94.915085,30.07344 -26.37491,5.24793 -48.06265,7.85651 -74.68491997,8.98297 -6.67715993,0.28253 -25.88084003,0.34221 -32.80000003,0.10195 z m 42.98272,-44.39798 c 21.37657,-1.56518 36.76796,-3.49021 52.79049,-6.60259 22.38935,-4.34919 49.317705,-12.02787 69.506795,-19.8201 15.73814,-6.07433 30.97328,-12.90131 43.27411,-19.39145 17.2825,-9.11853 26.79171,-14.7713 41.376,-24.59597 32.98214,-22.2184 60.65474,-46.96535 86.43215,-77.29421 29.64451,-34.878754 52.78016,-73.601224 70.46912,-117.945094 4.86394,-12.19335 8.43808,-22.67355 12.05053,-35.33495 9.55949,-33.505596 14.69222,-63.637596 16.21642,-95.199996 0.49427,-10.2348 0.49251,-35.0889 -0.003,-45.4542 -1.44356,-30.184 -6.83498,-62.4829 -15.32784,-91.8258 -0.96788,-3.344 -2.10282,-7.3358 -2.52212,-8.8707 -3.35731,-12.2894 -13.6056,-38.771 -21.39683,-55.2893 -5.43773,-11.5285 -13.44397,-26.5312 -19.42877,-36.4069 -19.04726,-31.4305 -38.14867,-55.8801 -63.44985,-81.2153 -25.08573,-25.1194 -49.67535,-44.4714 -79.6407,-62.6773 -12.7143,-7.7248 -20.30755,-11.8569 -33.98761,-18.4956 -12.9488,-6.2838 -24.33069,-11.2603 -32.78141,-14.3331 -14.63542,-5.3215 -19.62755,-7.0455 -26.81728,-9.2608 -15.121705,-4.6594 -23.544425,-6.8104 -38.142725,-9.7409 -33.04784,-6.634 -59.92599,-9.195 -91.52,-8.7203 -23.41402,0.3519 -44.0002,2.2293 -65.44,5.968 -5.76564,1.0054 -22.717405,4.3985 -27.332095,5.4708 -20.07161,4.664 -48.39801,14.2191 -69.1479,23.3251 -59.67078,26.1862 -111.53485,64.9687 -153.63811,114.8863 -16.98243,20.1344 -32.77501,43.0873 -46.01635,66.88 -3.8159,6.8567 -14.03817,27.4349 -17.08825,34.4 -9.62924,21.9893 -18.2495,47.6088 -23.36466,69.44 -8.39531,35.8307 -11.83408,64.7833 -11.82028,99.52 0.009,21.6143 1.25778,39.1668 4.28152,60.16 1.63,11.3167 4.92277,28.3525 7.32944,37.919996 0.33204,1.32 0.83914,3.546 1.1269,4.9466 0.60345,2.9372 4.24705,15.8467 6.32604,22.4134 5.35719,16.9214 12.53717,35.4347 19.60864,50.56004 16.38647,35.04944 35.59361,65.13789 60.26084,94.4 25.59325,30.360674 55.25203,56.828864 88.36035,78.854944 26.42925,17.58266 54.20368,31.9018 83.67392,43.13812 18.57251,7.08128 42.73936,14.14396 62.56,18.28294 11.441145,2.38915 25.870645,4.80307 31.839995,5.32653 1.232,0.10803 3.968,0.40265 6.08,0.65469 8.12374,0.9694 20.83225,1.95692 32.32,2.51142 6.11744,0.2953 36.63577,-0.11958 42.98272,-0.58432 z" id="path1358"></path></g><g inkscape:groupmode="layer" id="layer2" inkscape:label="Ebene 2" style="opacity:1" transform="translate(-228.91314,-8.4039961)"></g>
</svg></svg><style>@media (prefers-color-scheme: light) { :root { filter: none; } }
@media (prefers-color-scheme: dark) { :root { filter: none; } }
</style></svg>