<?xml version="1.0" encoding="UTF-8" standalone="no"?>
<svg
   xmlns:osb="http://www.openswatchbook.org/uri/2009/osb"
   xmlns:dc="http://purl.org/dc/elements/1.1/"
   xmlns:cc="http://creativecommons.org/ns#"
   xmlns:rdf="http://www.w3.org/1999/02/22-rdf-syntax-ns#"
   xmlns:svg="http://www.w3.org/2000/svg"
   xmlns="http://www.w3.org/2000/svg"
   xmlns:sodipodi="http://sodipodi.sourceforge.net/DTD/sodipodi-0.dtd"
   xmlns:inkscape="http://www.inkscape.org/namespaces/inkscape"
   version="1.1"
   id="svg8"
   inkscape:version="1.0.2 (e86c8708, 2021-01-15)"
   sodipodi:docname="Gitarre.svg"
   x="0px"
   y="0px"
   viewBox="0 0 668.1207 593.50744"
   xml:space="preserve"
   width="668.12073"
   height="593.50745"><metadata
   id="metadata846"><rdf:RDF><cc:Work
       rdf:about=""><dc:format>image/svg+xml</dc:format><dc:type
         rdf:resource="http://purl.org/dc/dcmitype/StillImage" /><dc:title></dc:title></cc:Work></rdf:RDF></metadata><defs
   id="defs844"><linearGradient
     id="linearGradient1125"
     osb:paint="solid"
     gradientTransform="translate(-95.762332,330.3293)"><stop
       style="stop-color:#bf90c1;stop-opacity:1;"
       offset="0"
       id="stop1123" /></linearGradient><linearGradient
     id="linearGradient862"
     osb:paint="solid"
     gradientTransform="matrix(2.0434892,0,0,1.6989944,2497.7208,3343.6001)"><stop
       style="stop-color:#802183;stop-opacity:1;"
       offset="0"
       id="stop860" /></linearGradient><linearGradient
     id="linearGradient856"
     osb:paint="solid"
     gradientTransform="matrix(2.0434892,0,0,1.7151641,3415.7089,2197.9472)"><stop
       style="stop-color:#f9ee91;stop-opacity:1;"
       offset="0"
       id="stop854" /></linearGradient><linearGradient
     id="linearGradient850"
     osb:paint="solid"
     gradientTransform="matrix(2.0434892,0,0,1.740537,3481.9324,4168.0801)"><stop
       style="stop-color:#dfc805;stop-opacity:1;"
       offset="0"
       id="stop848" /></linearGradient></defs>
<style
   type="text/css"
   id="style833">
	.st0{fill:none;}
	.st1{fill:#F9EE91;}
	.st2{fill:#802183;}
	.st3{fill:#DFC805;stroke:#F9EE91;stroke-width:0.2673;}
</style>
<sodipodi:namedview
   bordercolor="#666666"
   borderopacity="1.0"
   fit-margin-bottom="0"
   fit-margin-left="0"
   fit-margin-right="0"
   fit-margin-top="0"
   id="base"
   inkscape:current-layer="layer1"
   inkscape:cx="65.984696"
   inkscape:cy="161.96618"
   inkscape:document-rotation="0"
   inkscape:document-units="mm"
   inkscape:pageopacity="0.0"
   inkscape:pageshadow="2"
   inkscape:window-height="1005"
   inkscape:window-maximized="0"
   inkscape:window-width="2082"
   inkscape:window-x="63"
   inkscape:window-y="92"
   inkscape:zoom="1"
   pagecolor="#ffffff"
   showgrid="false"
   showguides="true"
   inkscape:guide-bbox="true">
	</sodipodi:namedview>
<g
   id="layer1"
   transform="translate(216.17148,84.007428)"
   inkscape:groupmode="layer"
   inkscape:label="Ebene 1">
	<path
   id="path956"
   class="st0"
   d="m 209.3,55.4 c -1.9,-0.2 -3.5,1 -5.3,1.6 -3.5,1.2 -7.1,2.2 -10.6,3.6 -5.2,2.1 -10.7,3.7 -15.8,6.1 -6.8,3.2 -13.4,6.8 -20,10.4 -18.2,10.1 -34.7,23 -49.9,37.1 -6,5.6 -10.8,12.1 -16.2,18.2 -15.1,16.6 -26.3,35.4 -36.2,55.5 -4.3,8.6 -8.2,17.5 -11.2,26.7 -4.8,14.9 -9,30.2 -10.8,45.8 -0.6,4.9 -1.5,10.1 -1.5,15.1 0,2.6 0.6,6.9 -0.7,9.1 v 0.2 1.9 c 0.6,0.7 0,1.5 0,2.4 -0.1,2.1 -0.4,4.7 0.1,6.7 0.7,3.3 0.4,6.3 0.6,9.6 0.2,3.6 1.1,7 1.5,10.6 0.5,4.7 0.6,9.5 1.8,14.2 2,7.8 3.5,15.5 5.8,23.3 6.6,21.8 17.9,43.5 31.3,61.9 31.4,43.4 80.2,72.2 131.4,86.1 13.3,3.6 27.4,5.3 41,6.8 1.2,0.1 2.4,-0.3 3.6,-0.2 2.4,0.3 5,0.9 7.4,0.9 2,0 4.4,-0.5 6.2,0.5 2.6,-1.6 6.3,-0.8 9.1,-0.9 5.4,-0.1 11,-0.5 16.3,-1.1 5.7,-0.6 11.7,-0.9 17.3,-2.1 6.4,-1.4 12.8,-2.9 19.1,-4.7 0.9,-0.3 1.6,-0.9 2.5,-1.2 4.9,-1.2 9.6,-2.7 14.4,-4.3 0.9,-0.3 1.9,-0.1 2.8,-0.4 27,-10.8 50.5,-26.9 72.8,-45.5 7.1,-5.9 12.8,-13.4 19.5,-19.7 1.5,-1.4 2.5,-4.4 4.2,-5.4 v -1 c -3.7,-0.7 -6.9,4 -9.9,5.7 -8.7,4.9 -16.7,11.1 -26.4,14.1 -6.7,2.1 -13.4,4.4 -20.1,6.3 -2.8,0.8 -6,1 -8.8,1.7 -1.4,0.3 -2.9,1.2 -4.3,1.4 -1,0.1 -1.9,-0.4 -2.9,-0.3 -4.7,0.4 -9.4,0.5 -14.2,0.5 -9.1,0 -18.3,0 -27.1,-1.7 -3.8,-0.7 -7.5,-2.1 -11.3,-3 -3,-0.7 -6.4,-1.2 -9.3,-2.3 -16.6,-6 -32.9,-13.6 -47.9,-22.9 -2,-1.2 -3.6,-3 -5.5,-4.4 -10.9,-7.7 -20.7,-16.2 -30.1,-25.7 -4.2,-4.2 -8.4,-8.2 -12.4,-12.5 -10.2,-11.1 -18.6,-24.3 -26.6,-37 -6.5,-10.3 -11.1,-22.3 -15.6,-33.6 -4.1,-10.3 -8.2,-20.9 -10.8,-31.7 -2.7,-11.2 -4.1,-22.7 -5.4,-34.3 -0.9,-7.2 -1.8,-14.3 -2,-21.6 -0.1,-2.9 0.5,-5.9 0.6,-8.9 0.8,-34.8 9.8,-68.6 27,-99.1 9.2,-16.4 22.3,-30 36.6,-41.9 5.1,-4.2 10.5,-8.7 16.2,-12.1 4.7,-2.9 9.7,-5.8 14.8,-7.9 3.7,-1.5 8.4,-2.8 11.5,-5.3 l -0.2,-1.2 c -11.1,0 -22.6,3.7 -33.4,5.9 -3.1,0.6 -6.1,1.4 -9.1,2.3 -1.2,0.5 -3.1,0.8 -3.9,1.7 m 25.4,217.5 c 0,0.7 -0.2,1.7 0.4,2.3 0.7,0.7 2.5,1 3.5,1.4 3,1.3 6,2.5 9.1,3.6 4.1,1.4 8,3.3 12,4.9 6.4,2.6 13.1,4.7 19.4,7.4 2.6,1.1 5.3,1.9 7.9,3 1.9,0.9 4.2,2.4 6.3,2.2 0.7,1.1 2.4,1.1 3.1,2.2 1.8,2.8 1.7,7.3 3,10.5 4.6,11 7.8,22.9 11.3,34.3 1,3.3 2.1,6.7 3.4,9.8 0.9,2.2 2.2,4.8 2.2,7.2 2.2,-0.1 3.5,-2.2 4.7,-3.8 2,-2.8 4.6,-5.5 6.9,-8.1 7.6,-8.7 14.6,-17.9 22.1,-26.7 3.1,-3.7 5.9,-8.5 9.6,-11.6 1.9,-1.6 7.5,-0.6 10,-0.6 h 27.1 c 7.3,0 14.6,-0.3 21.8,0 1.3,0.1 6.4,0.8 6.9,-0.8 0.5,-1.8 -1.2,-4 -2.2,-5.3 -2.2,-3 -4,-6.5 -6.1,-9.6 -6.4,-9.9 -13.1,-20 -19.1,-30.2 -1.6,-2.7 -3.5,-5.4 -5.1,-8.2 -0.6,-1 -1.6,-1.9 -1.7,-3.1 -0.1,-3.7 2.6,-8.4 3.6,-12 3.1,-11.9 7.7,-23.4 11.3,-35.2 1.2,-3.9 2.6,-7.8 3.5,-11.8 0.3,-1.2 1.5,-2.8 0.4,-3.9 -1.1,-1.1 -4.8,0.5 -6.1,0.9 -5.7,1.8 -11.6,2.6 -17.3,4.5 -3.4,1.2 -6.9,1.7 -10.3,2.4 -2.7,0.6 -5.3,1.8 -7.9,2.5 -3.3,0.8 -6.6,1.3 -9.8,2.1 -3,0.8 -5.9,1.7 -8.9,2.4 -1.1,0.2 -2.7,0.9 -3.8,0.7 -1.3,-0.2 -2.6,-1.5 -3.6,-2.3 -2.6,-1.9 -5.2,-3.9 -7.7,-5.7 -2.4,-1.8 -7.2,-3.5 -8.6,-6.2 -2.7,-0.6 -5.5,-3.6 -7.7,-5.3 -5.5,-4 -11.2,-7.8 -16.5,-11.9 -2.2,-1.7 -4.5,-3.4 -6.8,-4.8 -0.8,-0.5 -1.6,-1.4 -2.6,-1.2 -1.3,0.3 -1.4,2.5 -1.5,3.5 -0.2,3.2 0.3,7.2 -0.5,10.3 -0.9,3.5 0.1,7.4 -0.3,11 -1,9.7 -1.6,19.5 -2.4,29.3 -0.2,2.8 0.2,5.6 -0.1,8.4 -0.5,5.3 -7.6,8.5 -11.5,11.5 -8.9,6.8 -18.1,13.2 -27.1,19.8 -2.8,2.1 -5.7,4.1 -8.5,6.2 -1.4,1.4 -3.5,3.4 -5.8,4 z" />
	
	
	
		<path
   id="path1014"
   sodipodi:nodetypes="csscscssssscssscssccssccccscsssscsscscssssssssssssssscssssssssssssssssssscssssscssssscssssssssscssssssssssscssssssscssscsssssscsssssssssscsscsssssssssssssssssssscscsssssssssssssssscsssssssssssccssssssssssssssssssssssssssssssssssssscscssssssssssssssssssssssssssssssssssssssssssssssssssssssccssssssssssssssscscssscssscssssssssssssssssssssssssssssssssssssssssssssssssssssssssssssssssscscscsssssssscscssssscscsscssscssscsscscscssssscsssssssssssssscssssssssssssssscscscssssssssssssssssssssssssssssssssssssscssssssscssssscsssscssssssscsscsscccsccsssscscsssssccsscssscsssssssscscsscsssssssssssssssssssssssssssssssssscssssssssssscscsssscscsssscccsssssscsssscccsssccccssssccssccscsssssscsscsssssscsscssssssssssssssssssssssssssssscsssssssssssssscsssssssssscsscsssssssssssccsscsscsscscsscsccscsscscssssssssssccsssssssscccssssssssssssssssssscsssssssssssssssssscsscssssssssssssssccsscscssssscssssssccssssssssscsssssssssssscssssssscscssssssscscsssssscssssssssssssssssssssssssssssssssssssssssssssssssssssssssscssssssssssssssssssssssssssscsssssssssssssssssssssssssssssssssssssssssssssssssssssssssssssssscssssssscssscscscsssssssssssscssscssscsccsscscsssssssssscsssscsssscsscssssssssssssssssssssssscsssssssssssssscsssssssscsssssssssssscssssscsccssssssssscscssscsssssssssssssssccsscc"
   class="st0"
   d="m 295.7,483 c -0.1,-0.1 -2.4,-0.2 -5.2,-0.2 -6,0 -16.1,-0.3 -16.4,-0.5 -0.1,-0.1 -1.5,-0.2 -3,-0.2 -1.5,-0.1 -3.1,-0.2 -3.4,-0.3 -0.3,-0.1 -1.1,-0.2 -1.8,-0.2 -1.7,-0.1 -7.7,-0.7 -12.6,-1.4 -3,-0.4 -4.7,-0.7 -6.6,-1.1 -0.7,-0.1 -1.5,-0.3 -1.9,-0.4 -0.4,-0.1 -2.2,-0.4 -4,-0.8 -1.8,-0.4 -3.8,-0.8 -4.4,-1 -1.5,-0.3 -2.9,-0.6 -3.8,-1 -0.7,-0.3 -2.2,-0.6 -3.7,-0.8 -0.4,-0.1 -0.8,-0.2 -0.9,-0.3 -0.1,-0.1 -0.4,-0.2 -0.7,-0.2 -0.3,0 -1.2,-0.3 -2.1,-0.6 -0.8,-0.3 -1.8,-0.6 -2,-0.6 -0.3,0 -1.5,-0.3 -2.7,-0.7 -1.2,-0.4 -2.5,-0.8 -3,-0.9 -0.5,-0.1 -1.1,-0.3 -1.4,-0.4 -0.3,-0.1 -1.2,-0.4 -2,-0.7 -0.8,-0.2 -2.1,-0.7 -3,-1.1 -0.8,-0.4 -1.6,-0.7 -1.8,-0.7 -0.2,0 -0.8,-0.3 -1.5,-0.6 -0.7,-0.3 -1.4,-0.6 -1.6,-0.6 -0.2,0 -0.5,-0.1 -0.6,-0.2 -0.1,-0.1 -0.4,-0.2 -0.6,-0.2 -0.2,0 -0.7,-0.1 -0.9,-0.2 -1.1,-0.6 -3.3,-1.5 -4.4,-1.8 -1.6,-0.5 -3.8,-1.5 -3.8,-1.8 0,-0.1 -0.2,-0.2 -0.5,-0.2 -0.3,0 -1.2,-0.4 -2.1,-0.8 -0.9,-0.5 -1.8,-0.8 -2.1,-0.8 -0.2,0 -0.5,-0.2 -0.6,-0.4 -0.1,-0.2 -0.3,-0.4 -0.5,-0.4 -0.3,0 -2.6,-1.1 -4.3,-2 -0.3,-0.1 -1,-0.5 -1.7,-0.8 -1.2,-0.6 -3.4,-1.7 -4.7,-2.4 -0.4,-0.2 -0.7,-0.4 -0.7,-0.5 0,-0.1 -0.4,-0.3 -0.9,-0.5 -1.1,-0.4 -2.9,-1.6 -2.9,-1.9 0,-0.1 -0.3,-0.2 -0.7,-0.2 -0.4,0 -0.8,-0.1 -0.9,-0.3 -0.1,-0.2 -0.6,-0.5 -1.2,-0.8 -0.5,-0.2 -1.7,-0.9 -2.6,-1.5 -0.9,-0.6 -1.7,-1 -1.9,-1 -0.2,0 -0.5,-0.3 -0.8,-0.7 -0.3,-0.4 -0.7,-0.7 -0.9,-0.7 -0.2,0 -0.6,-0.3 -0.9,-0.6 -0.3,-0.3 -0.7,-0.6 -0.9,-0.6 -0.2,0 -0.5,-0.2 -0.7,-0.5 -0.2,-0.3 -0.7,-0.5 -1,-0.5 -0.4,0 -1,-0.4 -1.7,-1.1 -0.6,-0.6 -1.3,-1.1 -1.4,-1.1 -0.2,0 -0.6,-0.3 -1,-0.7 -0.4,-0.4 -0.9,-0.7 -1,-0.7 -0.1,0 -0.5,-0.4 -0.8,-0.8 -0.3,-0.4 -1,-0.9 -1.3,-1.1 -0.4,-0.2 -0.8,-0.5 -0.8,-0.7 -0.1,-0.2 -0.3,-0.4 -0.5,-0.4 -0.2,0 -0.6,-0.3 -1,-0.6 -0.4,-0.4 -1.1,-0.9 -1.7,-1.2 -0.9,-0.5 -1.5,-1 -3.3,-2.7 -0.3,-0.3 -0.7,-0.5 -0.8,-0.5 -0.1,0 -0.6,-0.5 -1.1,-1.1 -0.5,-0.6 -1,-1.1 -1.2,-1.1 -0.2,0 -0.5,-0.3 -0.8,-0.7 -0.3,-0.4 -0.7,-0.8 -1,-0.9 -0.2,-0.1 -0.4,-0.3 -0.4,-0.4 0,-0.2 -0.5,-0.6 -1.1,-1 -0.6,-0.4 -1.1,-0.8 -1.1,-1 0,-0.2 -0.4,-0.5 -0.9,-0.7 -0.5,-0.2 -1.1,-0.7 -1.4,-1.1 -0.3,-0.4 -0.6,-0.7 -0.8,-0.7 -0.1,0 -1.6,-1.4 -3.1,-3 -1.6,-1.7 -4.1,-4.3 -5.7,-5.8 -1.5,-1.5 -3,-3.1 -3.2,-3.5 -0.2,-0.4 -0.7,-0.9 -1.1,-1.2 -0.4,-0.3 -0.8,-0.7 -0.9,-0.9 -0.1,-0.2 -0.3,-0.5 -0.5,-0.5 -0.2,-0.1 -0.4,-0.3 -0.4,-0.5 0,-0.2 -0.5,-0.7 -1,-1.2 -0.6,-0.5 -1.2,-1.3 -1.5,-1.8 -0.3,-0.5 -0.8,-1.3 -1.3,-1.7 -0.4,-0.4 -0.8,-0.9 -0.8,-1.1 0,-0.2 -0.2,-0.4 -0.4,-0.5 -0.2,-0.1 -0.4,-0.3 -0.4,-0.5 0,-0.2 -0.4,-0.7 -0.8,-1.2 -0.5,-0.5 -0.8,-0.9 -0.8,-1 0,-0.1 -0.5,-0.8 -1.4,-1.7 -0.3,-0.3 -0.5,-0.7 -0.5,-1 0,-0.3 -0.1,-0.4 -0.2,-0.4 -0.1,0 -0.4,-0.4 -0.7,-0.8 -0.8,-1.3 -1.1,-1.7 -1.6,-2.2 -0.3,-0.3 -0.7,-1 -1,-1.5 -0.3,-0.5 -0.6,-1 -0.8,-1.1 -0.2,-0.1 -0.3,-0.3 -0.3,-0.4 0,-0.1 -0.5,-1.1 -1.2,-2.1 -0.7,-1 -1.2,-2 -1.2,-2.1 0,-0.2 -0.1,-0.3 -0.2,-0.3 -0.1,0 -0.3,-0.2 -0.4,-0.4 -0.1,-0.2 -0.5,-0.9 -0.8,-1.4 -0.4,-0.5 -0.8,-1.3 -0.9,-1.6 -0.4,-0.9 -2.5,-4.7 -2.8,-5 -0.4,-0.5 -2.7,-5.1 -2.7,-5.4 0,-0.2 -0.1,-0.3 -0.2,-0.3 -0.2,0 -1.9,-3.3 -1.9,-3.8 0,-0.1 -0.2,-0.3 -0.4,-0.4 -0.2,-0.1 -0.4,-0.3 -0.4,-0.5 0,-0.2 -0.3,-0.8 -0.6,-1.4 -0.3,-0.6 -0.7,-1.3 -0.9,-1.7 -0.1,-0.3 -0.4,-0.9 -0.6,-1.3 -0.2,-0.4 -0.4,-1.1 -0.5,-1.5 -0.1,-0.4 -0.6,-1.6 -1.1,-2.6 -1.7,-3.4 -2.6,-5.4 -2.7,-6.4 -0.1,-0.5 -0.3,-1.1 -0.4,-1.3 -0.8,-1.5 -1.2,-2.5 -1.3,-3.3 -0.1,-0.6 -0.3,-1.1 -0.4,-1.1 -0.1,-0.1 -0.2,-0.5 -0.2,-0.9 0,-0.4 -0.1,-0.9 -0.3,-0.9 -0.3,-0.1 -0.7,-1.2 -2.2,-6.5 -0.2,-0.7 -0.3,-1.5 -0.2,-2 0.1,-0.5 0.1,-0.9 -0.1,-1 -0.5,-0.3 -1,-1.9 -1.1,-3.3 -0.1,-0.8 -0.3,-1.4 -0.6,-1.7 -0.3,-0.3 -0.5,-0.8 -0.5,-1.6 0,-0.6 -0.1,-1.4 -0.3,-1.6 -0.2,-0.3 -0.4,-1.1 -0.5,-1.8 -0.1,-0.7 -0.3,-1.6 -0.5,-2 -0.2,-0.4 -0.4,-1.3 -0.5,-1.9 -0.1,-0.7 -0.3,-1.8 -0.4,-2.6 -0.3,-1.6 -0.7,-5.1 -0.8,-6.2 0,-0.4 -0.2,-1 -0.3,-1.2 -0.2,-0.3 -0.3,-0.9 -0.3,-1.4 0,-0.5 -0.1,-1.3 -0.2,-1.9 -0.1,-0.6 -0.4,-1.6 -0.5,-2.3 -0.2,-0.7 -0.4,-3.3 -0.5,-5.7 -0.3,-5.7 -0.3,-6.1 -0.6,-6.3 -0.1,-0.1 -0.3,-3.5 -0.3,-7.9 0,-4.2 -0.1,-8 -0.2,-8.3 -0.1,-0.3 0,-0.7 0.1,-0.8 0.1,-0.1 0.3,-2.3 0.4,-5.5 0.1,-3 0.3,-6.5 0.5,-7.9 0.2,-1.4 0.5,-4.1 0.6,-6 0.1,-1.9 0.4,-4.5 0.6,-5.7 0.2,-1.3 0.4,-3 0.5,-3.8 0.1,-1.5 1,-5.8 1.4,-6.8 0.2,-0.5 0.3,-1.2 0.7,-4.8 0.1,-0.9 0.3,-2.1 0.5,-2.5 0.6,-1.5 0.7,-1.8 0.8,-3.1 0,-0.7 0.2,-1.5 0.4,-1.8 0.2,-0.3 0.4,-1.3 0.5,-2.2 0.1,-1.1 0.3,-2 0.6,-2.7 0.3,-0.7 0.6,-1.6 0.6,-2.5 0,-0.8 0.2,-1.5 0.3,-1.7 0.1,-0.2 0.3,-0.6 0.3,-0.9 0,-0.3 0.2,-1 0.5,-1.6 0.3,-0.5 0.5,-1.1 0.5,-1.4 0,-0.2 0.1,-0.5 0.2,-0.6 0.1,-0.1 0.2,-0.6 0.2,-1 0,-0.5 0.2,-1.1 0.4,-1.4 0.2,-0.3 0.4,-0.8 0.4,-1.2 0,-0.4 0.2,-0.9 0.4,-1.2 0.2,-0.3 0.4,-0.8 0.4,-1.1 0,-0.4 0.2,-1 0.4,-1.4 0.7,-1.5 0.8,-1.6 0.8,-2.1 0,-0.3 0.2,-0.8 0.3,-1.3 0.1,-0.5 0.4,-1 0.5,-1.4 0.2,-1 1.2,-3.7 1.9,-4.8 0.1,-0.2 0.2,-0.7 0.2,-1 0,-0.3 0.1,-0.7 0.2,-0.8 0.1,-0.1 0.5,-1 0.9,-2 0.4,-1 0.8,-1.9 1,-2 0.2,-0.1 0.4,-0.7 0.6,-1.3 0.2,-0.6 0.4,-1.2 0.5,-1.3 0.1,-0.1 0.2,-0.4 0.2,-0.6 0,-0.2 0.2,-0.8 0.4,-1.2 0.2,-0.5 0.5,-1.1 0.6,-1.4 0.1,-0.3 0.4,-1 0.8,-1.5 0.3,-0.5 0.6,-1.1 0.6,-1.3 0,-0.2 0.2,-0.7 0.3,-1 0.6,-1.1 2.2,-4.6 2.8,-6 0.9,-2.3 3.6,-7.8 4.8,-9.9 0.4,-0.7 0.9,-1.5 1.1,-2 0.2,-0.4 0.5,-0.8 0.6,-0.8 0.1,0 0.4,-0.4 0.5,-1 0.2,-0.5 0.4,-1 0.5,-1 0.1,0 0.3,-0.4 0.5,-0.8 0.2,-0.4 0.9,-1.6 1.6,-2.6 0.7,-1 1.3,-2.1 1.3,-2.3 0,-0.2 0.2,-0.7 0.4,-1 0.2,-0.3 0.5,-0.8 0.6,-1.2 0.3,-0.9 1.2,-2.2 1.5,-2.2 0.2,0 0.3,-0.1 0.3,-0.3 0,-0.2 0.4,-1 1,-1.8 0.5,-0.8 1,-1.6 1,-1.7 0,-0.1 0.4,-0.5 0.8,-0.9 0.5,-0.4 1.2,-1.4 1.7,-2.4 0.5,-1 1.2,-2.1 1.5,-2.5 0.4,-0.4 0.9,-1.2 1.2,-1.8 0.3,-0.6 0.9,-1.4 1.3,-1.7 0.4,-0.3 0.9,-0.9 0.9,-1.3 0.1,-0.4 0.6,-1.1 1.1,-1.7 0.5,-0.6 1.2,-1.5 1.6,-2.1 0.3,-0.6 0.8,-1.3 1.2,-1.6 0.3,-0.3 0.6,-0.7 0.6,-0.8 0,-0.1 0.5,-0.8 1.2,-1.5 0.7,-0.7 1.6,-1.9 2.1,-2.7 0.5,-0.8 1.2,-1.6 1.8,-2 0.5,-0.3 0.9,-0.7 0.9,-0.8 0,-0.1 0.4,-0.6 0.8,-1.1 0.5,-0.5 1.1,-1.5 1.4,-2.2 0.4,-0.8 0.9,-1.3 1.3,-1.5 0.4,-0.2 0.7,-0.4 0.7,-0.5 0,-0.2 0.7,-1.1 1.6,-2.1 0.3,-0.3 0.5,-0.7 0.5,-0.9 0,-0.2 0.2,-0.4 0.4,-0.5 0.2,-0.1 0.4,-0.3 0.4,-0.5 0,-0.2 0.4,-0.6 1,-1 0.5,-0.4 1,-0.8 1,-1 0,-0.2 0.3,-0.5 0.6,-0.7 0.3,-0.2 0.6,-0.5 0.6,-0.7 0,-0.2 0.1,-0.3 0.2,-0.3 0.1,0 0.4,-0.3 0.5,-0.6 0.2,-0.3 0.3,-0.6 0.4,-0.6 0.3,0 3,-2.8 3.4,-3.5 0.2,-0.4 0.6,-0.8 0.9,-1 0.3,-0.1 0.8,-0.6 1.1,-1 0.4,-0.4 0.8,-0.8 0.9,-0.8 0.3,0 2.3,-2.1 2.3,-2.4 0,-0.1 0.5,-0.5 1.1,-0.9 0.6,-0.4 1.1,-0.8 1.1,-0.9 0,-0.2 0.7,-0.9 1.8,-2.1 1.4,-1.4 2.3,-2.1 2.4,-2.1 0.1,0 0.4,-0.3 0.6,-0.7 0.2,-0.4 1,-1 1.7,-1.4 0.7,-0.4 1.7,-1.2 2.3,-1.8 0.6,-0.6 1.2,-1.2 1.5,-1.2 0.2,0 0.5,-0.1 0.5,-0.2 0,-0.3 1.5,-2 1.8,-2 0.1,0 0.4,-0.3 0.6,-0.6 0.2,-0.3 0.6,-0.7 0.9,-0.7 0.3,-0.1 0.9,-0.6 1.4,-1.1 0.5,-0.5 1.1,-0.9 1.3,-0.9 0.2,0 0.4,-0.2 0.5,-0.4 0.1,-0.2 0.4,-0.4 0.6,-0.4 0.3,0 0.7,-0.3 1,-0.7 0.3,-0.4 0.7,-0.7 0.9,-0.7 0.2,0 0.3,-0.1 0.3,-0.2 0,-0.1 0.6,-0.7 1.4,-1.2 0.8,-0.6 1.4,-1.1 1.4,-1.2 0,-0.1 0.1,-0.2 0.3,-0.2 0.2,0 0.4,-0.2 0.6,-0.5 0.2,-0.3 0.5,-0.5 0.7,-0.5 0.2,0 0.4,-0.1 0.4,-0.3 0,-0.2 0.4,-0.4 0.8,-0.6 0.4,-0.2 0.9,-0.6 1.1,-0.8 0.2,-0.3 0.5,-0.5 0.8,-0.5 0.3,0 0.5,-0.1 0.5,-0.3 0,-0.1 0.4,-0.4 0.8,-0.6 0.5,-0.2 1.3,-0.8 1.8,-1.3 0.5,-0.5 1.2,-1 1.4,-1.1 0.3,-0.1 0.8,-0.4 1.1,-0.7 0.6,-0.6 3,-1.8 3.5,-1.8 0.2,0 0.5,-0.3 0.8,-0.7 0.3,-0.4 0.7,-0.7 0.9,-0.7 0.2,0 0.5,-0.2 0.6,-0.5 0.1,-0.3 0.5,-0.6 0.9,-0.8 4.4,-2.3 5.5,-2.9 5.6,-3.2 0.1,-0.2 0.5,-0.4 0.9,-0.5 0.4,-0.1 0.7,-0.3 0.7,-0.4 0,-0.1 0.6,-0.5 1.3,-0.8 0.7,-0.3 1.3,-0.7 1.3,-0.8 0,-0.1 0.2,-0.2 0.5,-0.2 0.5,0 3.8,-1.6 4.2,-2.1 0.5,-0.6 2.7,-1.8 3.3,-1.8 0.4,0 0.7,-0.2 0.8,-0.4 0.1,-0.2 0.4,-0.4 0.6,-0.4 0.7,0 1.7,-0.5 2.3,-1.1 0.3,-0.3 0.8,-0.5 1,-0.5 0.3,0 0.6,-0.1 0.8,-0.3 0.7,-0.7 1.5,-1.1 2.1,-1.1 0.4,0 0.7,-0.2 0.8,-0.4 0.1,-0.2 0.5,-0.4 1.1,-0.4 0.5,0 1,-0.1 1,-0.2 0,-0.1 0.4,-0.4 0.8,-0.6 0.4,-0.2 1.2,-0.6 1.8,-0.9 0.5,-0.3 1.4,-0.7 1.9,-0.8 0.5,-0.1 1,-0.3 1.1,-0.4 0.1,-0.1 0.5,-0.2 0.9,-0.3 0.4,0 1.1,-0.3 1.4,-0.6 0.3,-0.3 1,-0.7 1.6,-0.8 0.5,-0.1 1.3,-0.4 1.7,-0.6 0.4,-0.2 0.8,-0.3 0.9,-0.3 0.1,0 0.8,-0.3 1.7,-0.7 0.9,-0.4 1.8,-0.7 2.1,-0.7 0.3,0 1.1,-0.3 1.7,-0.6 1.2,-0.6 2.4,-0.9 5.8,-1.4 1,-0.1 2.1,-0.4 2.5,-0.6 1,-0.5 2.6,0 2.6,0.8 0,0.4 -0.2,0.6 -0.5,0.7 -0.3,0.1 -1.1,0.4 -1.8,0.8 -0.7,0.4 -1.4,0.7 -1.6,0.7 -0.2,0 -0.5,0.1 -0.8,0.2 -1.7,0.9 -5.2,2.4 -5.7,2.4 -0.3,0 -0.8,0.2 -1,0.5 -0.2,0.3 -0.6,0.5 -0.7,0.5 -0.2,0 -0.4,0.2 -0.5,0.4 -0.1,0.2 -0.5,0.4 -1,0.4 -0.6,0 -1,0.2 -1.4,0.6 -0.3,0.3 -1.1,0.8 -1.8,1.1 -1.6,0.6 -2.7,1.2 -2.9,1.6 -0.1,0.2 -0.4,0.3 -0.6,0.3 -0.2,0 -0.5,0.2 -0.7,0.4 -0.2,0.2 -0.6,0.5 -0.9,0.6 -0.4,0.1 -0.8,0.4 -1,0.6 -0.2,0.3 -1,0.7 -1.7,0.9 -0.8,0.3 -1.7,0.9 -2.4,1.6 -0.6,0.6 -1.7,1.4 -2.5,1.8 -0.7,0.4 -1.6,0.9 -1.9,1.3 -0.3,0.3 -0.6,0.6 -0.7,0.6 -0.1,0 -0.5,0.2 -0.8,0.5 -0.3,0.3 -1,0.8 -1.5,1 -0.5,0.3 -1.2,0.7 -1.5,1.1 -1.3,1.2 -1.9,1.7 -2.1,1.7 -0.2,0 -0.7,0.4 -1.2,1 -0.5,0.5 -1,1 -1.2,1 -0.2,0 -0.4,0.3 -0.7,0.6 -0.2,0.3 -0.5,0.6 -0.7,0.6 -0.2,0 -0.4,0.2 -0.6,0.5 -0.2,0.3 -0.4,0.5 -0.5,0.5 -0.3,0 -1.2,0.8 -2.3,1.9 -0.4,0.4 -0.8,0.8 -0.9,0.8 -0.1,0 -0.5,0.4 -1,0.8 -0.5,0.5 -1.1,0.8 -1.2,0.8 -0.1,0 -0.3,0.1 -0.3,0.2 0,0.3 -1.7,2 -2.1,2.2 -0.5,0.2 -5.6,5 -6.2,5.8 -0.3,0.5 -0.9,1.1 -1.2,1.3 -0.3,0.2 -0.6,0.5 -0.6,0.7 0,0.2 -0.2,0.5 -0.5,0.6 -0.3,0.2 -0.5,0.4 -0.5,0.6 0,0.2 -0.6,0.8 -1.3,1.4 -0.7,0.6 -1.3,1.3 -1.3,1.5 0,0.2 -0.5,0.8 -1,1.3 -0.5,0.5 -1.2,1.3 -1.4,1.7 -0.2,0.4 -0.8,1 -1.3,1.4 -0.5,0.4 -0.9,0.9 -0.9,1 0,0.1 -0.3,0.5 -0.6,0.8 -0.3,0.3 -0.6,0.6 -0.6,0.9 0,0.2 -0.2,0.5 -0.3,0.5 -0.2,0.1 -0.5,0.5 -0.6,0.9 -0.1,0.4 -0.7,1.2 -1.2,1.8 -0.5,0.6 -1,1.1 -1,1.3 0,0.1 -0.2,0.2 -0.4,0.2 -0.2,0 -0.5,0.3 -0.6,0.7 -0.1,0.4 -0.4,0.8 -0.5,0.9 -0.1,0.1 -0.5,0.7 -0.8,1.2 -0.9,1.7 -3.4,5.7 -4.1,6.4 -0.3,0.3 -0.6,0.7 -0.6,0.8 0,0.3 -2,4.1 -4.2,8 -0.9,1.6 -3.5,6.8 -3.9,7.9 -0.2,0.6 -0.8,1.9 -1.3,3 -0.5,1.1 -1.1,2.5 -1.4,3.1 -0.3,0.7 -0.6,1.4 -0.7,1.7 -0.1,0.3 -0.4,1.1 -0.7,1.8 -0.3,0.7 -0.7,1.6 -0.8,2 -0.2,0.4 -0.4,1 -0.4,1.3 -0.1,0.6 -0.5,1.8 -1,3 -0.2,0.4 -0.5,1.4 -0.7,2.2 -0.2,0.8 -0.6,1.6 -0.7,1.9 -0.2,0.3 -0.3,0.8 -0.3,1.1 0,0.3 -0.2,0.8 -0.4,0.9 -0.2,0.2 -0.4,0.6 -0.4,0.9 0,0.3 -0.1,0.8 -0.3,1.1 -0.2,0.3 -0.4,0.8 -0.5,1.2 -0.3,1.4 -0.9,2.6 -1.2,2.7 -0.1,0 -0.3,0.6 -0.3,1.3 0,0.7 -0.1,1.4 -0.3,1.5 -0.1,0.1 -0.3,0.9 -0.4,1.8 -0.1,0.8 -0.3,1.7 -0.5,2 -0.2,0.3 -0.3,0.7 -0.3,1.1 0,0.3 -0.2,0.9 -0.4,1.2 -0.2,0.3 -0.3,0.8 -0.4,1.1 0,0.3 -0.2,0.8 -0.4,1.2 -0.2,0.4 -0.4,0.9 -0.4,1.2 0,0.6 -0.7,3.5 -1,4.5 -0.1,0.4 -0.3,1.4 -0.4,2.3 -0.1,0.9 -0.6,3.7 -1.1,6.2 -0.5,2.6 -1,6.3 -1.2,8.4 -0.2,2 -0.5,4.8 -0.6,6.1 -0.2,1.3 -0.3,3.5 -0.4,4.8 -0.3,9.5 -0.6,16.1 -0.8,17.9 -0.1,1.2 -0.2,2.3 0,2.5 0.3,0.5 0.8,7.2 0.9,11 0,1.8 0.2,3.5 0.3,3.9 0.2,0.4 0.3,1 0.3,1.4 0,0.4 0.1,1.9 0.3,3.4 0.8,5.6 0.9,7 1,9.6 0.1,1.8 0.2,2.8 0.5,3.2 0.2,0.3 0.3,1 0.3,1.7 0,0.8 0.1,1.4 0.3,1.8 0.2,0.3 0.4,1.1 0.4,1.8 0,0.7 0.2,1.5 0.4,1.8 0.2,0.3 0.3,1.1 0.4,1.7 0,0.6 0.2,1.5 0.4,1.8 0.2,0.4 0.3,1.2 0.3,1.9 0,0.7 0.1,1.3 0.1,1.5 0.3,0.5 0.9,3.2 0.7,3.6 -0.1,0.3 0,0.6 0.1,0.7 0.4,0.5 0.8,2.5 0.7,3.1 -0.1,0.3 -0.1,0.6 0,0.7 0.3,0.3 1,2.7 1,3.5 0,0.5 0.2,1 0.4,1.3 0.2,0.2 0.4,0.9 0.5,1.4 0.1,0.5 0.3,1 0.4,1.1 0.1,0.1 0.2,0.5 0.2,0.9 0,0.4 0.2,1 0.4,1.2 0.2,0.3 0.4,0.7 0.4,1.1 0,0.3 0.2,0.9 0.4,1.2 0.2,0.3 0.4,0.9 0.4,1.2 0,0.3 0.2,1 0.5,1.6 0.3,0.5 0.5,1.1 0.5,1.3 0,0.2 0.1,0.5 0.2,0.7 0.2,0.5 0.6,1.5 1.3,3.6 0.3,0.9 0.6,1.9 0.8,2.2 0.2,0.4 0.3,0.9 0.3,1.1 0,0.2 0.2,0.6 0.4,0.9 0.2,0.3 0.4,0.6 0.4,0.8 0,0.3 2,5.6 2.6,6.9 0.1,0.3 0.5,1.2 0.7,2 0.3,0.9 0.8,2.1 1.1,2.9 0.3,0.7 0.8,2 1.2,2.8 0.3,0.8 1.3,3.1 2.3,5 1,2 2.2,4.7 2.8,6 0.6,1.3 1.3,2.8 1.6,3.4 0.5,0.8 3.1,6 5.5,10.5 0.4,0.8 1,1.7 1.3,2 0.3,0.3 0.5,0.6 0.5,0.8 0,0.1 0.4,0.6 0.8,1.1 0.4,0.5 1,1.4 1.4,2 0.3,0.6 1,1.8 1.5,2.5 0.5,0.8 0.9,1.5 0.9,1.6 0,0.1 0.1,0.3 0.3,0.3 0.2,0.1 0.6,0.6 0.9,1.2 0.3,0.6 0.8,1.5 1.2,2.1 0.4,0.6 0.8,1.2 0.9,1.4 0.1,0.2 0.4,0.5 0.6,0.7 0.5,0.4 1.9,2.8 1.9,3.1 0,0.1 0.1,0.2 0.2,0.2 0.2,0 2.2,3 2.2,3.3 0,0.1 0.4,0.5 0.8,0.9 0.4,0.4 1,1.1 1.3,1.6 0.3,0.5 0.8,1.1 1.1,1.4 0.5,0.4 2.6,3.1 2.6,3.4 0,0.1 0.4,0.5 0.8,0.9 0.5,0.4 0.8,0.9 0.8,1 0,0.1 0.5,0.6 1.1,1.1 0.6,0.5 1.1,1 1.1,1.2 0,0.2 0.2,0.4 0.4,0.5 0.2,0.1 0.4,0.3 0.4,0.5 0,0.2 0.2,0.4 0.4,0.5 0.2,0.1 0.4,0.3 0.4,0.5 0,0.2 0.3,0.5 0.6,0.7 0.3,0.2 0.7,0.7 0.8,1 0.1,0.3 0.4,0.6 0.6,0.6 0.2,0 0.6,0.4 0.8,0.8 0.3,0.4 1.2,1.5 2.2,2.4 0.9,0.9 1.7,1.8 1.8,2.1 0.1,0.2 0.5,0.6 0.9,0.9 0.4,0.3 1,0.8 1.2,1.2 0.5,0.7 2.4,2.7 2.6,2.7 0.2,0 4.4,4.3 4.4,4.5 0,0.1 0.6,0.6 1.3,1.2 0.7,0.6 1.3,1.1 1.3,1.3 0,0.3 2.4,2.6 2.8,2.6 0.2,0 0.8,0.5 1.3,1.2 0.5,0.7 1.2,1.2 1.3,1.2 0.2,0 0.5,0.3 0.7,0.6 0.2,0.3 0.6,0.6 0.8,0.6 0.2,0 0.7,0.4 1.1,1 0.4,0.5 0.8,1 0.9,1 0.1,0 0.5,0.3 0.9,0.7 0.3,0.4 1.1,1.1 1.7,1.6 0.6,0.5 1.4,1.3 1.8,1.6 0.4,0.4 0.9,0.7 1.1,0.7 0.2,0 0.6,0.2 0.9,0.5 0.3,0.3 0.6,0.5 0.7,0.5 0.1,0 0.6,0.4 1,1 0.4,0.6 0.9,1 1.1,1 0.2,0 0.9,0.5 1.5,1.2 0.6,0.7 1.3,1.2 1.6,1.2 0.2,0 0.7,0.4 1.1,0.8 0.4,0.4 1.3,1 1.9,1.3 0.6,0.3 1.5,0.9 2,1.4 0.5,0.5 1.2,1 1.6,1.2 0.4,0.2 0.7,0.4 0.7,0.5 0,0.1 0.2,0.2 0.3,0.2 0.2,0 0.6,0.4 1,0.8 0.4,0.4 1.1,1 1.6,1.1 1.2,0.4 3.7,1.8 3.7,2.1 0,0.1 0.2,0.3 0.4,0.3 0.9,0.3 2.6,1.4 3.1,1.9 0.3,0.3 0.9,0.7 1.4,1 0.5,0.2 1.4,0.6 1.9,0.9 0.5,0.3 1,0.5 1.1,0.5 0.1,0 0.9,0.4 1.7,0.9 0.8,0.5 1.7,1 1.9,1.1 0.2,0.1 0.4,0.3 0.4,0.4 0,0.1 0.3,0.3 0.7,0.4 1,0.2 5.3,2.3 5.5,2.7 0.1,0.2 0.3,0.3 0.5,0.3 0.5,0 1.9,0.7 1.9,1 0,0.1 0.3,0.3 0.7,0.4 0.4,0.1 1,0.3 1.4,0.5 0.4,0.2 0.8,0.3 1,0.3 0.2,0 1.1,0.3 1.9,0.7 2.3,1.1 3.3,1.5 4.9,2.1 0.8,0.3 2,0.8 2.8,1.1 3.5,1.5 5.5,2.2 6.3,2.4 0.5,0.1 0.9,0.3 1,0.5 0.1,0.2 0.4,0.3 0.8,0.3 0.4,0 0.9,0.1 1.1,0.3 0.3,0.2 1.1,0.5 1.9,0.6 0.8,0.2 1.8,0.4 2.3,0.6 1.9,0.7 4,1.3 5.2,1.5 0.7,0.1 1.7,0.4 2.3,0.6 0.6,0.2 1.3,0.5 1.6,0.5 0.3,0 0.6,0.1 0.8,0.2 0.3,0.3 1.8,0.6 4.5,1.1 1.1,0.2 2.2,0.4 2.4,0.6 0.3,0.2 1.4,0.3 2.4,0.3 1,0 2.3,0.2 2.8,0.3 0.5,0.1 1,0.3 1.1,0.2 0.1,-0.1 1.2,0 2.5,0.1 3.2,0.3 5,0.5 5.3,0.4 1,0 1.7,0 5,0.2 5,0.3 21.2,0.1 22,-0.2 0.4,-0.2 1.1,-0.2 2.2,0 1.1,0.2 1.7,0.1 2.3,-0.1 1.3,-0.6 3.1,-1 4.7,-1.2 0.9,-0.1 1.7,-0.3 1.8,-0.5 0.2,-0.3 1.8,-0.6 4.9,-1.1 0.7,-0.1 1.6,-0.3 2,-0.4 1.8,-0.6 3.2,-1 3.6,-1 0.3,0 0.6,-0.1 0.8,-0.3 0.2,-0.2 0.9,-0.4 1.5,-0.5 0.7,-0.1 1.9,-0.4 2.6,-0.7 0.7,-0.3 2.3,-0.8 3.5,-1.2 1.2,-0.4 3.4,-1.1 4.9,-1.6 1.5,-0.5 3.2,-1.1 3.7,-1.3 1.1,-0.5 2.5,-1 4.4,-1.7 0.7,-0.2 1.5,-0.6 1.8,-0.8 0.3,-0.2 0.8,-0.4 1.1,-0.5 0.3,-0.1 1.3,-0.6 2.1,-1.2 0.9,-0.6 1.7,-1.1 1.8,-1.1 0.1,0 0.5,-0.2 0.9,-0.4 1.1,-0.8 3.8,-2.2 4.2,-2.2 0.2,0 0.4,-0.1 0.4,-0.2 0,-0.1 0.3,-0.4 0.7,-0.5 0.4,-0.2 0.7,-0.4 0.9,-0.6 0.1,-0.2 0.3,-0.3 0.5,-0.3 0.2,0 0.3,-0.1 0.3,-0.2 0,-0.3 2.5,-1.9 3.4,-2.2 0.4,-0.1 0.7,-0.4 0.8,-0.5 0.1,-0.2 0.5,-0.4 0.9,-0.5 0.4,-0.1 1,-0.4 1.2,-0.7 0.2,-0.3 0.6,-0.6 0.8,-0.6 0.2,0 0.5,-0.3 0.7,-0.6 0.2,-0.3 0.7,-0.7 1,-0.9 0.4,-0.2 1,-0.6 1.4,-0.9 0.4,-0.4 0.9,-0.7 1.2,-0.8 0.3,-0.1 0.8,-0.4 1.2,-0.7 0.4,-0.3 1,-0.6 1.4,-0.6 0.7,0 0.7,0 0.6,0.9 -0.1,0.5 -0.4,1 -0.8,1.4 -0.4,0.3 -0.9,0.8 -1.2,1.1 -0.3,0.3 -0.6,0.5 -0.8,0.5 -0.1,0 -0.4,0.2 -0.5,0.5 -0.1,0.3 -0.8,0.9 -1.5,1.4 -0.7,0.5 -1.6,1.2 -1.9,1.6 -0.4,0.3 -0.7,0.6 -0.8,0.6 -0.1,0 -0.4,0.3 -0.7,0.7 -0.3,0.4 -0.9,0.8 -1.3,1 -0.4,0.2 -0.9,0.6 -1.1,0.9 -0.2,0.3 -0.7,0.8 -1.2,1.1 -0.5,0.3 -1.2,0.8 -1.6,1.2 -0.4,0.4 -1.2,1 -1.7,1.4 -0.5,0.4 -1.1,0.9 -1.4,1.1 -0.8,0.7 -1.1,1 -1.4,1 -0.3,0 -0.5,0.2 -1.9,1.4 -0.4,0.4 -0.9,0.7 -1,0.7 -0.2,0 -0.5,0.2 -1.9,1.5 -0.2,0.2 -0.7,0.5 -1,0.6 -0.3,0.1 -0.8,0.5 -1.2,0.9 -0.4,0.4 -0.9,0.7 -1.1,0.7 -0.3,0 -0.9,0.4 -1.5,1 -0.5,0.5 -1.2,1 -1.4,1 -0.2,0 -0.5,0.2 -0.6,0.4 -0.1,0.2 -0.4,0.4 -0.6,0.4 -0.3,0 -0.5,0.1 -0.5,0.2 0,0.1 -0.3,0.4 -0.7,0.5 -0.4,0.2 -0.7,0.4 -0.9,0.6 -0.1,0.2 -0.4,0.3 -0.8,0.3 -0.3,0 -0.6,0.2 -0.7,0.4 -0.1,0.2 -0.3,0.4 -0.6,0.4 -0.3,0 -0.6,0.3 -0.9,0.6 -0.4,0.5 -1.1,1 -3.9,2.2 -0.4,0.2 -0.8,0.5 -0.9,0.7 -0.2,0.6 -1.6,1.3 -2.4,1.3 -0.5,0 -0.9,0.2 -1.3,0.7 -0.3,0.4 -0.9,0.8 -1.4,1 -0.5,0.2 -1.4,0.7 -2,1.1 -0.6,0.4 -1.3,0.8 -1.5,0.8 -0.4,0 -2,0.9 -2.3,1.2 -0.1,0.1 -0.6,0.4 -1.2,0.6 -0.6,0.2 -1.6,0.8 -2.3,1.2 -0.7,0.4 -1.5,0.8 -1.9,0.8 -0.4,0 -0.7,0.1 -0.7,0.2 0,0.1 -0.5,0.5 -1,0.8 -0.6,0.3 -1.3,0.7 -1.6,0.9 -0.3,0.2 -0.7,0.3 -0.9,0.3 -0.2,0 -0.3,0.1 -0.4,0.3 -0.1,0.2 -0.6,0.4 -1.5,0.4 -0.7,0.1 -1.4,0.3 -1.6,0.4 -0.2,0.3 -1.4,0.8 -2.8,1.2 -0.4,0.1 -1,0.3 -1.4,0.5 -0.4,0.2 -0.9,0.4 -1.2,0.5 -0.3,0.1 -1,0.4 -1.6,0.7 -0.6,0.3 -1.3,0.5 -1.5,0.5 -0.2,0 -0.8,0.2 -1.3,0.5 -0.5,0.3 -1.4,0.5 -1.9,0.6 -0.5,0 -1.4,0.3 -2,0.7 -1.2,0.7 -4.2,1.6 -5,1.6 -0.3,0 -0.6,0.1 -0.6,0.2 -0.1,0.1 -0.6,0.3 -1.2,0.5 -0.6,0.1 -1.4,0.4 -1.8,0.6 -0.5,0.2 -1.2,0.4 -1.6,0.4 -0.4,0 -1.1,0.2 -1.6,0.4 -1.1,0.5 -3,1 -4.2,1.2 -0.5,0.1 -1.3,0.3 -1.7,0.5 -1.5,0.7 -3.3,1.1 -5.7,1.3 -1.4,0.1 -2.6,0.4 -2.7,0.5 -0.1,0.1 -0.9,0.3 -1.7,0.4 -0.8,0.1 -2.3,0.4 -3.5,0.6 -1.1,0.3 -3.3,0.6 -4.9,0.8 -1.6,0.2 -3.5,0.4 -4.2,0.6 -0.7,0.1 -2.7,0.4 -4.4,0.6 -1.7,0.2 -3.1,0.4 -3.3,0.5 -0.5,0.3 -3.9,0.6 -4.3,0.4 -0.3,-0.2 -0.5,-0.2 -0.6,0 -0.1,0.1 -0.4,0.2 -0.8,0.2 -0.4,0 -1.1,0.1 -1.6,0.4 -0.6,0.2 -2.2,0.4 -3.7,0.5 -1.5,0.1 -3.4,0.2 -4.2,0.3 0.3,-0.1 -0.5,-0.1 -0.6,-0.2 z m 4.4,-0.7 c 3.6,-0.1 4.7,-0.3 5.4,-0.8 0.3,-0.2 1.4,-0.4 3.2,-0.4 1.5,0 3.2,-0.2 3.8,-0.4 0.6,-0.2 2.1,-0.4 3.4,-0.5 1.3,-0.1 3.5,-0.4 4.9,-0.7 1.4,-0.3 3.2,-0.5 3.8,-0.5 0.7,0 1.7,-0.1 2.2,-0.3 1.7,-0.4 3.1,-0.7 4.9,-1 1,-0.1 2.1,-0.4 2.5,-0.6 0.4,-0.2 1.7,-0.4 3,-0.5 1.2,-0.1 2.6,-0.3 2.9,-0.5 0.4,-0.2 0.9,-0.3 1.2,-0.3 0.3,0 0.8,-0.1 1,-0.3 0.3,-0.2 1,-0.4 1.5,-0.5 1.4,-0.2 3.2,-0.8 4.5,-1.3 0.5,-0.2 1.4,-0.5 2,-0.6 0.6,-0.1 1.3,-0.3 1.6,-0.5 0.3,-0.2 0.8,-0.4 1.1,-0.4 0.3,0 0.8,-0.2 1.1,-0.4 0.3,-0.2 0.7,-0.4 0.9,-0.4 0.8,0 3.8,-1 5.1,-1.7 0.7,-0.4 1.6,-0.7 2.1,-0.7 0.4,0 1.2,-0.2 1.7,-0.5 0.5,-0.3 1.1,-0.5 1.3,-0.5 0.2,0 0.9,-0.2 1.5,-0.5 0.6,-0.3 1.3,-0.6 1.6,-0.7 0.3,-0.1 0.9,-0.4 1.4,-0.6 0.5,-0.2 1.1,-0.4 1.4,-0.4 0.3,0 0.6,-0.1 0.6,-0.2 0.1,-0.1 0.5,-0.3 0.9,-0.4 0.4,-0.1 1,-0.4 1.3,-0.6 0.3,-0.3 1,-0.4 1.5,-0.4 0.5,0 1.2,-0.2 1.6,-0.4 1,-0.7 1.5,-1 2.6,-1.5 0.5,-0.3 1.1,-0.6 1.3,-0.8 0.2,-0.2 0.6,-0.4 1,-0.4 0.4,0 0.8,-0.2 1,-0.4 0.2,-0.2 0.4,-0.4 0.6,-0.4 0.1,0 0.4,-0.1 0.6,-0.3 0.2,-0.2 0.9,-0.5 1.5,-0.7 0.6,-0.2 1.1,-0.5 1.1,-0.6 0,-0.3 1.8,-1.2 2.3,-1.2 0.2,0 0.9,-0.4 1.5,-0.8 0.6,-0.4 1.5,-0.9 2,-1.1 0.5,-0.2 1.2,-0.6 1.5,-1 0.4,-0.4 0.9,-0.7 1.2,-0.7 0.7,0 1.3,-0.4 2.7,-1.5 0.6,-0.5 1.2,-0.9 1.3,-0.9 0.5,0 2.7,-1.2 3.2,-1.8 0.3,-0.3 0.7,-0.6 0.9,-0.6 0.2,0 0.4,-0.2 0.6,-0.4 0.2,-0.2 0.5,-0.4 0.7,-0.4 0.2,0 0.6,-0.2 0.7,-0.4 0.2,-0.2 0.5,-0.5 0.8,-0.6 0.3,-0.1 0.8,-0.4 1.2,-0.7 0.4,-0.3 0.9,-0.5 1.1,-0.6 0.2,-0.1 0.9,-0.6 1.5,-1.1 0.6,-0.5 1.3,-0.9 1.5,-0.9 0.2,0 0.8,-0.4 1.4,-0.8 0.6,-0.5 1.1,-0.8 1.3,-0.8 0.2,0 0.7,-0.4 1.2,-0.9 0.5,-0.5 1.2,-1 1.5,-1.1 0.3,-0.1 0.7,-0.4 0.8,-0.6 0.1,-0.3 0.5,-0.6 0.8,-0.7 1,-0.4 1.7,-0.9 2.3,-1.5 0.3,-0.3 1.2,-1 1.9,-1.6 3.1,-2.3 3.5,-2.7 4.5,-3.6 0.5,-0.5 1.1,-1 1.2,-1 0.1,0 0.9,-0.6 1.6,-1.4 0.8,-0.7 1.8,-1.6 2.3,-2 2.1,-1.5 4.9,-4 5.1,-4.6 0.2,-0.5 -0.6,-0.3 -1.2,0.3 -0.2,0.3 -0.5,0.5 -0.7,0.5 -0.2,0 -0.8,0.4 -1.5,1 -0.7,0.5 -1.3,1 -1.4,1 -0.1,0 -0.9,0.6 -1.8,1.4 -0.9,0.8 -1.9,1.4 -2.1,1.4 -0.2,0 -0.6,0.2 -0.9,0.5 -0.2,0.3 -0.6,0.5 -0.7,0.5 -0.2,0 -0.7,0.3 -1.3,0.7 -0.5,0.4 -1.1,0.7 -1.1,0.7 -0.1,0 -0.6,0.4 -1.3,0.9 -0.6,0.5 -1.3,1 -1.5,1.1 -0.2,0.1 -1.1,0.6 -2,1.1 -0.9,0.5 -2.1,1.2 -2.6,1.4 -0.5,0.3 -1.4,0.8 -1.9,1.1 -0.5,0.3 -1,0.6 -1,0.6 -0.1,0 -0.5,0.3 -0.9,0.6 -0.4,0.3 -1,0.7 -1.4,0.7 -0.3,0.1 -1,0.4 -1.6,0.7 -0.5,0.3 -1.1,0.6 -1.3,0.6 -0.2,0 -0.9,0.3 -1.6,0.6 -0.7,0.3 -1.4,0.6 -1.7,0.6 -0.2,0 -0.7,0.2 -1,0.4 -0.3,0.2 -1.2,0.6 -2,0.8 -1.6,0.4 -3.6,1.1 -4.3,1.4 -0.3,0.1 -1.4,0.5 -2.5,0.8 -1.1,0.3 -2.6,0.9 -3.4,1.1 -0.7,0.3 -1.9,0.6 -2.5,0.6 -0.7,0.1 -1.4,0.3 -1.7,0.4 -0.5,0.3 -2.1,0.7 -3.4,1 -0.4,0.1 -0.9,0.2 -1,0.4 -0.2,0.1 -1,0.3 -1.8,0.4 -3,0.4 -4.9,0.8 -5.3,1.1 -0.2,0.2 -1.1,0.4 -1.9,0.5 -0.8,0.1 -1.8,0.3 -2.2,0.5 -0.4,0.2 -0.9,0.3 -1.2,0.3 -0.3,0 -0.7,0.1 -0.8,0.3 -0.2,0.2 -1.9,0.3 -5.1,0.4 -2.7,0 -5.4,0.2 -6.1,0.3 -0.8,0.2 -1.4,0.2 -1.7,0 -0.2,-0.1 -1.6,-0.1 -3,-0.1 -1.4,0 -4.2,0.1 -6.4,0 -2.1,-0.1 -5.9,-0.2 -8.5,-0.3 -3.3,0 -4.7,-0.1 -4.9,-0.4 -0.2,-0.2 -1.1,-0.3 -2.6,-0.3 -1.4,0 -2.7,-0.1 -3.3,-0.3 -0.5,-0.2 -1.8,-0.3 -2.8,-0.4 -1,0 -2.1,-0.1 -2.5,-0.3 -0.4,-0.2 -1.5,-0.4 -2.5,-0.6 -2.7,-0.4 -4.2,-0.8 -4.4,-1.1 -0.1,-0.1 -0.5,-0.2 -0.8,-0.2 -0.3,0 -1,-0.2 -1.6,-0.5 -0.5,-0.3 -1.3,-0.5 -1.8,-0.5 -0.5,0 -1.5,-0.2 -2.3,-0.5 -0.8,-0.3 -1.8,-0.6 -2.4,-0.7 -0.5,-0.1 -1.1,-0.3 -1.2,-0.4 -0.1,-0.1 -0.8,-0.3 -1.6,-0.4 -0.7,-0.1 -1.7,-0.4 -2.1,-0.6 -0.4,-0.2 -1,-0.4 -1.2,-0.4 -0.3,0 -0.6,-0.2 -0.8,-0.4 -0.2,-0.2 -0.5,-0.4 -0.8,-0.4 -0.5,0 -2.6,-0.7 -2.9,-1 -0.1,-0.1 -0.3,-0.2 -0.5,-0.2 -0.2,0 -1.3,-0.4 -2.4,-1 -1.1,-0.5 -2.2,-1 -2.3,-1 -0.4,0 -2.6,-0.9 -6.2,-2.6 -0.9,-0.4 -1.7,-0.7 -1.9,-0.7 -0.5,0 -2.6,-0.9 -3.8,-1.7 -0.4,-0.3 -0.9,-0.5 -1.1,-0.5 -0.2,0 -0.5,-0.2 -0.7,-0.3 -0.3,-0.3 -2.3,-1.4 -4.1,-2.1 -1.5,-0.6 -2,-0.9 -3.2,-1.6 -0.7,-0.4 -1.4,-0.8 -1.7,-1 -0.3,-0.1 -0.6,-0.3 -0.8,-0.4 -0.2,-0.1 -1.2,-0.6 -2.3,-1.1 -1.1,-0.5 -2.3,-1.2 -2.7,-1.6 -0.4,-0.4 -1.1,-0.8 -1.4,-1 -0.3,-0.1 -1,-0.6 -1.5,-0.9 -0.5,-0.3 -1,-0.7 -1.2,-0.8 -0.5,-0.3 -1.3,-0.7 -1.7,-1 -0.2,-0.1 -0.6,-0.3 -1,-0.4 -0.4,-0.1 -1.3,-0.8 -2.1,-1.5 -0.8,-0.7 -1.5,-1.3 -1.7,-1.3 -0.1,0 -0.8,-0.5 -1.6,-1.2 -0.7,-0.6 -1.6,-1.3 -2,-1.4 -0.3,-0.1 -1.1,-0.7 -1.8,-1.2 -0.6,-0.5 -1.3,-1 -1.4,-1 -0.2,0 -0.8,-0.5 -1.4,-1.1 -0.6,-0.6 -1.2,-1.1 -1.3,-1.1 -0.1,0 -0.9,-0.6 -1.7,-1.3 -0.8,-0.7 -1.8,-1.5 -2.2,-1.7 -0.4,-0.2 -0.9,-0.5 -1.2,-0.8 -0.2,-0.3 -0.6,-0.5 -0.7,-0.5 -0.2,0 -2.7,-2.3 -4.6,-4.3 -0.5,-0.6 -1.1,-1 -1.2,-1 -0.1,0 -1.1,-0.8 -2.2,-1.8 -1.1,-1 -2.1,-1.8 -2.2,-1.8 -0.1,0 -2.2,-2 -4.5,-4.4 -2.4,-2.4 -4.8,-4.9 -5.5,-5.4 -0.7,-0.5 -1.6,-1.5 -2,-2.1 -0.4,-0.6 -1.1,-1.3 -1.5,-1.5 -0.4,-0.2 -1,-0.8 -1.2,-1.2 -0.3,-0.5 -1.8,-2.1 -3.3,-3.7 -1.5,-1.6 -3.2,-3.5 -3.8,-4.3 -0.6,-0.8 -2,-2.4 -3.1,-3.6 -1.1,-1.2 -2.3,-2.7 -2.6,-3.2 -0.4,-0.6 -1.1,-1.6 -1.7,-2.2 -0.6,-0.6 -1,-1.2 -1,-1.3 0,-0.1 -0.2,-0.5 -0.6,-0.8 -0.9,-0.9 -2.3,-2.8 -2.3,-3 0,-0.1 -0.5,-0.9 -1.1,-1.8 -0.6,-0.9 -1.3,-2 -1.6,-2.4 -0.2,-0.5 -0.8,-1.3 -1.2,-1.8 -0.8,-1 -1.6,-2.3 -2,-3.2 -0.1,-0.3 -0.7,-1.1 -1.2,-1.8 -0.5,-0.7 -1.3,-1.8 -1.7,-2.6 -1.1,-2 -2.3,-3.8 -2.9,-4.3 -0.3,-0.2 -0.5,-0.6 -0.5,-0.7 0,-0.2 -0.3,-0.5 -0.6,-0.8 -0.3,-0.3 -0.6,-0.7 -0.6,-0.8 0,-0.1 -0.1,-0.5 -0.3,-0.9 -0.2,-0.3 -0.8,-1.6 -1.5,-2.8 -0.6,-1.2 -1.3,-2.3 -1.5,-2.5 -0.2,-0.2 -0.3,-0.4 -0.3,-0.5 0,-0.1 -1.3,-2.7 -3.2,-6.4 -0.4,-0.9 -1,-2 -1.2,-2.5 -0.2,-0.5 -1.3,-2.8 -2.5,-5.2 -1.2,-2.3 -2.1,-4.4 -2.1,-4.5 0,-0.1 -0.3,-0.9 -0.6,-1.6 -1.1,-2.4 -1.2,-2.8 -1.8,-4.4 -0.3,-0.9 -0.7,-1.9 -0.8,-2.3 -0.8,-1.7 -2.5,-6.3 -2.5,-6.6 0,-0.2 -0.2,-0.6 -0.4,-0.8 -0.2,-0.3 -0.4,-0.7 -0.4,-0.9 0,-0.2 -0.2,-0.7 -0.3,-1.1 -0.2,-0.4 -0.5,-1.3 -0.8,-2.1 -0.2,-0.8 -0.6,-1.7 -0.7,-2 -0.2,-0.3 -0.3,-0.8 -0.3,-1.1 0,-0.3 -0.2,-0.6 -0.4,-0.8 -0.2,-0.2 -0.4,-0.5 -0.4,-0.8 0,-0.3 -0.2,-0.9 -0.4,-1.2 -0.2,-0.3 -0.4,-0.9 -0.4,-1.2 0,-0.3 -0.2,-0.8 -0.4,-1.2 -0.2,-0.4 -0.4,-1 -0.4,-1.3 0,-0.3 -0.2,-0.8 -0.4,-1.1 -0.2,-0.3 -0.4,-0.8 -0.4,-1.2 0,-0.4 -0.2,-0.9 -0.4,-1.2 -0.2,-0.3 -0.4,-0.7 -0.4,-1.1 0,-0.3 -0.2,-0.8 -0.4,-1.1 -0.2,-0.3 -0.4,-0.8 -0.4,-1.3 0,-0.7 -0.3,-1.9 -1,-3.5 -0.1,-0.3 -0.3,-1.2 -0.3,-2 -0.1,-0.8 -0.3,-1.7 -0.4,-1.9 -0.2,-0.2 -0.3,-1 -0.3,-1.8 0,-0.8 -0.2,-2 -0.5,-2.7 -0.2,-0.7 -0.4,-1.5 -0.3,-1.8 0.1,-0.3 0,-0.9 -0.2,-1.3 -0.2,-0.4 -0.4,-1.2 -0.4,-1.8 0,-0.6 -0.2,-1.4 -0.4,-1.8 -0.2,-0.4 -0.4,-1.2 -0.4,-1.9 0,-0.8 -0.2,-1.4 -0.5,-2 -0.4,-0.6 -0.5,-1 -0.4,-1.8 0.1,-0.7 0,-1.1 -0.2,-1.5 -0.2,-0.3 -0.4,-1.5 -0.5,-3.3 -0.1,-1.5 -0.2,-3.4 -0.4,-4.2 -0.2,-0.8 -0.3,-2.2 -0.4,-3.1 -0.1,-0.9 -0.3,-2.4 -0.4,-3.2 -0.1,-0.9 -0.3,-2.1 -0.3,-2.7 0,-0.6 -0.2,-1.3 -0.3,-1.6 -0.2,-0.3 -0.3,-2.3 -0.4,-4.9 -0.1,-5.5 -0.3,-8.5 -0.7,-9.6 -0.2,-0.6 -0.2,-1.6 0,-3.6 0.2,-1.5 0.4,-5.6 0.5,-9.2 0.3,-9.7 0.4,-11 0.7,-13.6 0.1,-1.3 0.4,-3.7 0.5,-5.4 0.2,-2.8 0.9,-7.1 1.9,-12.2 0.3,-1.3 0.5,-2.7 0.5,-3.2 0,-0.5 0.1,-1.3 0.3,-1.7 0.3,-0.7 0.7,-2.3 1.1,-4.8 0.1,-0.6 0.3,-1.3 0.5,-1.4 0.1,-0.1 0.2,-0.5 0.2,-0.9 0,-0.3 0.2,-0.9 0.4,-1.3 0.2,-0.4 0.4,-0.9 0.4,-1.2 0,-0.3 0.1,-0.7 0.3,-1 0.2,-0.3 0.4,-1.2 0.5,-2 0.1,-0.8 0.3,-1.6 0.4,-1.8 0.1,-0.1 0.3,-0.8 0.3,-1.4 0,-0.7 0.1,-1.2 0.4,-1.4 0.2,-0.2 0.4,-0.5 0.4,-0.7 0,-0.2 0.2,-0.7 0.4,-1.1 0.2,-0.4 0.4,-0.9 0.4,-1.1 0,-0.2 0.2,-0.7 0.4,-1.1 0.2,-0.4 0.4,-0.9 0.4,-1.2 0,-0.3 0.2,-0.7 0.4,-0.8 0.2,-0.2 0.4,-0.6 0.4,-0.9 0,-0.3 0.1,-0.8 0.3,-1.1 0.2,-0.3 0.5,-1.1 0.7,-1.9 0.2,-0.8 0.6,-1.7 0.8,-2.1 0.2,-0.4 0.3,-0.9 0.3,-1.1 0,-0.2 0.2,-0.7 0.4,-1.1 0.2,-0.4 0.4,-0.9 0.4,-1.2 0,-0.3 0.2,-0.7 0.4,-1 0.2,-0.3 0.4,-0.6 0.4,-0.8 0,-0.2 0.2,-0.7 0.4,-1.2 0.2,-0.5 0.5,-1.2 0.7,-1.7 0.2,-0.4 0.5,-1.1 0.7,-1.6 0.2,-0.4 0.8,-1.8 1.4,-3 0.6,-1.2 1.1,-2.4 1.1,-2.5 0,-0.2 0.2,-0.6 0.3,-0.9 0.1,-0.3 0.4,-1 0.5,-1.4 0.1,-0.4 0.3,-0.8 0.4,-0.9 0.1,-0.1 0.4,-0.6 0.7,-1.1 0.4,-0.9 1,-2 3.1,-5.7 0.3,-0.6 1.3,-2.4 2.1,-4.1 0.8,-1.7 1.7,-3.2 2,-3.4 0.3,-0.2 0.5,-0.5 0.5,-0.7 0,-0.2 0.3,-0.7 0.7,-1.3 0.4,-0.6 0.7,-1.1 0.7,-1.2 0,-0.1 0.5,-0.8 1.1,-1.7 0.6,-0.9 1.1,-1.7 1.1,-1.8 0,-0.3 0.7,-1.3 1.6,-2.3 1.3,-1.4 2.7,-3.3 2.7,-3.6 0,-0.2 0.2,-0.5 0.4,-0.6 0.2,-0.2 0.5,-0.5 0.5,-0.7 0.1,-0.4 2.3,-3 4.5,-5.5 0.6,-0.6 1,-1.2 1,-1.3 0,-0.1 0.7,-0.9 1.5,-1.8 0.8,-0.9 2.3,-2.5 3.2,-3.6 1.6,-1.9 6.8,-6.9 7.1,-6.9 0.1,0 0.7,-0.5 1.3,-1.1 0.6,-0.6 1.9,-1.7 2.7,-2.4 0.9,-0.7 1.6,-1.3 1.7,-1.5 0,-0.1 0.9,-0.9 2,-1.6 1.1,-0.8 2.6,-2 3.4,-2.8 0.8,-0.7 1.5,-1.3 1.6,-1.3 0.1,0 0.9,-0.7 1.9,-1.5 0.9,-0.8 1.9,-1.5 2.2,-1.6 0.3,-0.1 1.1,-0.7 1.8,-1.2 1.3,-1.1 2.6,-1.9 3.6,-2.3 0.3,-0.1 1.1,-0.8 1.8,-1.4 0.7,-0.6 1.6,-1.3 2.1,-1.5 0.5,-0.2 1.3,-0.6 1.8,-1 0.5,-0.4 1,-0.7 1.2,-0.7 0.2,0 0.5,-0.2 0.7,-0.5 0.2,-0.3 0.5,-0.5 0.7,-0.5 0.1,0 0.6,-0.3 1.1,-0.7 0.5,-0.4 1.5,-0.9 2.2,-1.1 0.7,-0.2 1.6,-0.7 2,-1.1 0.5,-0.5 1,-0.7 1.5,-0.7 0.5,0 1.1,-0.3 1.8,-0.8 0.6,-0.5 1.3,-0.8 1.5,-0.8 0.3,0 0.7,-0.1 0.9,-0.2 0.2,-0.1 1.3,-0.6 2.3,-1.1 1.1,-0.5 2.1,-1 2.3,-1.1 0.2,-0.1 0.6,-0.2 0.7,-0.2 0.2,0 1,-0.3 1.7,-0.7 0.8,-0.4 1.7,-0.8 1.9,-0.9 0.4,-0.1 0.4,-0.2 -0.3,-0.4 -0.5,-0.1 -0.9,-0.1 -1.1,0 -0.2,0.1 -1,0.3 -1.9,0.4 -0.9,0.1 -2.1,0.3 -2.6,0.5 -0.6,0.2 -1.4,0.4 -1.8,0.4 -0.4,0 -1.3,0.3 -1.9,0.6 -0.6,0.3 -1.4,0.6 -1.7,0.6 -0.3,0 -1.4,0.4 -2.4,0.8 -1,0.4 -1.9,0.8 -2.1,0.8 -0.2,0 -0.5,0.2 -0.7,0.4 -0.3,0.2 -0.8,0.4 -1.1,0.4 -0.4,0 -1.1,0.3 -1.6,0.7 -0.6,0.4 -1.3,0.7 -1.7,0.7 -0.4,0 -0.7,0.1 -0.7,0.2 0,0.1 -0.4,0.3 -0.9,0.4 -0.5,0.1 -1.1,0.2 -1.3,0.4 -0.2,0.1 -1,0.6 -1.9,1 -0.8,0.4 -1.6,0.8 -1.6,1 -0.1,0.1 -0.5,0.2 -0.9,0.2 -0.4,0 -0.9,0.2 -1.1,0.4 -0.2,0.2 -0.5,0.4 -0.8,0.4 -0.5,0 -1.6,0.6 -1.9,1.1 -0.1,0.2 -0.5,0.4 -1,0.4 -0.4,0.1 -1.1,0.4 -1.4,0.8 -0.3,0.3 -1,0.7 -1.5,0.7 -0.5,0.1 -1,0.3 -1.2,0.5 -0.2,0.2 -0.5,0.3 -0.7,0.3 -0.5,0 -1.9,0.7 -3.1,1.6 -1.1,0.8 -3.8,2.2 -4.3,2.2 -0.2,0 -0.5,0.1 -0.6,0.3 -0.1,0.2 -0.4,0.4 -0.8,0.5 -0.4,0.1 -1.1,0.5 -1.6,0.9 -0.5,0.4 -1.1,0.7 -1.2,0.7 -0.2,0 -0.4,0.2 -0.6,0.4 -0.2,0.2 -0.9,0.7 -1.6,1 -3.2,1.6 -4.3,2.3 -5.6,3.5 -1.3,1.1 -3.3,2.3 -3.8,2.3 -0.1,0 -0.7,0.4 -1.2,0.8 -0.6,0.5 -1.1,0.8 -1.3,0.8 -0.1,0 -0.8,0.5 -1.4,1 -0.6,0.6 -1.4,1.2 -1.8,1.3 -1.2,0.6 -1.7,0.9 -2.4,1.6 -0.4,0.3 -0.7,0.6 -0.9,0.6 -0.2,0 -2.2,1.5 -2.7,2.1 -0.4,0.5 -3.2,2.5 -3.5,2.5 -0.1,0 -0.4,0.3 -0.5,0.7 -0.2,0.4 -0.5,0.7 -0.8,0.7 -0.5,0.1 -2.7,1.6 -3.3,2.4 -0.3,0.3 -0.6,0.5 -0.8,0.5 -0.2,0 -1.1,0.8 -2,1.7 -0.9,0.9 -1.8,1.7 -1.9,1.7 -0.1,0 -0.7,0.5 -1.3,1.2 -0.6,0.7 -1.1,1.2 -1.2,1.2 -0.3,0 -2.3,1.4 -3.4,2.5 -0.7,0.6 -1.9,1.8 -2.7,2.6 -0.8,0.8 -1.5,1.5 -1.5,1.6 0,0.1 -0.4,0.5 -0.9,0.8 -0.5,0.3 -1.4,1.2 -2.1,2 -0.7,0.8 -1.3,1.4 -1.4,1.4 -0.4,0 -3.2,2.9 -3.2,3.2 0,0.2 -0.2,0.4 -0.4,0.6 -0.7,0.4 -4,3.7 -4,4.1 0,0.2 -0.3,0.4 -0.6,0.6 -0.3,0.2 -0.6,0.4 -0.6,0.5 0,0.4 -1,1.4 -1.4,1.4 -0.2,0 -0.4,0.2 -0.6,0.5 -0.7,1.5 -3.4,5 -3.9,5 -0.2,0 -0.6,0.5 -0.9,1.1 -0.3,0.6 -0.8,1.4 -1.2,1.9 -0.4,0.5 -0.9,1.1 -1.2,1.5 -0.3,0.4 -0.7,0.8 -0.8,0.8 -0.4,0 -1.4,1.1 -2.1,2.3 -0.3,0.5 -1.1,1.6 -1.7,2.3 -1.9,2.1 -2.6,3 -2.6,3.2 0,0.2 -0.9,1.5 -2.1,2.9 -0.6,0.7 -1,1.3 -1,1.5 0,0.2 -0.5,0.8 -1.1,1.5 -0.6,0.6 -1.1,1.3 -1.1,1.4 0,0.1 -0.4,0.8 -0.9,1.4 -1,1.3 -1.6,2.3 -2.1,3.4 -0.2,0.4 -0.9,1.4 -1.5,2.1 -0.6,0.7 -1.4,1.7 -1.6,2.2 -0.5,1.2 -1.2,2.2 -2.1,3.1 -0.4,0.4 -0.8,1.1 -0.9,1.5 -0.2,0.5 -0.5,1.1 -0.7,1.4 -0.2,0.3 -0.4,0.7 -0.4,1 0,0.3 -0.6,1.3 -1.4,2.5 -0.8,1.2 -1.4,2.3 -1.4,2.4 0,0.1 -0.1,0.5 -0.3,0.6 -0.2,0.2 -0.5,0.7 -0.7,1.2 -0.2,0.5 -0.7,1.3 -1,1.8 -0.8,1.3 -1.4,2.5 -2,3.7 -0.3,0.6 -0.7,1.5 -1,1.9 -0.2,0.5 -0.7,1.4 -1.1,2.2 -0.4,0.7 -0.8,1.6 -1,2 -0.2,0.3 -0.3,0.8 -0.3,0.9 0,0.4 -2.1,5.1 -3.3,7.2 -0.2,0.3 -0.3,0.8 -0.4,1.1 0,0.2 -0.2,0.8 -0.5,1.2 -0.3,0.4 -0.5,0.9 -0.6,1.1 -0.1,0.2 -0.3,0.8 -0.6,1.3 -0.3,0.5 -0.5,1.2 -0.5,1.5 0,0.3 -0.2,0.6 -0.4,0.8 -0.2,0.2 -0.4,0.5 -0.4,0.8 0,0.3 -0.2,0.9 -0.5,1.3 -0.3,0.4 -0.8,1.5 -1.1,2.2 -0.3,0.8 -0.7,1.7 -0.9,2.1 -0.2,0.4 -0.3,0.9 -0.3,1.1 0,0.5 -0.1,0.7 -0.9,2.3 -0.3,0.6 -0.5,1.2 -0.5,1.4 0,0.2 -0.2,0.7 -0.4,1.1 -0.2,0.4 -0.4,0.9 -0.4,1.1 0,0.2 -0.2,0.7 -0.4,1.1 -0.2,0.4 -0.4,0.9 -0.4,1.2 0,0.5 -0.1,0.7 -0.8,2.2 -0.2,0.4 -0.4,1.1 -0.4,1.4 0,0.4 -0.2,0.8 -0.4,1.1 -0.2,0.3 -0.4,0.8 -0.4,1.2 0,0.4 -0.2,0.9 -0.4,1.2 -0.2,0.3 -0.4,0.9 -0.4,1.4 0,0.5 -0.1,1 -0.2,1 -0.1,0.1 -0.2,0.4 -0.2,0.7 0,0.3 -0.2,0.9 -0.5,1.3 -0.3,0.4 -0.5,1.1 -0.5,1.5 0,0.4 -0.1,0.8 -0.2,0.8 -0.1,0.1 -0.2,0.7 -0.2,1.4 0,0.9 -0.2,1.6 -0.6,2.6 -0.5,0.9 -0.7,1.7 -0.7,2.8 0,0.9 -0.2,1.8 -0.3,2 -0.4,0.9 -0.6,1.9 -0.5,2.7 0,0.4 -0.1,0.8 -0.2,0.9 -0.1,0.1 -0.3,0.3 -0.3,0.5 0,0.2 -0.2,0.8 -0.5,1.4 -0.3,0.6 -0.5,1.7 -0.6,2.6 -0.3,3.3 -0.4,4.2 -0.6,4.4 -0.1,0.1 -0.2,0.5 -0.2,0.8 0,0.3 -0.2,1.3 -0.5,2.3 -0.3,1 -0.5,2.5 -0.6,3.5 -0.2,2.8 -0.5,5.7 -0.8,6 -0.1,0.2 -0.3,1.9 -0.4,3.8 -0.1,1.9 -0.2,4 -0.3,4.5 -0.7,5.1 -0.8,7.2 -0.9,11.6 0,2.8 0,5.4 0.1,5.9 0.1,0.6 0.1,0.9 -0.1,0.9 -0.4,0 -0.3,2.5 0,2.8 0.2,0.2 0.2,0.4 0,0.8 -0.4,0.6 -0.1,8.6 0.3,8.9 0.1,0.1 0.3,2.6 0.4,5.5 0.1,2.9 0.3,5.8 0.4,6.4 0.1,0.6 0.4,1.6 0.5,2.2 0.1,0.6 0.3,1.5 0.3,2 0,0.5 0.2,1.1 0.3,1.4 0.2,0.3 0.5,1.7 0.6,3.2 0.1,1.5 0.4,3.4 0.5,4.2 0.1,0.8 0.3,2 0.4,2.6 0.1,0.7 0.3,1.6 0.5,2 0.2,0.5 0.4,1.4 0.5,2 0.1,0.7 0.3,1.4 0.4,1.7 0.2,0.3 0.3,1 0.3,1.6 0,0.7 0.2,1.3 0.5,1.7 0.3,0.4 0.5,1 0.5,1.6 0,0.5 0.2,1.3 0.4,1.6 0.2,0.4 0.4,0.9 0.4,1.1 0,0.2 0.2,0.6 0.5,0.8 0.4,0.4 0.5,0.6 0.3,1.5 -0.1,0.6 0,1.3 0.1,1.7 0.1,0.4 0.4,1.1 0.5,1.7 0.6,2.2 1.3,4.2 1.6,4.6 0.2,0.2 0.3,0.6 0.3,0.9 0,0.3 0.2,0.8 0.4,1.2 0.2,0.4 0.4,0.9 0.4,1.2 0,0.3 0.2,0.9 0.5,1.4 0.8,1.4 1.2,2.6 1.2,3.1 0,0.3 0.2,0.8 0.4,1.3 0.2,0.4 0.6,1.2 0.8,1.8 0.2,0.5 0.9,2 1.5,3.2 0.6,1.3 1.1,2.5 1.1,2.8 0,0.4 0.7,2.1 1.2,3 0.2,0.3 0.9,1.8 1.3,2.6 0.1,0.2 0.7,1.3 1.3,2.5 0.6,1.2 1.7,3.1 2.3,4.3 1.3,2.6 1.5,2.9 2.2,3.8 0.3,0.4 0.8,1.4 1.3,2.3 0.9,1.8 1,2.1 2.1,3.8 0.4,0.7 0.8,1.3 0.8,1.5 0,0.1 0.2,0.4 0.5,0.6 0.3,0.2 0.5,0.5 0.5,0.7 0,0.1 0.4,0.7 0.8,1.3 0.4,0.6 1,1.5 1.2,2 0.2,0.5 0.5,1 0.7,1 0.1,0.1 0.3,0.4 0.4,0.7 0.1,0.3 0.7,1.2 1.4,2.1 1.3,1.7 1.9,2.6 2.2,3.1 0.2,0.4 1.6,2.2 2.9,3.6 0.4,0.5 0.8,1 0.8,1.1 0,0.1 0.2,0.5 0.5,0.7 0.3,0.2 0.5,0.5 0.5,0.7 0,0.1 0.5,0.8 1.1,1.5 0.6,0.7 1.1,1.3 1.1,1.5 0,0.1 0.6,0.8 1.2,1.6 0.7,0.7 1.8,2 2.5,2.8 0.7,0.8 1.6,1.8 1.9,2.2 0.4,0.4 0.7,0.9 0.8,1.1 0.1,0.2 0.3,0.4 0.4,0.4 0.1,0 1,0.8 2,1.8 5.1,5.4 7.2,7.5 8.6,8.6 0.8,0.7 1.9,1.6 2.4,2 0.5,0.5 1.3,1.2 1.8,1.6 0.5,0.4 1.5,1.3 2.2,2 1.6,1.5 5.2,4.6 5.8,4.9 1.5,0.9 2.4,1.5 2.6,1.9 0.2,0.2 0.5,0.4 0.6,0.4 0.1,0 0.5,0.3 0.9,0.6 0.3,0.3 0.7,0.6 0.8,0.6 0.1,0 0.9,0.6 1.8,1.4 0.9,0.8 1.9,1.6 2.2,1.7 0.6,0.3 1.3,0.9 2.5,1.9 0.2,0.2 0.7,0.4 1,0.4 0.3,0 0.8,0.2 1,0.5 0.2,0.3 0.6,0.5 0.7,0.5 0.1,0 0.5,0.2 0.7,0.5 0.2,0.3 0.6,0.5 0.7,0.5 0.2,0 0.6,0.4 1.1,0.8 0.4,0.5 0.9,0.8 1,0.8 0.1,0 0.7,0.3 1.3,0.7 0.6,0.4 1.1,0.7 1.2,0.7 0.1,0 0.6,0.3 1.2,0.7 0.6,0.4 1.2,0.7 1.3,0.7 0.1,0 0.4,0.2 0.5,0.4 0.2,0.2 0.5,0.4 0.7,0.4 0.2,0 1,0.4 1.7,1 0.7,0.5 1.4,1 1.5,1 0.2,0 0.8,0.4 1.4,0.8 1,0.7 2.4,1.4 5.8,3 0.6,0.3 1.2,0.6 1.4,0.7 0.2,0.1 1.3,0.7 2.5,1.2 1.2,0.6 2.2,1.1 2.2,1.2 0.1,0.1 0.3,0.2 0.5,0.2 0.3,0 3.3,1.3 4.4,1.9 0.2,0.1 0.6,0.3 1,0.5 0.3,0.1 0.9,0.4 1.3,0.6 0.4,0.2 1.3,0.5 1.9,0.7 1.1,0.4 2.6,1 4,1.7 0.4,0.2 0.9,0.3 1.1,0.3 0.2,0 0.5,0.1 0.6,0.2 0.1,0.1 0.4,0.2 0.6,0.2 0.2,0 1,0.3 1.6,0.6 0.6,0.3 1.2,0.6 1.4,0.6 0.2,0 2.1,0.7 3,1.2 0.2,0.1 1,0.4 1.8,0.6 0.8,0.2 1.8,0.6 2.2,0.8 0.4,0.2 1,0.3 1.3,0.3 0.3,0 0.8,0.2 1.3,0.3 1.2,0.5 3.8,1.3 4.3,1.3 0.3,0 1.1,0.2 1.8,0.5 0.7,0.3 1.6,0.6 1.9,0.6 0.3,0 0.8,0.2 1.1,0.3 0.5,0.2 1.1,0.3 3.1,0.7 0.6,0.1 1.3,0.3 1.4,0.5 0.1,0.1 0.5,0.2 0.8,0.2 0.3,0 0.8,0.1 1.1,0.2 0.3,0.1 1.2,0.3 2,0.5 1.3,0.2 2.3,0.5 5.8,1.2 0.5,0.1 1.5,0.3 2.2,0.4 0.7,0.1 1.7,0.3 2.4,0.5 2.2,0.5 3.8,0.7 6.1,1 1.3,0.1 3,0.3 3.8,0.5 0.9,0.1 2.2,0.3 3,0.4 0.8,0.1 2.2,0.2 3.2,0.4 1,0.1 2.3,0.2 2.9,0.2 0.6,0 1.3,0.1 1.6,0.2 0.2,0.1 1.8,0.3 3.5,0.4 1.7,0.1 3.9,0.2 4.8,0.2 5,0.3 12,0.5 13.8,0.4 2.1,-0.1 4.7,0 5.5,0.2 0.5,0.1 1,0.2 1.2,0.1 1.6,0.9 3.1,0.8 4.7,0.8 z" />
	
	
<path
   style="fill:url(#linearGradient850);stroke-width:0.32"
   d="m -22.257506,425.96099 c -1.32,-0.12582 -2.976,-0.31574 -3.68,-0.42208 -0.704,-0.10633 -3.43495,-0.42217 -6.06879,-0.70189 -2.63384,-0.27971 -4.89855,-0.57641 -5.03269,-0.65929 -0.13414,-0.0829 -1.57918,-0.35936 -3.21121,-0.61434 -1.63202,-0.25497 -3.54331,-0.60352 -4.24731,-0.77453 -0.704,-0.17104 -3.152,-0.75657 -5.44,-1.30121 -9.57236,-2.27869 -19.5315,-5.5776 -28.48,-9.43379 -1.056,-0.45508 -2.34806,-0.99008 -2.87123,-1.1889 -4.79219,-1.82125 -22.167694,-11.26599 -28.508304,-15.49616 -5.01093,-3.34307 -10.38202,-7.07152 -11.8832,-8.24896 -0.91449,-0.71728 -2.90891,-2.24013 -4.43204,-3.38413 -8.03325,-6.03367 -16.44323,-13.41997 -24.95789,-21.92 -9.84992,-9.833 -14.97044,-15.82048 -24.21946,-28.32001 -1.36743,-1.848 -2.59686,-3.504 -2.73207,-3.68 -0.13521,-0.176 -0.74189,-1.112 -1.34817,-2.08 -0.60629,-0.968 -2.70601,-4.208 -4.66606,-7.2 -1.96004,-2.992 -4.15325,-6.45859 -4.87379,-7.70355 -1.64858,-2.84838 -7.06333,-13.99011 -8.23742,-16.94979 -0.48582,-1.22464 -1.48547,-3.52266 -2.22145,-5.10666 -1.25683,-2.70502 -1.71947,-3.84374 -3.41273,-8.4 -0.37609,-1.012 -0.87002,-2.272 -1.09761,-2.8 -1.36162,-3.15891 -2.7354,-7.05616 -3.32758,-9.44 -0.19674,-0.792 -0.47741,-1.728 -0.6237,-2.08 -0.14629,-0.352 -0.7318,-2.728 -1.30113,-5.28 -1.41391,-6.33773 -1.38726,-6.21994 -1.44772,-6.4 -0.0295,-0.088 -0.13483,-0.376 -0.23395,-0.64 -0.0991,-0.264 -0.36101,-1.776 -0.58198,-3.36 -0.22098,-1.584 -0.51848,-3.11325 -0.66112,-3.39837 -0.14265,-0.28509 -0.32538,-1.22109 -0.40608,-2.08 -0.0807,-0.85888 -0.30656,-2.26474 -0.5019,-3.1241 -0.19534,-0.85936 -0.27953,-1.63811 -0.18708,-1.73056 0.0925,-0.0924 0.0393,-0.32534 -0.11807,-0.51753 -0.1574,-0.1922 -0.44945,-1.7008 -0.649,-3.35248 -0.19956,-1.65168 -0.48182,-3.23568 -0.62726,-3.52 -0.34826,-0.68084 -0.64542,-4.15178 -0.87871,-10.26365 -0.10441,-2.73533 -0.33425,-5.15332 -0.51076,-5.37332 -0.21871,-0.2726 -0.19412,-0.55276 0.0772,-0.87971 0.31742,-0.38246 0.31747,-0.67443 2.4e-4,-1.44029 -0.30621,-0.73926 -0.31094,-1.06534 -0.0206,-1.4152 0.29117,-0.35084 0.28249,-0.60646 -0.038,-1.11971 -0.34046,-0.54518 -0.34046,-0.78499 0,-1.33017 0.25957,-0.41562 0.30567,-0.8057 0.12292,-1.04 -0.39192,-0.50247 -0.41036,-10.1945 -0.0203,-10.66644 0.19817,-0.23974 0.18807,-0.44505 -0.0285,-0.57888 -0.44739,-0.27651 -0.42796,-1.54918 0.0306,-2.00781 0.27493,-0.27491 0.26342,-0.61433 -0.0462,-1.36179 -0.30962,-0.74745 -0.32113,-1.08688 -0.0462,-1.36179 0.4742,-0.47421 0.47163,-1.92477 -0.004,-2.40064 -0.27002,-0.27002 -0.27522,-0.48518 -0.0192,-0.7937 0.1932,-0.2328 0.43294,-1.78688 0.53277,-3.45356 0.0998,-1.66666 0.25179,-4.15456 0.33772,-5.52864 0.0859,-1.37409 0.30754,-2.78106 0.49247,-3.12663 0.18494,-0.34554 0.25659,-0.75715 0.15923,-0.91469 -0.0974,-0.15753 0.0353,-1.84656 0.29482,-3.75341 0.25951,-1.90681 0.5454,-4.18694 0.63531,-5.06694 0.0899,-0.88 0.46275,-3.4 0.82853,-5.6 0.36577,-2.2 0.94672,-5.8 1.291,-8 0.34427,-2.2 0.75805,-4.432 0.91949,-4.96 0.16145,-0.528 0.39065,-1.608 0.50934,-2.4 0.11868,-0.792 0.4316,-2.232 0.69537,-3.2 0.26376,-0.968 0.67274,-2.696 0.90883,-3.84 0.81407,-3.94464 1.0583,-4.9648 1.53212,-6.4 0.26147,-0.792 0.57517,-2.088 0.69712,-2.88 0.12195,-0.792 0.41232,-1.872 0.64528,-2.4 0.23296,-0.528 0.52096,-1.608 0.64,-2.4 0.11904,-0.792 0.40025,-1.872 0.6249,-2.4 0.22465,-0.528 0.59436,-1.79472 0.82157,-2.81492 0.22722,-1.02019 0.53251,-1.9287 0.67843,-2.01888 0.14592,-0.0902 0.26531,-0.46924 0.26531,-0.84236 0,-0.37312 0.13901,-1.12064 0.30891,-1.66112 0.16989,-0.54052 0.38611,-1.36864 0.48048,-1.84036 0.22833,-1.14131 1.10263,-2.01833 1.55804,-1.56294 0.18732,0.18733 0.80869,0.34058 1.38082,0.34058 1.22005,0 4.15413,0.55561 5.07175,0.96041 1.04284,0.46 2.36946,0.63917 5.87489,0.79335 1.82318,0.0802 3.47918,0.27689 3.68,0.43715 0.60395,0.48195 4.47933,0.76534 11.29671,0.82608 4.1033,0.0366 6.60753,0.18467 6.88,0.40685 0.54221,0.44217 8.64536,0.59449 25.23617,0.47436 12.19092,-0.0883 23.46095,0.3208 24.79224,0.89984 0.55485,0.24135 9.98798,1.04903 10.6403,0.91104 0.13183,-0.0278 0.4557,0.0329 0.7197,0.13508 0.264,0.10214 2.748,0.43382 5.52,0.73702 2.772,0.30323 5.040004,0.64736 5.040004,0.76477 0,0.11741 1.54163,0.40189 3.42584,0.63216 1.88421,0.2303 3.64821,0.54269 3.92,0.69421 0.27179,0.15152 3.66216,0.71283 7.53416,1.24736 3.872,0.53452 7.4,1.10816 7.84,1.27472 0.44,0.16656 2.02335,0.46368 3.51855,0.66022 1.49521,0.19658 2.86321,0.46602 3.04,0.59878 0.1768,0.13274 1.76145,0.42807 3.52145,0.65629 1.76,0.22819 3.344,0.52083 3.52,0.65031 0.176,0.12947 1.724,0.42406 3.44,0.65465 1.716,0.23059 3.12,0.51869 3.12,0.64016 0,0.12151 0.54,0.30368 1.2,0.40483 3.6856,0.5648 5.42871,0.90423 6,1.16832 0.352,0.16272 3.016,0.67213 5.92,1.13204 2.904,0.4599 5.568,0.96486 5.92,1.12217 0.352,0.15728 2.224,0.53053 4.16,0.82947 1.936,0.29898 3.664,0.65056 3.84,0.78135 0.176,0.13078 1.688,0.41782 3.36,0.63782 1.672,0.22 3.184,0.50448 3.36,0.63223 0.176,0.12771 1.544,0.41433 3.04,0.63696 1.496,0.22262 2.864,0.51293 3.04,0.64515 0.176,0.13219 1.4,0.4241 2.72,0.64861 1.32,0.22454 2.544,0.51033 2.72,0.63507 0.176,0.12477 1.328,0.4088 2.56,0.63117 1.232,0.22237 2.38399996,0.51229 2.55999996,0.64422 0.176,0.13197 1.61599995,0.41805 3.19999994,0.63578 1.584,0.21773 3.0240001,0.51011 3.2000001,0.64976 0.176,0.13961 1.544,0.43731 3.04,0.6615 1.496,0.22419 2.792,0.49639 2.88,0.6049 0.088,0.10848 1.528,0.38601 3.2,0.6167 1.672,0.23069 3.112,0.52896 3.2,0.66279 0.088,0.13382 1.24,0.42032 2.56,0.63667 1.32,0.21635 2.616,0.47056 2.88,0.56493 0.55987,0.20016 0.41325,0.1654 4.96,1.17612 1.936,0.43037 3.52,0.8041 3.52,0.83056 0,0.0266 0.36,0.0979 0.8,0.15869 1.82403,0.25226 8.48,1.62906 8.48,1.75408 0,0.0288 0.432,0.10656 0.96,0.17255 1.99594,0.24947 7.04659,1.2591 7.2,1.43926 0.088,0.10336 1.384,0.37862 2.88,0.61174 1.496,0.23312 2.864,0.52986 3.04,0.65943 0.176,0.12957 1.544,0.41769 3.04,0.64032 1.496,0.22262 2.864,0.50915 3.04,0.63673 0.176,0.12762 1.46122,0.41108 2.85606,0.62996 1.39485,0.21884 2.76285,0.51635 3.04,0.66108 0.48679,0.25421 2.185566,0.70954 6.903936,1.85053 1.232,0.29795 2.384,0.63309 2.56,0.74477 0.176,0.11171 0.968,0.308 1.76,0.43619 0.792,0.12819 1.584,0.34407 1.76,0.47968 0.176,0.13562 1.4,0.42925 2.72,0.65251 1.32,0.22324 2.5368,0.528 2.704,0.67722 0.1672,0.14925 0.62669,0.27133 1.02112,0.27133 0.3944,0 0.79437,0.12502 0.8888,0.27782 0.0945,0.1528 0.92736,0.37805 1.85091,0.50058 0.92356,0.1225 1.82679,0.33638 2.00717,0.47523 0.18042,0.13888 1.48,0.43869 2.888,0.66627 1.408,0.22756 2.704,0.50068 2.88,0.60692 0.33107,0.19987 3.4624,0.97424 7.36,1.82012 1.232,0.26736 2.528,0.61284 2.88,0.76772 0.352,0.15484 1.792,0.5063 3.2,0.78099 3.4504,0.67315 9.16711,1.95897 9.76,2.19526 0.264,0.10522 1.344,0.35978 2.4,0.56573 1.056,0.20595 2.064,0.46643 2.24,0.57891 0.29952,0.19136 1.46733,0.4881 7.04,1.78883 1.232,0.28759 2.46176,0.64304 2.73277,0.78996 0.27104,0.14691 1.24285,0.37027 2.15965,0.49638 0.91677,0.12608 1.74752,0.35974 1.84611,0.51926 0.0986,0.15952 0.49475,0.29092 0.88035,0.292 0.38563,0 1.11357,0.21706 1.6177,0.48 0.50413,0.26292 1.17961,0.47802 1.50112,0.47802 0.3215,0 0.66045,0.12285 0.75325,0.27299 0.0928,0.15015 1.25331,0.45853 2.57888,0.68528 1.3256,0.22675 2.41017,0.516 2.41017,0.64282 0,0.21984 3.53411,1.05149 3.71207,0.8735 0.047,-0.0469 -8.2681,-5.83862 -18.47792,-12.87033 -10.20983,-7.03175 -18.60519,-12.86132 -18.65636,-12.95463 -0.0513,-0.0933 28.21977,-19.27783 62.82444,-42.63226 34.60471,-23.35444 98.97149,-66.805739 143.03728,-96.558409 l 80.11965,-54.095781 1.48035,0.83168 c 0.81421,0.45744 2.05997,1.567072 2.76836,2.465856 0.70841,0.898816 1.57241,1.71184 1.92,1.80672 0.89286,0.243776 4.90864,2.529665 6.16684,3.510337 0.5802,0.452224 1.84017,1.578208 2.79994,2.502208 0.95978,0.923999 1.91277,1.679999 2.11776,1.679999 0.20499,0 1.43453,0.504 2.73229,1.12 1.29776,0.616 2.46608,1.120001 2.59619,1.120001 0.13015,0 1.06925,0.432 2.08695,0.959999 1.01766,0.528001 2.16569,0.962209 2.55116,0.964896 1.69802,0.01184 1.66215,0.131489 -3.8607,12.874855 L 419.18248,0.65935104 289.18545,89.8775 c -71.4984,49.07003 -129.95328,89.35355 -129.89975,89.51896 0.0535,0.16544 1.02416,0.52544 2.15703,0.8 1.13286,0.27459 2.20483,0.59414 2.38217,0.71017 0.17735,0.11604 0.86295,0.31236 1.52356,0.43629 0.66057,0.12394 1.28,0.35299 1.37645,0.50906 0.0964,0.15603 0.39708,0.28371 0.66809,0.28371 0.44067,0 1.99789,0.59168 3.30947,1.25747 0.264,0.13402 1.272,0.42877 2.24,0.65501 0.968,0.22624 1.90592,0.52583 2.08426,0.66576 0.17834,0.13991 1.04234,0.42983 1.92,0.64426 0.87766,0.21443 1.73974,0.49901 1.91574,0.63241 0.176,0.13338 0.968,0.40903 1.76,0.61258 1.6025,0.41181 3.41418,1.1824 3.64039,1.54845 0.1759,0.28461 0.74157,9.96915 1.07849,18.46406 0.26292,6.62944 0.26032,20.296 -0.005,23.36001 -0.0913,1.056 -0.25955,3.72 -0.37398,5.92 -0.11446,2.2 -0.33434,4.432 -0.48861,4.96 -0.15427,0.528 -0.36781,2.328 -0.47449,4 -0.18234,2.8568 -0.8697,7.93881 -1.96925,14.56 -0.26307,1.584 -0.61991,3.81529 -0.79299,4.95843 -0.17309,1.1431 -0.58618,3.0151 -0.91796,4.16 -0.3318,1.14486 -0.70326,2.58557 -0.8255,3.20157 -0.64448,3.24819 -4.43824,16.15683 -6.48912,22.08 -1.50586,4.34899 -4.54874,11.5161 -8.28746,19.52 -2.11469,4.52711 -7.5111,14.00733 -10.65596,18.72 -0.82215,1.232 -2.20228,3.30986 -3.06695,4.61751 -2.15693,3.26179 -9.29632,12.75274 -11.90752,15.82957 -7.28195,8.58045 -16.98608,18.50694 -23.20358,23.73523 -2.0784,1.74775 -5.0304,4.23514 -6.56,5.52755 -4.58365,3.87293 -7.60932,6.15092 -13.53028,10.18679 -9.47731,6.4599 -14.98668,9.69862 -25.09078,14.74976 -5.083166,2.54109 -5.932096,2.94 -10.239996,4.81149 -7.35072,3.19341 -21.27587,8.08854 -27.04,9.50538 -4.4082,1.08358 -7.63978,1.80166 -10.72,2.38208 -1.76,0.33164 -3.992,0.7558 -4.96,0.94259 -1.76356,0.34029 -8.34036,1.13942 -13.4400001,1.63305 -3.28004,0.31751 -23.1873299,0.3057 -26.5599999,-0.0157 z"
   id="path1225" /><path
   style="fill:url(#linearGradient856);stroke-width:0.32"
   d="m -6.15811,372.84014 c -1.672,-0.13463 -6.856,-0.47639 -11.52,-0.75946 -4.664,-0.28307 -8.73005,-0.65945 -9.03565,-0.83641 -0.30563,-0.17696 -1.2815,-0.32173 -2.16864,-0.32173 -0.88714,0 -4.0211,-0.44352 -6.96435,-0.9856 -2.94325,-0.54208 -6.35936,-1.11411 -7.59136,-1.27117 -1.232,-0.15706 -4.472,-0.88096 -7.2,-1.60864 -2.728,-0.72768 -5.68,-1.43526 -6.56,-1.57245 -2.11765,-0.33005 -21.80993,-6.62938 -23.04,-7.37024 -21.60458,-5.85831 -39.60814,-19.74943 -58.24015,-32.95191 -0.12526,0 -0.51092,-0.36 -0.85703,-0.8 -0.3461,-0.44 -0.79872,-0.8 -1.00583,-0.8 -0.2071,0 -0.80865,-0.43379 -1.33677,-0.964 -2.59955,-2.43488 -20.22119,-16.78454 -25.54089,-23.16955 -23.85304,-22.20934 -30.01709,-39.26873 -41.65737,-77.82988 -0.26291,-0.50413 -0.48047,-1.34858 -0.48346,-1.87658 -0.003,-0.528 -0.21913,-1.66441 -0.48032,-2.52537 -1.0889,-3.58938 -2.82035,-11.81431 -3.23128,-15.34967 -0.24261,-2.08726 -0.57821,-4.31926 -0.74578,-4.96 -0.60912,-2.32909 -1.46106,-15.65469 -1.45542,-22.76496 0.007,-8.21808 0.58576,-17.88743 1.28806,-21.50183 0.26309,-1.35401 0.45276,-2.57801 0.42149,-2.72 -0.0313,-0.14198 0.0205,-0.47417 0.11497,-0.73817 1.86819,-14.22105 6.02155,-29.49656 11.32149,-40.26554 0.28463,-0.64596 0.70695,-1.60647 0.93849,-2.13447 9.43319,-18.356472 22.67062,-41.522321 39.49676,-55.200003 0.12959,0 1.05973,-0.864001 2.06698,-1.920001 1.00726,-1.056 2.01307,-1.92 2.23516,-1.92 8.5303,-8.813387 22.42755,-19.066432 33.47457,-23.200802 0.52598,-0.11552 0.95632,-0.319552 0.95632,-0.453408 0,-0.133856 0.576,-0.43344 1.28,-0.665792 0.704,-0.232352 1.28,-0.543392 1.28,-0.691232 0,-0.147808 0.216,-0.268768 0.48,-0.268768 12.95455,-7.580373 27.712848,-10.927329 41.60801,-15.381597 0.1804,-0.14148 1.1164,-0.3529 2.08,-0.46976 0.9636,-0.1169 3.63285,-0.70215 5.93167,-1.30058 2.29883,-0.59843 4.81883,-1.09043 5.6,-1.09334 0.78118,-0.003 2.93233,-0.29508 4.78033,-0.64932 1.848,-0.3542 6.24,-0.85744 9.76,-1.11827 3.52,-0.2608 7.41697,-0.62147 8.65994,-0.80144 2.68489,-0.3888 26.41423,-0.43488 26.67769,-0.0518 0.10032,0.1458 3.10742,0.44077 6.68246,0.65546 3.57508,0.21469 6.74308,0.51853 7.04,0.6752 0.29695995,0.15667 2.9519099,0.53462 5.8999099,0.8399 2.948,0.30525 5.3600001,0.65988 5.3600001,0.788 0,0.12816 0.972,0.33594 2.16,0.46176 34.858438,5.876046 69.16812,16.569654 92.61723,40.58963 1.47346,1.042989 2.73693,2.462213 4.32879,3.416169 1.61161,1.339435 3.32198,3.044557 4.86752,4.160001 0.19145,0 0.85472,0.560736 1.47392,1.246112 0.61916,0.685344 2.47529,2.342688 4.1247,3.682976 l 2.99891,2.436896 130.94196,-64.975044 130.94192,-64.97502 15.89254,15.6706 c 23.45687,23.12934 29.38016,29.13789 28.98429,29.40154 -0.19152,0.12758 -57.23843,37.78835 -126.77094,83.69066 L 176.3,142.8 l 1.52362,4.54803 c 0.83802,2.50141 1.62957,5.26499 1.75901,6.14125 0.12947,0.87629 0.81165,3.75325 1.51597,6.39325 0.70435,2.64 1.39091,5.808 1.52569,7.04 0.13479,1.232 0.48282,3.608 0.77338,5.28 1.30592,7.51462 1.5112,9.17289 1.88173,15.2 0.73046,11.88214 0.48937,20.05638 -1.00992,34.24 -0.62874,5.94797 -1.04874,8.20314 -2.97972,16.00001 -0.52304,2.112 -1.08051,4.68067 -1.23881,5.70812 -0.15831,1.02749 -1.31037,4.84349 -2.56013,8.48001 -1.24976,3.63654 -2.5673,7.51187 -2.92787,8.61187 -0.36058,1.1 -0.77178,2 -0.91383,2 -0.14201,0 -0.35276,0.504 -0.46835,1.12 -0.11555,0.616 -0.33808,1.12 -0.49449,1.12 -0.15642,0 -0.28439,0.21795 -0.28439,0.48435 0,0.26637 -0.12864,0.73437 -0.28589,1.04 -0.15724,0.3056 -1.92124,3.83018 -3.92,7.83235 -5.94017,14.1142 -15.5145,24.42204 -23.95411,35.91668 0,0.24374 -1.152,1.48845 -2.56,2.76601 -1.408,1.27754 -2.56,2.47562 -2.56,2.66244 0,0.40365 -4.91421,5.29811 -5.31974,5.29833 -17.80717,14.84706 -48.626375,37.77781 -74.60026,43.19569 -1.1,0.22637 -2,0.5271 -2,0.66829 -10.197314,2.43863 -20.900534,6.23031 -31.79626,6.37587 -0.64006,0 -1.16374,0.12144 -1.16374,0.26989 0,0.14841 -3.06,0.43779 -6.8,0.64304 -3.74,0.20521 -8.0240001,0.51155 -9.5200001,0.68073 -3.99379,0.45165 -10.6049299,0.60375 -14.0799999,0.32394 z"
   id="path1193"
   sodipodi:nodetypes="ssssssssccsscccsssscssccccsccssscccsccscsssssccccsscccssscssssssssssssssssccssccccsssss" /><path
   style="fill:url(#linearGradient862);stroke-width:0.32"
   d="m -13.765213,262.17806 c -0.0973,-0.15747 -2.30112,-0.38281 -4.89735,-0.50077 -29.709092,-1.8306 -55.431826,-22.62555 -70.614188,-47.02266 -0.23664,-0.0908 -0.61536,-0.8262 -0.84159,-1.63424 -7.098457,-14.20816 -8.298577,-36.72105 -4.95669,-49.31773 0.43369,-1.49657 0.78854,-3.16941 0.78854,-3.71734 0,-2.04448 4.00507,-10.4185 7.71425,-16.12935 9.46521,-14.57318 22.904368,-25.0417 39.351518,-30.65315 9.04943,-3.08749 21.65537,-5.04474 29.25423,-4.54208 1.936,0.12803 4.56732,0.21872 5.84742,0.2015 1.61255,-0.0218 4.8068501,0.4616 10.4000001,1.5736 36.5681719,3.45286 68.1219369,38.08283 69.7386909,68.95543 0.49904,3.04371 0.688992,5.66269 0.707968,9.76 1.50222,34.48367 -33.255779,65.69923 -59.2614395,70.92929 -0.75203,0.10758 -1.44451,0.32051 -1.53888,0.47315 -0.0943,0.15267 -0.79904,0.27757 -1.56599,0.27757 -0.7669395,0 -1.4424295,0.12678 -1.5011195,0.28176 -0.23923,0.63193 -18.25632,1.66217 -18.62537,1.06502 z M 385.08404,75.660478 c -0.7862,-0.275136 -2.02505,-0.988256 -2.75296,-1.584736 -11.77219,-8.425058 -20.95349,-19.806031 -24.08982,-33.742627 -0.93863,-4.337537 -0.9424,-5.354081 -0.0262,-7.034081 9.53683,-12.484827 31.76297,22.930658 34.06672,30.252227 0.23197,0.1896 0.5384,1.98784 0.75187,4.412384 0.34451,3.912865 0.33063,4.151521 -0.31657,5.440001 -1.0801,2.150336 -2.03415,2.765248 -4.28346,2.760832 -1.056,-0.0032 -2.56326,-0.228864 -3.34947,-0.504 z m 30.12772,-20.095521 c -0.58397,-0.264608 -1.47018,-0.771937 -1.96938,-1.127393 -12.07149,-6.165418 -19.11318,-15.120697 -25.43322,-26.406306 -1.37014,-2.439168 -1.87424,-4.092609 -2.66265,-8.733665 -0.10084,-1.570778 -0.0573,-3.782776 1.17779,-4.775808 0.27926,-0.214208 1.38429,-0.686145 2.45565,-1.048769 l 1.9479,-0.659264 4.24115,1.497473 c 11.44689,7.126926 28.84875,23.098397 29.04058,35.933667 -0.18944,3.306624 -0.63763,4.295552 -2.32003,5.119169 -1.36714,0.669248 -5.18435,0.787616 -6.47927,0.200896 z M 443.63352,36.538299 C 429.35677,30.123237 417.54978,17.138214 412.86926,3.7253988 l -1.28346,-3.82588856 0.71488,-1.52627194 c 0.91844,-1.960864 1.96327,-2.928096 3.25959,-3.017504 2.94115,-0.4599013 5.56972,-0.1936205 7.89267,1.324832 8.53932,4.400475 20.50569,14.2873287 24.2329,22.8706907 0.2982,0.792 0.77747,1.8 1.06502,2.24 1.70051,2.601856 3.19331,7.231937 3.19837,9.920001 0.009,4.566624 -3.28752,6.479905 -8.31571,4.827041 z m -154.68519,-59.18855 c -4.47536,-5.599516 -7.61611,-12.106022 -9.4825,-18.356161 -1.24694,-4.197345 -1.35312,-7.102238 -0.34224,-9.362338 0.99431,-2.22294 1.45268,-2.63445 3.4266,-3.07619 1.3839,-0.3097 1.14863,-0.247041 3.00387,0.0364 10.82342,4.520728 17.85637,13.877609 22.05072,22.206308 -0.0722,0.0673 -4.18359,2.147041 -9.13645,4.621633 -8.53344,4.263552 -8.82914,4.621283 -9.34322,4.107145 z m 31.21155,-17.289345 c -0.7295,-1.04 -1.32637,-1.99264 -1.32637,-2.116992 0,-0.124352 -0.63043,-1.181473 -1.40092,-2.349121 -1.78359,-2.702971 -3.80205,-6.537181 -4.97399,-9.448451 -1.40751,-4.190732 -3.21724,-10.134876 -0.98509,-13.47459 4.03682,-3.847408 8.43322,-2.005861 12.3504,0.83504 0.3353,0.37123 1.92373,1.37754 3.2496,2.58179 4.31377,4.209831 11.04204,10.427589 12.84308,16.71789 -0.16868,0.15651 -18.1698,9.145312 -18.3145,9.145312 -0.0637,0 -0.7127,-0.85088 -1.44221,-1.890848 z m 31.87363,-14.801854 c -0.484,-0.54327 -0.88,-1.06407 -0.88,-1.15732 -4.20064,-6.752509 -7.59244,-14.010388 -8.51468,-21.58998 -0.0525,-2.183492 1.09659,-4.869578 3.2182,-5.97693 1.14704,-0.59028 2.83913,-0.654546 3.24396,-0.401706 5.80167,1.304539 9.6286,4.486484 13.25252,8.706886 2.96364,2.895476 5.26535,6.256952 7.66727,9.59175 0.25846,0 1.67789,2.6015 1.51066,2.76874 -0.16692,0.16691 -18.30228,9.06393 -18.45793,9.05526 -0.088,-0.005 -0.556,-0.45341 -1.04,-0.9967 z"
   id="path1209"
   sodipodi:nodetypes="sccccsssscccccsssssccccsscsscccccscccscccccscccsccccssccsscssscccccssssccccccsss" /></g>
</svg>
