<?xml version="1.0" encoding="UTF-8" standalone="no"?>
<svg
   xmlns:osb="http://www.openswatchbook.org/uri/2009/osb"
   xmlns:dc="http://purl.org/dc/elements/1.1/"
   xmlns:cc="http://creativecommons.org/ns#"
   xmlns:rdf="http://www.w3.org/1999/02/22-rdf-syntax-ns#"
   xmlns:svg="http://www.w3.org/2000/svg"
   xmlns="http://www.w3.org/2000/svg"
   xmlns:sodipodi="http://sodipodi.sourceforge.net/DTD/sodipodi-0.dtd"
   xmlns:inkscape="http://www.inkscape.org/namespaces/inkscape"
   version="1.1"
   id="svg8"
   inkscape:version="1.0.2 (e86c8708, 2021-01-15)"
   sodipodi:docname="Fahne.svg"
   x="0px"
   y="0px"
   viewBox="0 0 593.60967 626.62577"
   xml:space="preserve"
   width="593.60968"
   height="626.62579"><metadata
   id="metadata846"><rdf:RDF><cc:Work
       rdf:about=""><dc:format>image/svg+xml</dc:format><dc:type
         rdf:resource="http://purl.org/dc/dcmitype/StillImage" /><dc:title></dc:title></cc:Work></rdf:RDF></metadata><defs
   id="defs844"><linearGradient
     id="linearGradient862"
     osb:paint="solid"
     gradientTransform="translate(400.46326,674.99871)"><stop
       style="stop-color:#802183;stop-opacity:1;"
       offset="0"
       id="stop860" /></linearGradient><linearGradient
     id="linearGradient856"
     osb:paint="solid"
     gradientTransform="translate(-12.88755,-19.00394)"><stop
       style="stop-color:#f9ee91;stop-opacity:1;"
       offset="0"
       id="stop854" /></linearGradient><linearGradient
     id="linearGradient850"
     osb:paint="solid"
     gradientTransform="matrix(1,0,0,1.0151721,-262.85606,918.60465)"><stop
       style="stop-color:#dfc805;stop-opacity:1;"
       offset="0"
       id="stop848" /></linearGradient></defs>
<style
   type="text/css"
   id="style833">
	.st0{fill:none;}
	.st1{fill:#F9EE91;}
	.st2{fill:#802183;}
	.st3{fill:#DFC805;stroke:#F9EE91;stroke-width:0.2673;}
</style>
<sodipodi:namedview
   bordercolor="#666666"
   borderopacity="1.0"
   fit-margin-bottom="0"
   fit-margin-left="0"
   fit-margin-right="0"
   fit-margin-top="0"
   id="base"
   inkscape:current-layer="layer1"
   inkscape:cx="157.64758"
   inkscape:cy="140.05835"
   inkscape:document-rotation="0"
   inkscape:document-units="mm"
   inkscape:pageopacity="0.0"
   inkscape:pageshadow="2"
   inkscape:window-height="998"
   inkscape:window-maximized="0"
   inkscape:window-width="2082"
   inkscape:window-x="184"
   inkscape:window-y="164"
   inkscape:zoom="0.70710678"
   pagecolor="#ffffff"
   showgrid="false">
	</sodipodi:namedview>
<g
   id="layer1"
   transform="translate(175.79254,47.742308)"
   inkscape:groupmode="layer"
   inkscape:label="Ebene 1">
	<path
   id="path956"
   class="st0"
   d="m 209.3,55.4 c -1.9,-0.2 -3.5,1 -5.3,1.6 -3.5,1.2 -7.1,2.2 -10.6,3.6 -5.2,2.1 -10.7,3.7 -15.8,6.1 -6.8,3.2 -13.4,6.8 -20,10.4 -18.2,10.1 -34.7,23 -49.9,37.1 -6,5.6 -10.8,12.1 -16.2,18.2 -15.1,16.6 -26.3,35.4 -36.2,55.5 -4.3,8.6 -8.2,17.5 -11.2,26.7 -4.8,14.9 -9,30.2 -10.8,45.8 -0.6,4.9 -1.5,10.1 -1.5,15.1 0,2.6 0.6,6.9 -0.7,9.1 v 0.2 1.9 c 0.6,0.7 0,1.5 0,2.4 -0.1,2.1 -0.4,4.7 0.1,6.7 0.7,3.3 0.4,6.3 0.6,9.6 0.2,3.6 1.1,7 1.5,10.6 0.5,4.7 0.6,9.5 1.8,14.2 2,7.8 3.5,15.5 5.8,23.3 6.6,21.8 17.9,43.5 31.3,61.9 31.4,43.4 80.2,72.2 131.4,86.1 13.3,3.6 27.4,5.3 41,6.8 1.2,0.1 2.4,-0.3 3.6,-0.2 2.4,0.3 5,0.9 7.4,0.9 2,0 4.4,-0.5 6.2,0.5 2.6,-1.6 6.3,-0.8 9.1,-0.9 5.4,-0.1 11,-0.5 16.3,-1.1 5.7,-0.6 11.7,-0.9 17.3,-2.1 6.4,-1.4 12.8,-2.9 19.1,-4.7 0.9,-0.3 1.6,-0.9 2.5,-1.2 4.9,-1.2 9.6,-2.7 14.4,-4.3 0.9,-0.3 1.9,-0.1 2.8,-0.4 27,-10.8 50.5,-26.9 72.8,-45.5 7.1,-5.9 12.8,-13.4 19.5,-19.7 1.5,-1.4 2.5,-4.4 4.2,-5.4 v -1 c -3.7,-0.7 -6.9,4 -9.9,5.7 -8.7,4.9 -16.7,11.1 -26.4,14.1 -6.7,2.1 -13.4,4.4 -20.1,6.3 -2.8,0.8 -6,1 -8.8,1.7 -1.4,0.3 -2.9,1.2 -4.3,1.4 -1,0.1 -1.9,-0.4 -2.9,-0.3 -4.7,0.4 -9.4,0.5 -14.2,0.5 -9.1,0 -18.3,0 -27.1,-1.7 -3.8,-0.7 -7.5,-2.1 -11.3,-3 -3,-0.7 -6.4,-1.2 -9.3,-2.3 -16.6,-6 -32.9,-13.6 -47.9,-22.9 -2,-1.2 -3.6,-3 -5.5,-4.4 -10.9,-7.7 -20.7,-16.2 -30.1,-25.7 -4.2,-4.2 -8.4,-8.2 -12.4,-12.5 -10.2,-11.1 -18.6,-24.3 -26.6,-37 -6.5,-10.3 -11.1,-22.3 -15.6,-33.6 -4.1,-10.3 -8.2,-20.9 -10.8,-31.7 -2.7,-11.2 -4.1,-22.7 -5.4,-34.3 -0.9,-7.2 -1.8,-14.3 -2,-21.6 -0.1,-2.9 0.5,-5.9 0.6,-8.9 0.8,-34.8 9.8,-68.6 27,-99.1 9.2,-16.4 22.3,-30 36.6,-41.9 5.1,-4.2 10.5,-8.7 16.2,-12.1 4.7,-2.9 9.7,-5.8 14.8,-7.9 3.7,-1.5 8.4,-2.8 11.5,-5.3 l -0.2,-1.2 c -11.1,0 -22.6,3.7 -33.4,5.9 -3.1,0.6 -6.1,1.4 -9.1,2.3 -1.2,0.5 -3.1,0.8 -3.9,1.7 m 25.4,217.5 c 0,0.7 -0.2,1.7 0.4,2.3 0.7,0.7 2.5,1 3.5,1.4 3,1.3 6,2.5 9.1,3.6 4.1,1.4 8,3.3 12,4.9 6.4,2.6 13.1,4.7 19.4,7.4 2.6,1.1 5.3,1.9 7.9,3 1.9,0.9 4.2,2.4 6.3,2.2 0.7,1.1 2.4,1.1 3.1,2.2 1.8,2.8 1.7,7.3 3,10.5 4.6,11 7.8,22.9 11.3,34.3 1,3.3 2.1,6.7 3.4,9.8 0.9,2.2 2.2,4.8 2.2,7.2 2.2,-0.1 3.5,-2.2 4.7,-3.8 2,-2.8 4.6,-5.5 6.9,-8.1 7.6,-8.7 14.6,-17.9 22.1,-26.7 3.1,-3.7 5.9,-8.5 9.6,-11.6 1.9,-1.6 7.5,-0.6 10,-0.6 h 27.1 c 7.3,0 14.6,-0.3 21.8,0 1.3,0.1 6.4,0.8 6.9,-0.8 0.5,-1.8 -1.2,-4 -2.2,-5.3 -2.2,-3 -4,-6.5 -6.1,-9.6 -6.4,-9.9 -13.1,-20 -19.1,-30.2 -1.6,-2.7 -3.5,-5.4 -5.1,-8.2 -0.6,-1 -1.6,-1.9 -1.7,-3.1 -0.1,-3.7 2.6,-8.4 3.6,-12 3.1,-11.9 7.7,-23.4 11.3,-35.2 1.2,-3.9 2.6,-7.8 3.5,-11.8 0.3,-1.2 1.5,-2.8 0.4,-3.9 -1.1,-1.1 -4.8,0.5 -6.1,0.9 -5.7,1.8 -11.6,2.6 -17.3,4.5 -3.4,1.2 -6.9,1.7 -10.3,2.4 -2.7,0.6 -5.3,1.8 -7.9,2.5 -3.3,0.8 -6.6,1.3 -9.8,2.1 -3,0.8 -5.9,1.7 -8.9,2.4 -1.1,0.2 -2.7,0.9 -3.8,0.7 -1.3,-0.2 -2.6,-1.5 -3.6,-2.3 -2.6,-1.9 -5.2,-3.9 -7.7,-5.7 -2.4,-1.8 -7.2,-3.5 -8.6,-6.2 -2.7,-0.6 -5.5,-3.6 -7.7,-5.3 -5.5,-4 -11.2,-7.8 -16.5,-11.9 -2.2,-1.7 -4.5,-3.4 -6.8,-4.8 -0.8,-0.5 -1.6,-1.4 -2.6,-1.2 -1.3,0.3 -1.4,2.5 -1.5,3.5 -0.2,3.2 0.3,7.2 -0.5,10.3 -0.9,3.5 0.1,7.4 -0.3,11 -1,9.7 -1.6,19.5 -2.4,29.3 -0.2,2.8 0.2,5.6 -0.1,8.4 -0.5,5.3 -7.6,8.5 -11.5,11.5 -8.9,6.8 -18.1,13.2 -27.1,19.8 -2.8,2.1 -5.7,4.1 -8.5,6.2 -1.4,1.4 -3.5,3.4 -5.8,4 z" />
	
	
	
		<path
   id="path1014"
   sodipodi:nodetypes="csscscssssscssscssccssccccscsssscsscscssssssssssssssscssssssssssssssssssscssssscssssscssssssssscssssssssssscssssssscssscsssssscsssssssssscsscsssssssssssssssssssscscsssssssssssssssscsssssssssssccssssssssssssssssssssssssssssssssssssscscssssssssssssssssssssssssssssssssssssssssssssssssssssssccssssssssssssssscscssscssscssssssssssssssssssssssssssssssssssssssssssssssssssssssssssssssssscscscsssssssscscssssscscsscssscssscsscscscssssscsssssssssssssscssssssssssssssscscscssssssssssssssssssssssssssssssssssssscssssssscssssscsssscssssssscsscsscccsccsssscscsssssccsscssscsssssssscscsscsssssssssssssssssssssssssssssssssscssssssssssscscsssscscsssscccsssssscsssscccsssccccssssccssccscsssssscsscsssssscsscssssssssssssssssssssssssssssscsssssssssssssscsssssssssscsscsssssssssssccsscsscsscscsscsccscsscscssssssssssccsssssssscccssssssssssssssssssscsssssssssssssssssscsscssssssssssssssccsscscssssscssssssccssssssssscsssssssssssscssssssscscssssssscscsssssscssssssssssssssssssssssssssssssssssssssssssssssssssssssssscssssssssssssssssssssssssssscsssssssssssssssssssssssssssssssssssssssssssssssssssssssssssssssscssssssscssscscscsssssssssssscssscssscsccsscscsssssssssscsssscsssscsscssssssssssssssssssssssscsssssssssssssscsssssssscsssssssssssscssssscsccssssssssscscssscsssssssssssssssccsscc"
   class="st0"
   d="m 295.7,483 c -0.1,-0.1 -2.4,-0.2 -5.2,-0.2 -6,0 -16.1,-0.3 -16.4,-0.5 -0.1,-0.1 -1.5,-0.2 -3,-0.2 -1.5,-0.1 -3.1,-0.2 -3.4,-0.3 -0.3,-0.1 -1.1,-0.2 -1.8,-0.2 -1.7,-0.1 -7.7,-0.7 -12.6,-1.4 -3,-0.4 -4.7,-0.7 -6.6,-1.1 -0.7,-0.1 -1.5,-0.3 -1.9,-0.4 -0.4,-0.1 -2.2,-0.4 -4,-0.8 -1.8,-0.4 -3.8,-0.8 -4.4,-1 -1.5,-0.3 -2.9,-0.6 -3.8,-1 -0.7,-0.3 -2.2,-0.6 -3.7,-0.8 -0.4,-0.1 -0.8,-0.2 -0.9,-0.3 -0.1,-0.1 -0.4,-0.2 -0.7,-0.2 -0.3,0 -1.2,-0.3 -2.1,-0.6 -0.8,-0.3 -1.8,-0.6 -2,-0.6 -0.3,0 -1.5,-0.3 -2.7,-0.7 -1.2,-0.4 -2.5,-0.8 -3,-0.9 -0.5,-0.1 -1.1,-0.3 -1.4,-0.4 -0.3,-0.1 -1.2,-0.4 -2,-0.7 -0.8,-0.2 -2.1,-0.7 -3,-1.1 -0.8,-0.4 -1.6,-0.7 -1.8,-0.7 -0.2,0 -0.8,-0.3 -1.5,-0.6 -0.7,-0.3 -1.4,-0.6 -1.6,-0.6 -0.2,0 -0.5,-0.1 -0.6,-0.2 -0.1,-0.1 -0.4,-0.2 -0.6,-0.2 -0.2,0 -0.7,-0.1 -0.9,-0.2 -1.1,-0.6 -3.3,-1.5 -4.4,-1.8 -1.6,-0.5 -3.8,-1.5 -3.8,-1.8 0,-0.1 -0.2,-0.2 -0.5,-0.2 -0.3,0 -1.2,-0.4 -2.1,-0.8 -0.9,-0.5 -1.8,-0.8 -2.1,-0.8 -0.2,0 -0.5,-0.2 -0.6,-0.4 -0.1,-0.2 -0.3,-0.4 -0.5,-0.4 -0.3,0 -2.6,-1.1 -4.3,-2 -0.3,-0.1 -1,-0.5 -1.7,-0.8 -1.2,-0.6 -3.4,-1.7 -4.7,-2.4 -0.4,-0.2 -0.7,-0.4 -0.7,-0.5 0,-0.1 -0.4,-0.3 -0.9,-0.5 -1.1,-0.4 -2.9,-1.6 -2.9,-1.9 0,-0.1 -0.3,-0.2 -0.7,-0.2 -0.4,0 -0.8,-0.1 -0.9,-0.3 -0.1,-0.2 -0.6,-0.5 -1.2,-0.8 -0.5,-0.2 -1.7,-0.9 -2.6,-1.5 -0.9,-0.6 -1.7,-1 -1.9,-1 -0.2,0 -0.5,-0.3 -0.8,-0.7 -0.3,-0.4 -0.7,-0.7 -0.9,-0.7 -0.2,0 -0.6,-0.3 -0.9,-0.6 -0.3,-0.3 -0.7,-0.6 -0.9,-0.6 -0.2,0 -0.5,-0.2 -0.7,-0.5 -0.2,-0.3 -0.7,-0.5 -1,-0.5 -0.4,0 -1,-0.4 -1.7,-1.1 -0.6,-0.6 -1.3,-1.1 -1.4,-1.1 -0.2,0 -0.6,-0.3 -1,-0.7 -0.4,-0.4 -0.9,-0.7 -1,-0.7 -0.1,0 -0.5,-0.4 -0.8,-0.8 -0.3,-0.4 -1,-0.9 -1.3,-1.1 -0.4,-0.2 -0.8,-0.5 -0.8,-0.7 -0.1,-0.2 -0.3,-0.4 -0.5,-0.4 -0.2,0 -0.6,-0.3 -1,-0.6 -0.4,-0.4 -1.1,-0.9 -1.7,-1.2 -0.9,-0.5 -1.5,-1 -3.3,-2.7 -0.3,-0.3 -0.7,-0.5 -0.8,-0.5 -0.1,0 -0.6,-0.5 -1.1,-1.1 -0.5,-0.6 -1,-1.1 -1.2,-1.1 -0.2,0 -0.5,-0.3 -0.8,-0.7 -0.3,-0.4 -0.7,-0.8 -1,-0.9 -0.2,-0.1 -0.4,-0.3 -0.4,-0.4 0,-0.2 -0.5,-0.6 -1.1,-1 -0.6,-0.4 -1.1,-0.8 -1.1,-1 0,-0.2 -0.4,-0.5 -0.9,-0.7 -0.5,-0.2 -1.1,-0.7 -1.4,-1.1 -0.3,-0.4 -0.6,-0.7 -0.8,-0.7 -0.1,0 -1.6,-1.4 -3.1,-3 -1.6,-1.7 -4.1,-4.3 -5.7,-5.8 -1.5,-1.5 -3,-3.1 -3.2,-3.5 -0.2,-0.4 -0.7,-0.9 -1.1,-1.2 -0.4,-0.3 -0.8,-0.7 -0.9,-0.9 -0.1,-0.2 -0.3,-0.5 -0.5,-0.5 -0.2,-0.1 -0.4,-0.3 -0.4,-0.5 0,-0.2 -0.5,-0.7 -1,-1.2 -0.6,-0.5 -1.2,-1.3 -1.5,-1.8 -0.3,-0.5 -0.8,-1.3 -1.3,-1.7 -0.4,-0.4 -0.8,-0.9 -0.8,-1.1 0,-0.2 -0.2,-0.4 -0.4,-0.5 -0.2,-0.1 -0.4,-0.3 -0.4,-0.5 0,-0.2 -0.4,-0.7 -0.8,-1.2 -0.5,-0.5 -0.8,-0.9 -0.8,-1 0,-0.1 -0.5,-0.8 -1.4,-1.7 -0.3,-0.3 -0.5,-0.7 -0.5,-1 0,-0.3 -0.1,-0.4 -0.2,-0.4 -0.1,0 -0.4,-0.4 -0.7,-0.8 -0.8,-1.3 -1.1,-1.7 -1.6,-2.2 -0.3,-0.3 -0.7,-1 -1,-1.5 -0.3,-0.5 -0.6,-1 -0.8,-1.1 -0.2,-0.1 -0.3,-0.3 -0.3,-0.4 0,-0.1 -0.5,-1.1 -1.2,-2.1 -0.7,-1 -1.2,-2 -1.2,-2.1 0,-0.2 -0.1,-0.3 -0.2,-0.3 -0.1,0 -0.3,-0.2 -0.4,-0.4 -0.1,-0.2 -0.5,-0.9 -0.8,-1.4 -0.4,-0.5 -0.8,-1.3 -0.9,-1.6 -0.4,-0.9 -2.5,-4.7 -2.8,-5 -0.4,-0.5 -2.7,-5.1 -2.7,-5.4 0,-0.2 -0.1,-0.3 -0.2,-0.3 -0.2,0 -1.9,-3.3 -1.9,-3.8 0,-0.1 -0.2,-0.3 -0.4,-0.4 -0.2,-0.1 -0.4,-0.3 -0.4,-0.5 0,-0.2 -0.3,-0.8 -0.6,-1.4 -0.3,-0.6 -0.7,-1.3 -0.9,-1.7 -0.1,-0.3 -0.4,-0.9 -0.6,-1.3 -0.2,-0.4 -0.4,-1.1 -0.5,-1.5 -0.1,-0.4 -0.6,-1.6 -1.1,-2.6 -1.7,-3.4 -2.6,-5.4 -2.7,-6.4 -0.1,-0.5 -0.3,-1.1 -0.4,-1.3 -0.8,-1.5 -1.2,-2.5 -1.3,-3.3 -0.1,-0.6 -0.3,-1.1 -0.4,-1.1 -0.1,-0.1 -0.2,-0.5 -0.2,-0.9 0,-0.4 -0.1,-0.9 -0.3,-0.9 -0.3,-0.1 -0.7,-1.2 -2.2,-6.5 -0.2,-0.7 -0.3,-1.5 -0.2,-2 0.1,-0.5 0.1,-0.9 -0.1,-1 -0.5,-0.3 -1,-1.9 -1.1,-3.3 -0.1,-0.8 -0.3,-1.4 -0.6,-1.7 -0.3,-0.3 -0.5,-0.8 -0.5,-1.6 0,-0.6 -0.1,-1.4 -0.3,-1.6 -0.2,-0.3 -0.4,-1.1 -0.5,-1.8 -0.1,-0.7 -0.3,-1.6 -0.5,-2 -0.2,-0.4 -0.4,-1.3 -0.5,-1.9 -0.1,-0.7 -0.3,-1.8 -0.4,-2.6 -0.3,-1.6 -0.7,-5.1 -0.8,-6.2 0,-0.4 -0.2,-1 -0.3,-1.2 -0.2,-0.3 -0.3,-0.9 -0.3,-1.4 0,-0.5 -0.1,-1.3 -0.2,-1.9 -0.1,-0.6 -0.4,-1.6 -0.5,-2.3 -0.2,-0.7 -0.4,-3.3 -0.5,-5.7 -0.3,-5.7 -0.3,-6.1 -0.6,-6.3 -0.1,-0.1 -0.3,-3.5 -0.3,-7.9 0,-4.2 -0.1,-8 -0.2,-8.3 -0.1,-0.3 0,-0.7 0.1,-0.8 0.1,-0.1 0.3,-2.3 0.4,-5.5 0.1,-3 0.3,-6.5 0.5,-7.9 0.2,-1.4 0.5,-4.1 0.6,-6 0.1,-1.9 0.4,-4.5 0.6,-5.7 0.2,-1.3 0.4,-3 0.5,-3.8 0.1,-1.5 1,-5.8 1.4,-6.8 0.2,-0.5 0.3,-1.2 0.7,-4.8 0.1,-0.9 0.3,-2.1 0.5,-2.5 0.6,-1.5 0.7,-1.8 0.8,-3.1 0,-0.7 0.2,-1.5 0.4,-1.8 0.2,-0.3 0.4,-1.3 0.5,-2.2 0.1,-1.1 0.3,-2 0.6,-2.7 0.3,-0.7 0.6,-1.6 0.6,-2.5 0,-0.8 0.2,-1.5 0.3,-1.7 0.1,-0.2 0.3,-0.6 0.3,-0.9 0,-0.3 0.2,-1 0.5,-1.6 0.3,-0.5 0.5,-1.1 0.5,-1.4 0,-0.2 0.1,-0.5 0.2,-0.6 0.1,-0.1 0.2,-0.6 0.2,-1 0,-0.5 0.2,-1.1 0.4,-1.4 0.2,-0.3 0.4,-0.8 0.4,-1.2 0,-0.4 0.2,-0.9 0.4,-1.2 0.2,-0.3 0.4,-0.8 0.4,-1.1 0,-0.4 0.2,-1 0.4,-1.4 0.7,-1.5 0.8,-1.6 0.8,-2.1 0,-0.3 0.2,-0.8 0.3,-1.3 0.1,-0.5 0.4,-1 0.5,-1.4 0.2,-1 1.2,-3.7 1.9,-4.8 0.1,-0.2 0.2,-0.7 0.2,-1 0,-0.3 0.1,-0.7 0.2,-0.8 0.1,-0.1 0.5,-1 0.9,-2 0.4,-1 0.8,-1.9 1,-2 0.2,-0.1 0.4,-0.7 0.6,-1.3 0.2,-0.6 0.4,-1.2 0.5,-1.3 0.1,-0.1 0.2,-0.4 0.2,-0.6 0,-0.2 0.2,-0.8 0.4,-1.2 0.2,-0.5 0.5,-1.1 0.6,-1.4 0.1,-0.3 0.4,-1 0.8,-1.5 0.3,-0.5 0.6,-1.1 0.6,-1.3 0,-0.2 0.2,-0.7 0.3,-1 0.6,-1.1 2.2,-4.6 2.8,-6 0.9,-2.3 3.6,-7.8 4.8,-9.9 0.4,-0.7 0.9,-1.5 1.1,-2 0.2,-0.4 0.5,-0.8 0.6,-0.8 0.1,0 0.4,-0.4 0.5,-1 0.2,-0.5 0.4,-1 0.5,-1 0.1,0 0.3,-0.4 0.5,-0.8 0.2,-0.4 0.9,-1.6 1.6,-2.6 0.7,-1 1.3,-2.1 1.3,-2.3 0,-0.2 0.2,-0.7 0.4,-1 0.2,-0.3 0.5,-0.8 0.6,-1.2 0.3,-0.9 1.2,-2.2 1.5,-2.2 0.2,0 0.3,-0.1 0.3,-0.3 0,-0.2 0.4,-1 1,-1.8 0.5,-0.8 1,-1.6 1,-1.7 0,-0.1 0.4,-0.5 0.8,-0.9 0.5,-0.4 1.2,-1.4 1.7,-2.4 0.5,-1 1.2,-2.1 1.5,-2.5 0.4,-0.4 0.9,-1.2 1.2,-1.8 0.3,-0.6 0.9,-1.4 1.3,-1.7 0.4,-0.3 0.9,-0.9 0.9,-1.3 0.1,-0.4 0.6,-1.1 1.1,-1.7 0.5,-0.6 1.2,-1.5 1.6,-2.1 0.3,-0.6 0.8,-1.3 1.2,-1.6 0.3,-0.3 0.6,-0.7 0.6,-0.8 0,-0.1 0.5,-0.8 1.2,-1.5 0.7,-0.7 1.6,-1.9 2.1,-2.7 0.5,-0.8 1.2,-1.6 1.8,-2 0.5,-0.3 0.9,-0.7 0.9,-0.8 0,-0.1 0.4,-0.6 0.8,-1.1 0.5,-0.5 1.1,-1.5 1.4,-2.2 0.4,-0.8 0.9,-1.3 1.3,-1.5 0.4,-0.2 0.7,-0.4 0.7,-0.5 0,-0.2 0.7,-1.1 1.6,-2.1 0.3,-0.3 0.5,-0.7 0.5,-0.9 0,-0.2 0.2,-0.4 0.4,-0.5 0.2,-0.1 0.4,-0.3 0.4,-0.5 0,-0.2 0.4,-0.6 1,-1 0.5,-0.4 1,-0.8 1,-1 0,-0.2 0.3,-0.5 0.6,-0.7 0.3,-0.2 0.6,-0.5 0.6,-0.7 0,-0.2 0.1,-0.3 0.2,-0.3 0.1,0 0.4,-0.3 0.5,-0.6 0.2,-0.3 0.3,-0.6 0.4,-0.6 0.3,0 3,-2.8 3.4,-3.5 0.2,-0.4 0.6,-0.8 0.9,-1 0.3,-0.1 0.8,-0.6 1.1,-1 0.4,-0.4 0.8,-0.8 0.9,-0.8 0.3,0 2.3,-2.1 2.3,-2.4 0,-0.1 0.5,-0.5 1.1,-0.9 0.6,-0.4 1.1,-0.8 1.1,-0.9 0,-0.2 0.7,-0.9 1.8,-2.1 1.4,-1.4 2.3,-2.1 2.4,-2.1 0.1,0 0.4,-0.3 0.6,-0.7 0.2,-0.4 1,-1 1.7,-1.4 0.7,-0.4 1.7,-1.2 2.3,-1.8 0.6,-0.6 1.2,-1.2 1.5,-1.2 0.2,0 0.5,-0.1 0.5,-0.2 0,-0.3 1.5,-2 1.8,-2 0.1,0 0.4,-0.3 0.6,-0.6 0.2,-0.3 0.6,-0.7 0.9,-0.7 0.3,-0.1 0.9,-0.6 1.4,-1.1 0.5,-0.5 1.1,-0.9 1.3,-0.9 0.2,0 0.4,-0.2 0.5,-0.4 0.1,-0.2 0.4,-0.4 0.6,-0.4 0.3,0 0.7,-0.3 1,-0.7 0.3,-0.4 0.7,-0.7 0.9,-0.7 0.2,0 0.3,-0.1 0.3,-0.2 0,-0.1 0.6,-0.7 1.4,-1.2 0.8,-0.6 1.4,-1.1 1.4,-1.2 0,-0.1 0.1,-0.2 0.3,-0.2 0.2,0 0.4,-0.2 0.6,-0.5 0.2,-0.3 0.5,-0.5 0.7,-0.5 0.2,0 0.4,-0.1 0.4,-0.3 0,-0.2 0.4,-0.4 0.8,-0.6 0.4,-0.2 0.9,-0.6 1.1,-0.8 0.2,-0.3 0.5,-0.5 0.8,-0.5 0.3,0 0.5,-0.1 0.5,-0.3 0,-0.1 0.4,-0.4 0.8,-0.6 0.5,-0.2 1.3,-0.8 1.8,-1.3 0.5,-0.5 1.2,-1 1.4,-1.1 0.3,-0.1 0.8,-0.4 1.1,-0.7 0.6,-0.6 3,-1.8 3.5,-1.8 0.2,0 0.5,-0.3 0.8,-0.7 0.3,-0.4 0.7,-0.7 0.9,-0.7 0.2,0 0.5,-0.2 0.6,-0.5 0.1,-0.3 0.5,-0.6 0.9,-0.8 4.4,-2.3 5.5,-2.9 5.6,-3.2 0.1,-0.2 0.5,-0.4 0.9,-0.5 0.4,-0.1 0.7,-0.3 0.7,-0.4 0,-0.1 0.6,-0.5 1.3,-0.8 0.7,-0.3 1.3,-0.7 1.3,-0.8 0,-0.1 0.2,-0.2 0.5,-0.2 0.5,0 3.8,-1.6 4.2,-2.1 0.5,-0.6 2.7,-1.8 3.3,-1.8 0.4,0 0.7,-0.2 0.8,-0.4 0.1,-0.2 0.4,-0.4 0.6,-0.4 0.7,0 1.7,-0.5 2.3,-1.1 0.3,-0.3 0.8,-0.5 1,-0.5 0.3,0 0.6,-0.1 0.8,-0.3 0.7,-0.7 1.5,-1.1 2.1,-1.1 0.4,0 0.7,-0.2 0.8,-0.4 0.1,-0.2 0.5,-0.4 1.1,-0.4 0.5,0 1,-0.1 1,-0.2 0,-0.1 0.4,-0.4 0.8,-0.6 0.4,-0.2 1.2,-0.6 1.8,-0.9 0.5,-0.3 1.4,-0.7 1.9,-0.8 0.5,-0.1 1,-0.3 1.1,-0.4 0.1,-0.1 0.5,-0.2 0.9,-0.3 0.4,0 1.1,-0.3 1.4,-0.6 0.3,-0.3 1,-0.7 1.6,-0.8 0.5,-0.1 1.3,-0.4 1.7,-0.6 0.4,-0.2 0.8,-0.3 0.9,-0.3 0.1,0 0.8,-0.3 1.7,-0.7 0.9,-0.4 1.8,-0.7 2.1,-0.7 0.3,0 1.1,-0.3 1.7,-0.6 1.2,-0.6 2.4,-0.9 5.8,-1.4 1,-0.1 2.1,-0.4 2.5,-0.6 1,-0.5 2.6,0 2.6,0.8 0,0.4 -0.2,0.6 -0.5,0.7 -0.3,0.1 -1.1,0.4 -1.8,0.8 -0.7,0.4 -1.4,0.7 -1.6,0.7 -0.2,0 -0.5,0.1 -0.8,0.2 -1.7,0.9 -5.2,2.4 -5.7,2.4 -0.3,0 -0.8,0.2 -1,0.5 -0.2,0.3 -0.6,0.5 -0.7,0.5 -0.2,0 -0.4,0.2 -0.5,0.4 -0.1,0.2 -0.5,0.4 -1,0.4 -0.6,0 -1,0.2 -1.4,0.6 -0.3,0.3 -1.1,0.8 -1.8,1.1 -1.6,0.6 -2.7,1.2 -2.9,1.6 -0.1,0.2 -0.4,0.3 -0.6,0.3 -0.2,0 -0.5,0.2 -0.7,0.4 -0.2,0.2 -0.6,0.5 -0.9,0.6 -0.4,0.1 -0.8,0.4 -1,0.6 -0.2,0.3 -1,0.7 -1.7,0.9 -0.8,0.3 -1.7,0.9 -2.4,1.6 -0.6,0.6 -1.7,1.4 -2.5,1.8 -0.7,0.4 -1.6,0.9 -1.9,1.3 -0.3,0.3 -0.6,0.6 -0.7,0.6 -0.1,0 -0.5,0.2 -0.8,0.5 -0.3,0.3 -1,0.8 -1.5,1 -0.5,0.3 -1.2,0.7 -1.5,1.1 -1.3,1.2 -1.9,1.7 -2.1,1.7 -0.2,0 -0.7,0.4 -1.2,1 -0.5,0.5 -1,1 -1.2,1 -0.2,0 -0.4,0.3 -0.7,0.6 -0.2,0.3 -0.5,0.6 -0.7,0.6 -0.2,0 -0.4,0.2 -0.6,0.5 -0.2,0.3 -0.4,0.5 -0.5,0.5 -0.3,0 -1.2,0.8 -2.3,1.9 -0.4,0.4 -0.8,0.8 -0.9,0.8 -0.1,0 -0.5,0.4 -1,0.8 -0.5,0.5 -1.1,0.8 -1.2,0.8 -0.1,0 -0.3,0.1 -0.3,0.2 0,0.3 -1.7,2 -2.1,2.2 -0.5,0.2 -5.6,5 -6.2,5.8 -0.3,0.5 -0.9,1.1 -1.2,1.3 -0.3,0.2 -0.6,0.5 -0.6,0.7 0,0.2 -0.2,0.5 -0.5,0.6 -0.3,0.2 -0.5,0.4 -0.5,0.6 0,0.2 -0.6,0.8 -1.3,1.4 -0.7,0.6 -1.3,1.3 -1.3,1.5 0,0.2 -0.5,0.8 -1,1.3 -0.5,0.5 -1.2,1.3 -1.4,1.7 -0.2,0.4 -0.8,1 -1.3,1.4 -0.5,0.4 -0.9,0.9 -0.9,1 0,0.1 -0.3,0.5 -0.6,0.8 -0.3,0.3 -0.6,0.6 -0.6,0.9 0,0.2 -0.2,0.5 -0.3,0.5 -0.2,0.1 -0.5,0.5 -0.6,0.9 -0.1,0.4 -0.7,1.2 -1.2,1.8 -0.5,0.6 -1,1.1 -1,1.3 0,0.1 -0.2,0.2 -0.4,0.2 -0.2,0 -0.5,0.3 -0.6,0.7 -0.1,0.4 -0.4,0.8 -0.5,0.9 -0.1,0.1 -0.5,0.7 -0.8,1.2 -0.9,1.7 -3.4,5.7 -4.1,6.4 -0.3,0.3 -0.6,0.7 -0.6,0.8 0,0.3 -2,4.1 -4.2,8 -0.9,1.6 -3.5,6.8 -3.9,7.9 -0.2,0.6 -0.8,1.9 -1.3,3 -0.5,1.1 -1.1,2.5 -1.4,3.1 -0.3,0.7 -0.6,1.4 -0.7,1.7 -0.1,0.3 -0.4,1.1 -0.7,1.8 -0.3,0.7 -0.7,1.6 -0.8,2 -0.2,0.4 -0.4,1 -0.4,1.3 -0.1,0.6 -0.5,1.8 -1,3 -0.2,0.4 -0.5,1.4 -0.7,2.2 -0.2,0.8 -0.6,1.6 -0.7,1.9 -0.2,0.3 -0.3,0.8 -0.3,1.1 0,0.3 -0.2,0.8 -0.4,0.9 -0.2,0.2 -0.4,0.6 -0.4,0.9 0,0.3 -0.1,0.8 -0.3,1.1 -0.2,0.3 -0.4,0.8 -0.5,1.2 -0.3,1.4 -0.9,2.6 -1.2,2.7 -0.1,0 -0.3,0.6 -0.3,1.3 0,0.7 -0.1,1.4 -0.3,1.5 -0.1,0.1 -0.3,0.9 -0.4,1.8 -0.1,0.8 -0.3,1.7 -0.5,2 -0.2,0.3 -0.3,0.7 -0.3,1.1 0,0.3 -0.2,0.9 -0.4,1.2 -0.2,0.3 -0.3,0.8 -0.4,1.1 0,0.3 -0.2,0.8 -0.4,1.2 -0.2,0.4 -0.4,0.9 -0.4,1.2 0,0.6 -0.7,3.5 -1,4.5 -0.1,0.4 -0.3,1.4 -0.4,2.3 -0.1,0.9 -0.6,3.7 -1.1,6.2 -0.5,2.6 -1,6.3 -1.2,8.4 -0.2,2 -0.5,4.8 -0.6,6.1 -0.2,1.3 -0.3,3.5 -0.4,4.8 -0.3,9.5 -0.6,16.1 -0.8,17.9 -0.1,1.2 -0.2,2.3 0,2.5 0.3,0.5 0.8,7.2 0.9,11 0,1.8 0.2,3.5 0.3,3.9 0.2,0.4 0.3,1 0.3,1.4 0,0.4 0.1,1.9 0.3,3.4 0.8,5.6 0.9,7 1,9.6 0.1,1.8 0.2,2.8 0.5,3.2 0.2,0.3 0.3,1 0.3,1.7 0,0.8 0.1,1.4 0.3,1.8 0.2,0.3 0.4,1.1 0.4,1.8 0,0.7 0.2,1.5 0.4,1.8 0.2,0.3 0.3,1.1 0.4,1.7 0,0.6 0.2,1.5 0.4,1.8 0.2,0.4 0.3,1.2 0.3,1.9 0,0.7 0.1,1.3 0.1,1.5 0.3,0.5 0.9,3.2 0.7,3.6 -0.1,0.3 0,0.6 0.1,0.7 0.4,0.5 0.8,2.5 0.7,3.1 -0.1,0.3 -0.1,0.6 0,0.7 0.3,0.3 1,2.7 1,3.5 0,0.5 0.2,1 0.4,1.3 0.2,0.2 0.4,0.9 0.5,1.4 0.1,0.5 0.3,1 0.4,1.1 0.1,0.1 0.2,0.5 0.2,0.9 0,0.4 0.2,1 0.4,1.2 0.2,0.3 0.4,0.7 0.4,1.1 0,0.3 0.2,0.9 0.4,1.2 0.2,0.3 0.4,0.9 0.4,1.2 0,0.3 0.2,1 0.5,1.6 0.3,0.5 0.5,1.1 0.5,1.3 0,0.2 0.1,0.5 0.2,0.7 0.2,0.5 0.6,1.5 1.3,3.6 0.3,0.9 0.6,1.9 0.8,2.2 0.2,0.4 0.3,0.9 0.3,1.1 0,0.2 0.2,0.6 0.4,0.9 0.2,0.3 0.4,0.6 0.4,0.8 0,0.3 2,5.6 2.6,6.9 0.1,0.3 0.5,1.2 0.7,2 0.3,0.9 0.8,2.1 1.1,2.9 0.3,0.7 0.8,2 1.2,2.8 0.3,0.8 1.3,3.1 2.3,5 1,2 2.2,4.7 2.8,6 0.6,1.3 1.3,2.8 1.6,3.4 0.5,0.8 3.1,6 5.5,10.5 0.4,0.8 1,1.7 1.3,2 0.3,0.3 0.5,0.6 0.5,0.8 0,0.1 0.4,0.6 0.8,1.1 0.4,0.5 1,1.4 1.4,2 0.3,0.6 1,1.8 1.5,2.5 0.5,0.8 0.9,1.5 0.9,1.6 0,0.1 0.1,0.3 0.3,0.3 0.2,0.1 0.6,0.6 0.9,1.2 0.3,0.6 0.8,1.5 1.2,2.1 0.4,0.6 0.8,1.2 0.9,1.4 0.1,0.2 0.4,0.5 0.6,0.7 0.5,0.4 1.9,2.8 1.9,3.1 0,0.1 0.1,0.2 0.2,0.2 0.2,0 2.2,3 2.2,3.3 0,0.1 0.4,0.5 0.8,0.9 0.4,0.4 1,1.1 1.3,1.6 0.3,0.5 0.8,1.1 1.1,1.4 0.5,0.4 2.6,3.1 2.6,3.4 0,0.1 0.4,0.5 0.8,0.9 0.5,0.4 0.8,0.9 0.8,1 0,0.1 0.5,0.6 1.1,1.1 0.6,0.5 1.1,1 1.1,1.2 0,0.2 0.2,0.4 0.4,0.5 0.2,0.1 0.4,0.3 0.4,0.5 0,0.2 0.2,0.4 0.4,0.5 0.2,0.1 0.4,0.3 0.4,0.5 0,0.2 0.3,0.5 0.6,0.7 0.3,0.2 0.7,0.7 0.8,1 0.1,0.3 0.4,0.6 0.6,0.6 0.2,0 0.6,0.4 0.8,0.8 0.3,0.4 1.2,1.5 2.2,2.4 0.9,0.9 1.7,1.8 1.8,2.1 0.1,0.2 0.5,0.6 0.9,0.9 0.4,0.3 1,0.8 1.2,1.2 0.5,0.7 2.4,2.7 2.6,2.7 0.2,0 4.4,4.3 4.4,4.5 0,0.1 0.6,0.6 1.3,1.2 0.7,0.6 1.3,1.1 1.3,1.3 0,0.3 2.4,2.6 2.8,2.6 0.2,0 0.8,0.5 1.3,1.2 0.5,0.7 1.2,1.2 1.3,1.2 0.2,0 0.5,0.3 0.7,0.6 0.2,0.3 0.6,0.6 0.8,0.6 0.2,0 0.7,0.4 1.1,1 0.4,0.5 0.8,1 0.9,1 0.1,0 0.5,0.3 0.9,0.7 0.3,0.4 1.1,1.1 1.7,1.6 0.6,0.5 1.4,1.3 1.8,1.6 0.4,0.4 0.9,0.7 1.1,0.7 0.2,0 0.6,0.2 0.9,0.5 0.3,0.3 0.6,0.5 0.7,0.5 0.1,0 0.6,0.4 1,1 0.4,0.6 0.9,1 1.1,1 0.2,0 0.9,0.5 1.5,1.2 0.6,0.7 1.3,1.2 1.6,1.2 0.2,0 0.7,0.4 1.1,0.8 0.4,0.4 1.3,1 1.9,1.3 0.6,0.3 1.5,0.9 2,1.4 0.5,0.5 1.2,1 1.6,1.2 0.4,0.2 0.7,0.4 0.7,0.5 0,0.1 0.2,0.2 0.3,0.2 0.2,0 0.6,0.4 1,0.8 0.4,0.4 1.1,1 1.6,1.1 1.2,0.4 3.7,1.8 3.7,2.1 0,0.1 0.2,0.3 0.4,0.3 0.9,0.3 2.6,1.4 3.1,1.9 0.3,0.3 0.9,0.7 1.4,1 0.5,0.2 1.4,0.6 1.9,0.9 0.5,0.3 1,0.5 1.1,0.5 0.1,0 0.9,0.4 1.7,0.9 0.8,0.5 1.7,1 1.9,1.1 0.2,0.1 0.4,0.3 0.4,0.4 0,0.1 0.3,0.3 0.7,0.4 1,0.2 5.3,2.3 5.5,2.7 0.1,0.2 0.3,0.3 0.5,0.3 0.5,0 1.9,0.7 1.9,1 0,0.1 0.3,0.3 0.7,0.4 0.4,0.1 1,0.3 1.4,0.5 0.4,0.2 0.8,0.3 1,0.3 0.2,0 1.1,0.3 1.9,0.7 2.3,1.1 3.3,1.5 4.9,2.1 0.8,0.3 2,0.8 2.8,1.1 3.5,1.5 5.5,2.2 6.3,2.4 0.5,0.1 0.9,0.3 1,0.5 0.1,0.2 0.4,0.3 0.8,0.3 0.4,0 0.9,0.1 1.1,0.3 0.3,0.2 1.1,0.5 1.9,0.6 0.8,0.2 1.8,0.4 2.3,0.6 1.9,0.7 4,1.3 5.2,1.5 0.7,0.1 1.7,0.4 2.3,0.6 0.6,0.2 1.3,0.5 1.6,0.5 0.3,0 0.6,0.1 0.8,0.2 0.3,0.3 1.8,0.6 4.5,1.1 1.1,0.2 2.2,0.4 2.4,0.6 0.3,0.2 1.4,0.3 2.4,0.3 1,0 2.3,0.2 2.8,0.3 0.5,0.1 1,0.3 1.1,0.2 0.1,-0.1 1.2,0 2.5,0.1 3.2,0.3 5,0.5 5.3,0.4 1,0 1.7,0 5,0.2 5,0.3 21.2,0.1 22,-0.2 0.4,-0.2 1.1,-0.2 2.2,0 1.1,0.2 1.7,0.1 2.3,-0.1 1.3,-0.6 3.1,-1 4.7,-1.2 0.9,-0.1 1.7,-0.3 1.8,-0.5 0.2,-0.3 1.8,-0.6 4.9,-1.1 0.7,-0.1 1.6,-0.3 2,-0.4 1.8,-0.6 3.2,-1 3.6,-1 0.3,0 0.6,-0.1 0.8,-0.3 0.2,-0.2 0.9,-0.4 1.5,-0.5 0.7,-0.1 1.9,-0.4 2.6,-0.7 0.7,-0.3 2.3,-0.8 3.5,-1.2 1.2,-0.4 3.4,-1.1 4.9,-1.6 1.5,-0.5 3.2,-1.1 3.7,-1.3 1.1,-0.5 2.5,-1 4.4,-1.7 0.7,-0.2 1.5,-0.6 1.8,-0.8 0.3,-0.2 0.8,-0.4 1.1,-0.5 0.3,-0.1 1.3,-0.6 2.1,-1.2 0.9,-0.6 1.7,-1.1 1.8,-1.1 0.1,0 0.5,-0.2 0.9,-0.4 1.1,-0.8 3.8,-2.2 4.2,-2.2 0.2,0 0.4,-0.1 0.4,-0.2 0,-0.1 0.3,-0.4 0.7,-0.5 0.4,-0.2 0.7,-0.4 0.9,-0.6 0.1,-0.2 0.3,-0.3 0.5,-0.3 0.2,0 0.3,-0.1 0.3,-0.2 0,-0.3 2.5,-1.9 3.4,-2.2 0.4,-0.1 0.7,-0.4 0.8,-0.5 0.1,-0.2 0.5,-0.4 0.9,-0.5 0.4,-0.1 1,-0.4 1.2,-0.7 0.2,-0.3 0.6,-0.6 0.8,-0.6 0.2,0 0.5,-0.3 0.7,-0.6 0.2,-0.3 0.7,-0.7 1,-0.9 0.4,-0.2 1,-0.6 1.4,-0.9 0.4,-0.4 0.9,-0.7 1.2,-0.8 0.3,-0.1 0.8,-0.4 1.2,-0.7 0.4,-0.3 1,-0.6 1.4,-0.6 0.7,0 0.7,0 0.6,0.9 -0.1,0.5 -0.4,1 -0.8,1.4 -0.4,0.3 -0.9,0.8 -1.2,1.1 -0.3,0.3 -0.6,0.5 -0.8,0.5 -0.1,0 -0.4,0.2 -0.5,0.5 -0.1,0.3 -0.8,0.9 -1.5,1.4 -0.7,0.5 -1.6,1.2 -1.9,1.6 -0.4,0.3 -0.7,0.6 -0.8,0.6 -0.1,0 -0.4,0.3 -0.7,0.7 -0.3,0.4 -0.9,0.8 -1.3,1 -0.4,0.2 -0.9,0.6 -1.1,0.9 -0.2,0.3 -0.7,0.8 -1.2,1.1 -0.5,0.3 -1.2,0.8 -1.6,1.2 -0.4,0.4 -1.2,1 -1.7,1.4 -0.5,0.4 -1.1,0.9 -1.4,1.1 -0.8,0.7 -1.1,1 -1.4,1 -0.3,0 -0.5,0.2 -1.9,1.4 -0.4,0.4 -0.9,0.7 -1,0.7 -0.2,0 -0.5,0.2 -1.9,1.5 -0.2,0.2 -0.7,0.5 -1,0.6 -0.3,0.1 -0.8,0.5 -1.2,0.9 -0.4,0.4 -0.9,0.7 -1.1,0.7 -0.3,0 -0.9,0.4 -1.5,1 -0.5,0.5 -1.2,1 -1.4,1 -0.2,0 -0.5,0.2 -0.6,0.4 -0.1,0.2 -0.4,0.4 -0.6,0.4 -0.3,0 -0.5,0.1 -0.5,0.2 0,0.1 -0.3,0.4 -0.7,0.5 -0.4,0.2 -0.7,0.4 -0.9,0.6 -0.1,0.2 -0.4,0.3 -0.8,0.3 -0.3,0 -0.6,0.2 -0.7,0.4 -0.1,0.2 -0.3,0.4 -0.6,0.4 -0.3,0 -0.6,0.3 -0.9,0.6 -0.4,0.5 -1.1,1 -3.9,2.2 -0.4,0.2 -0.8,0.5 -0.9,0.7 -0.2,0.6 -1.6,1.3 -2.4,1.3 -0.5,0 -0.9,0.2 -1.3,0.7 -0.3,0.4 -0.9,0.8 -1.4,1 -0.5,0.2 -1.4,0.7 -2,1.1 -0.6,0.4 -1.3,0.8 -1.5,0.8 -0.4,0 -2,0.9 -2.3,1.2 -0.1,0.1 -0.6,0.4 -1.2,0.6 -0.6,0.2 -1.6,0.8 -2.3,1.2 -0.7,0.4 -1.5,0.8 -1.9,0.8 -0.4,0 -0.7,0.1 -0.7,0.2 0,0.1 -0.5,0.5 -1,0.8 -0.6,0.3 -1.3,0.7 -1.6,0.9 -0.3,0.2 -0.7,0.3 -0.9,0.3 -0.2,0 -0.3,0.1 -0.4,0.3 -0.1,0.2 -0.6,0.4 -1.5,0.4 -0.7,0.1 -1.4,0.3 -1.6,0.4 -0.2,0.3 -1.4,0.8 -2.8,1.2 -0.4,0.1 -1,0.3 -1.4,0.5 -0.4,0.2 -0.9,0.4 -1.2,0.5 -0.3,0.1 -1,0.4 -1.6,0.7 -0.6,0.3 -1.3,0.5 -1.5,0.5 -0.2,0 -0.8,0.2 -1.3,0.5 -0.5,0.3 -1.4,0.5 -1.9,0.6 -0.5,0 -1.4,0.3 -2,0.7 -1.2,0.7 -4.2,1.6 -5,1.6 -0.3,0 -0.6,0.1 -0.6,0.2 -0.1,0.1 -0.6,0.3 -1.2,0.5 -0.6,0.1 -1.4,0.4 -1.8,0.6 -0.5,0.2 -1.2,0.4 -1.6,0.4 -0.4,0 -1.1,0.2 -1.6,0.4 -1.1,0.5 -3,1 -4.2,1.2 -0.5,0.1 -1.3,0.3 -1.7,0.5 -1.5,0.7 -3.3,1.1 -5.7,1.3 -1.4,0.1 -2.6,0.4 -2.7,0.5 -0.1,0.1 -0.9,0.3 -1.7,0.4 -0.8,0.1 -2.3,0.4 -3.5,0.6 -1.1,0.3 -3.3,0.6 -4.9,0.8 -1.6,0.2 -3.5,0.4 -4.2,0.6 -0.7,0.1 -2.7,0.4 -4.4,0.6 -1.7,0.2 -3.1,0.4 -3.3,0.5 -0.5,0.3 -3.9,0.6 -4.3,0.4 -0.3,-0.2 -0.5,-0.2 -0.6,0 -0.1,0.1 -0.4,0.2 -0.8,0.2 -0.4,0 -1.1,0.1 -1.6,0.4 -0.6,0.2 -2.2,0.4 -3.7,0.5 -1.5,0.1 -3.4,0.2 -4.2,0.3 0.3,-0.1 -0.5,-0.1 -0.6,-0.2 z m 4.4,-0.7 c 3.6,-0.1 4.7,-0.3 5.4,-0.8 0.3,-0.2 1.4,-0.4 3.2,-0.4 1.5,0 3.2,-0.2 3.8,-0.4 0.6,-0.2 2.1,-0.4 3.4,-0.5 1.3,-0.1 3.5,-0.4 4.9,-0.7 1.4,-0.3 3.2,-0.5 3.8,-0.5 0.7,0 1.7,-0.1 2.2,-0.3 1.7,-0.4 3.1,-0.7 4.9,-1 1,-0.1 2.1,-0.4 2.5,-0.6 0.4,-0.2 1.7,-0.4 3,-0.5 1.2,-0.1 2.6,-0.3 2.9,-0.5 0.4,-0.2 0.9,-0.3 1.2,-0.3 0.3,0 0.8,-0.1 1,-0.3 0.3,-0.2 1,-0.4 1.5,-0.5 1.4,-0.2 3.2,-0.8 4.5,-1.3 0.5,-0.2 1.4,-0.5 2,-0.6 0.6,-0.1 1.3,-0.3 1.6,-0.5 0.3,-0.2 0.8,-0.4 1.1,-0.4 0.3,0 0.8,-0.2 1.1,-0.4 0.3,-0.2 0.7,-0.4 0.9,-0.4 0.8,0 3.8,-1 5.1,-1.7 0.7,-0.4 1.6,-0.7 2.1,-0.7 0.4,0 1.2,-0.2 1.7,-0.5 0.5,-0.3 1.1,-0.5 1.3,-0.5 0.2,0 0.9,-0.2 1.5,-0.5 0.6,-0.3 1.3,-0.6 1.6,-0.7 0.3,-0.1 0.9,-0.4 1.4,-0.6 0.5,-0.2 1.1,-0.4 1.4,-0.4 0.3,0 0.6,-0.1 0.6,-0.2 0.1,-0.1 0.5,-0.3 0.9,-0.4 0.4,-0.1 1,-0.4 1.3,-0.6 0.3,-0.3 1,-0.4 1.5,-0.4 0.5,0 1.2,-0.2 1.6,-0.4 1,-0.7 1.5,-1 2.6,-1.5 0.5,-0.3 1.1,-0.6 1.3,-0.8 0.2,-0.2 0.6,-0.4 1,-0.4 0.4,0 0.8,-0.2 1,-0.4 0.2,-0.2 0.4,-0.4 0.6,-0.4 0.1,0 0.4,-0.1 0.6,-0.3 0.2,-0.2 0.9,-0.5 1.5,-0.7 0.6,-0.2 1.1,-0.5 1.1,-0.6 0,-0.3 1.8,-1.2 2.3,-1.2 0.2,0 0.9,-0.4 1.5,-0.8 0.6,-0.4 1.5,-0.9 2,-1.1 0.5,-0.2 1.2,-0.6 1.5,-1 0.4,-0.4 0.9,-0.7 1.2,-0.7 0.7,0 1.3,-0.4 2.7,-1.5 0.6,-0.5 1.2,-0.9 1.3,-0.9 0.5,0 2.7,-1.2 3.2,-1.8 0.3,-0.3 0.7,-0.6 0.9,-0.6 0.2,0 0.4,-0.2 0.6,-0.4 0.2,-0.2 0.5,-0.4 0.7,-0.4 0.2,0 0.6,-0.2 0.7,-0.4 0.2,-0.2 0.5,-0.5 0.8,-0.6 0.3,-0.1 0.8,-0.4 1.2,-0.7 0.4,-0.3 0.9,-0.5 1.1,-0.6 0.2,-0.1 0.9,-0.6 1.5,-1.1 0.6,-0.5 1.3,-0.9 1.5,-0.9 0.2,0 0.8,-0.4 1.4,-0.8 0.6,-0.5 1.1,-0.8 1.3,-0.8 0.2,0 0.7,-0.4 1.2,-0.9 0.5,-0.5 1.2,-1 1.5,-1.1 0.3,-0.1 0.7,-0.4 0.8,-0.6 0.1,-0.3 0.5,-0.6 0.8,-0.7 1,-0.4 1.7,-0.9 2.3,-1.5 0.3,-0.3 1.2,-1 1.9,-1.6 3.1,-2.3 3.5,-2.7 4.5,-3.6 0.5,-0.5 1.1,-1 1.2,-1 0.1,0 0.9,-0.6 1.6,-1.4 0.8,-0.7 1.8,-1.6 2.3,-2 2.1,-1.5 4.9,-4 5.1,-4.6 0.2,-0.5 -0.6,-0.3 -1.2,0.3 -0.2,0.3 -0.5,0.5 -0.7,0.5 -0.2,0 -0.8,0.4 -1.5,1 -0.7,0.5 -1.3,1 -1.4,1 -0.1,0 -0.9,0.6 -1.8,1.4 -0.9,0.8 -1.9,1.4 -2.1,1.4 -0.2,0 -0.6,0.2 -0.9,0.5 -0.2,0.3 -0.6,0.5 -0.7,0.5 -0.2,0 -0.7,0.3 -1.3,0.7 -0.5,0.4 -1.1,0.7 -1.1,0.7 -0.1,0 -0.6,0.4 -1.3,0.9 -0.6,0.5 -1.3,1 -1.5,1.1 -0.2,0.1 -1.1,0.6 -2,1.1 -0.9,0.5 -2.1,1.2 -2.6,1.4 -0.5,0.3 -1.4,0.8 -1.9,1.1 -0.5,0.3 -1,0.6 -1,0.6 -0.1,0 -0.5,0.3 -0.9,0.6 -0.4,0.3 -1,0.7 -1.4,0.7 -0.3,0.1 -1,0.4 -1.6,0.7 -0.5,0.3 -1.1,0.6 -1.3,0.6 -0.2,0 -0.9,0.3 -1.6,0.6 -0.7,0.3 -1.4,0.6 -1.7,0.6 -0.2,0 -0.7,0.2 -1,0.4 -0.3,0.2 -1.2,0.6 -2,0.8 -1.6,0.4 -3.6,1.1 -4.3,1.4 -0.3,0.1 -1.4,0.5 -2.5,0.8 -1.1,0.3 -2.6,0.9 -3.4,1.1 -0.7,0.3 -1.9,0.6 -2.5,0.6 -0.7,0.1 -1.4,0.3 -1.7,0.4 -0.5,0.3 -2.1,0.7 -3.4,1 -0.4,0.1 -0.9,0.2 -1,0.4 -0.2,0.1 -1,0.3 -1.8,0.4 -3,0.4 -4.9,0.8 -5.3,1.1 -0.2,0.2 -1.1,0.4 -1.9,0.5 -0.8,0.1 -1.8,0.3 -2.2,0.5 -0.4,0.2 -0.9,0.3 -1.2,0.3 -0.3,0 -0.7,0.1 -0.8,0.3 -0.2,0.2 -1.9,0.3 -5.1,0.4 -2.7,0 -5.4,0.2 -6.1,0.3 -0.8,0.2 -1.4,0.2 -1.7,0 -0.2,-0.1 -1.6,-0.1 -3,-0.1 -1.4,0 -4.2,0.1 -6.4,0 -2.1,-0.1 -5.9,-0.2 -8.5,-0.3 -3.3,0 -4.7,-0.1 -4.9,-0.4 -0.2,-0.2 -1.1,-0.3 -2.6,-0.3 -1.4,0 -2.7,-0.1 -3.3,-0.3 -0.5,-0.2 -1.8,-0.3 -2.8,-0.4 -1,0 -2.1,-0.1 -2.5,-0.3 -0.4,-0.2 -1.5,-0.4 -2.5,-0.6 -2.7,-0.4 -4.2,-0.8 -4.4,-1.1 -0.1,-0.1 -0.5,-0.2 -0.8,-0.2 -0.3,0 -1,-0.2 -1.6,-0.5 -0.5,-0.3 -1.3,-0.5 -1.8,-0.5 -0.5,0 -1.5,-0.2 -2.3,-0.5 -0.8,-0.3 -1.8,-0.6 -2.4,-0.7 -0.5,-0.1 -1.1,-0.3 -1.2,-0.4 -0.1,-0.1 -0.8,-0.3 -1.6,-0.4 -0.7,-0.1 -1.7,-0.4 -2.1,-0.6 -0.4,-0.2 -1,-0.4 -1.2,-0.4 -0.3,0 -0.6,-0.2 -0.8,-0.4 -0.2,-0.2 -0.5,-0.4 -0.8,-0.4 -0.5,0 -2.6,-0.7 -2.9,-1 -0.1,-0.1 -0.3,-0.2 -0.5,-0.2 -0.2,0 -1.3,-0.4 -2.4,-1 -1.1,-0.5 -2.2,-1 -2.3,-1 -0.4,0 -2.6,-0.9 -6.2,-2.6 -0.9,-0.4 -1.7,-0.7 -1.9,-0.7 -0.5,0 -2.6,-0.9 -3.8,-1.7 -0.4,-0.3 -0.9,-0.5 -1.1,-0.5 -0.2,0 -0.5,-0.2 -0.7,-0.3 -0.3,-0.3 -2.3,-1.4 -4.1,-2.1 -1.5,-0.6 -2,-0.9 -3.2,-1.6 -0.7,-0.4 -1.4,-0.8 -1.7,-1 -0.3,-0.1 -0.6,-0.3 -0.8,-0.4 -0.2,-0.1 -1.2,-0.6 -2.3,-1.1 -1.1,-0.5 -2.3,-1.2 -2.7,-1.6 -0.4,-0.4 -1.1,-0.8 -1.4,-1 -0.3,-0.1 -1,-0.6 -1.5,-0.9 -0.5,-0.3 -1,-0.7 -1.2,-0.8 -0.5,-0.3 -1.3,-0.7 -1.7,-1 -0.2,-0.1 -0.6,-0.3 -1,-0.4 -0.4,-0.1 -1.3,-0.8 -2.1,-1.5 -0.8,-0.7 -1.5,-1.3 -1.7,-1.3 -0.1,0 -0.8,-0.5 -1.6,-1.2 -0.7,-0.6 -1.6,-1.3 -2,-1.4 -0.3,-0.1 -1.1,-0.7 -1.8,-1.2 -0.6,-0.5 -1.3,-1 -1.4,-1 -0.2,0 -0.8,-0.5 -1.4,-1.1 -0.6,-0.6 -1.2,-1.1 -1.3,-1.1 -0.1,0 -0.9,-0.6 -1.7,-1.3 -0.8,-0.7 -1.8,-1.5 -2.2,-1.7 -0.4,-0.2 -0.9,-0.5 -1.2,-0.8 -0.2,-0.3 -0.6,-0.5 -0.7,-0.5 -0.2,0 -2.7,-2.3 -4.6,-4.3 -0.5,-0.6 -1.1,-1 -1.2,-1 -0.1,0 -1.1,-0.8 -2.2,-1.8 -1.1,-1 -2.1,-1.8 -2.2,-1.8 -0.1,0 -2.2,-2 -4.5,-4.4 -2.4,-2.4 -4.8,-4.9 -5.5,-5.4 -0.7,-0.5 -1.6,-1.5 -2,-2.1 -0.4,-0.6 -1.1,-1.3 -1.5,-1.5 -0.4,-0.2 -1,-0.8 -1.2,-1.2 -0.3,-0.5 -1.8,-2.1 -3.3,-3.7 -1.5,-1.6 -3.2,-3.5 -3.8,-4.3 -0.6,-0.8 -2,-2.4 -3.1,-3.6 -1.1,-1.2 -2.3,-2.7 -2.6,-3.2 -0.4,-0.6 -1.1,-1.6 -1.7,-2.2 -0.6,-0.6 -1,-1.2 -1,-1.3 0,-0.1 -0.2,-0.5 -0.6,-0.8 -0.9,-0.9 -2.3,-2.8 -2.3,-3 0,-0.1 -0.5,-0.9 -1.1,-1.8 -0.6,-0.9 -1.3,-2 -1.6,-2.4 -0.2,-0.5 -0.8,-1.3 -1.2,-1.8 -0.8,-1 -1.6,-2.3 -2,-3.2 -0.1,-0.3 -0.7,-1.1 -1.2,-1.8 -0.5,-0.7 -1.3,-1.8 -1.7,-2.6 -1.1,-2 -2.3,-3.8 -2.9,-4.3 -0.3,-0.2 -0.5,-0.6 -0.5,-0.7 0,-0.2 -0.3,-0.5 -0.6,-0.8 -0.3,-0.3 -0.6,-0.7 -0.6,-0.8 0,-0.1 -0.1,-0.5 -0.3,-0.9 -0.2,-0.3 -0.8,-1.6 -1.5,-2.8 -0.6,-1.2 -1.3,-2.3 -1.5,-2.5 -0.2,-0.2 -0.3,-0.4 -0.3,-0.5 0,-0.1 -1.3,-2.7 -3.2,-6.4 -0.4,-0.9 -1,-2 -1.2,-2.5 -0.2,-0.5 -1.3,-2.8 -2.5,-5.2 -1.2,-2.3 -2.1,-4.4 -2.1,-4.5 0,-0.1 -0.3,-0.9 -0.6,-1.6 -1.1,-2.4 -1.2,-2.8 -1.8,-4.4 -0.3,-0.9 -0.7,-1.9 -0.8,-2.3 -0.8,-1.7 -2.5,-6.3 -2.5,-6.6 0,-0.2 -0.2,-0.6 -0.4,-0.8 -0.2,-0.3 -0.4,-0.7 -0.4,-0.9 0,-0.2 -0.2,-0.7 -0.3,-1.1 -0.2,-0.4 -0.5,-1.3 -0.8,-2.1 -0.2,-0.8 -0.6,-1.7 -0.7,-2 -0.2,-0.3 -0.3,-0.8 -0.3,-1.1 0,-0.3 -0.2,-0.6 -0.4,-0.8 -0.2,-0.2 -0.4,-0.5 -0.4,-0.8 0,-0.3 -0.2,-0.9 -0.4,-1.2 -0.2,-0.3 -0.4,-0.9 -0.4,-1.2 0,-0.3 -0.2,-0.8 -0.4,-1.2 -0.2,-0.4 -0.4,-1 -0.4,-1.3 0,-0.3 -0.2,-0.8 -0.4,-1.1 -0.2,-0.3 -0.4,-0.8 -0.4,-1.2 0,-0.4 -0.2,-0.9 -0.4,-1.2 -0.2,-0.3 -0.4,-0.7 -0.4,-1.1 0,-0.3 -0.2,-0.8 -0.4,-1.1 -0.2,-0.3 -0.4,-0.8 -0.4,-1.3 0,-0.7 -0.3,-1.9 -1,-3.5 -0.1,-0.3 -0.3,-1.2 -0.3,-2 -0.1,-0.8 -0.3,-1.7 -0.4,-1.9 -0.2,-0.2 -0.3,-1 -0.3,-1.8 0,-0.8 -0.2,-2 -0.5,-2.7 -0.2,-0.7 -0.4,-1.5 -0.3,-1.8 0.1,-0.3 0,-0.9 -0.2,-1.3 -0.2,-0.4 -0.4,-1.2 -0.4,-1.8 0,-0.6 -0.2,-1.4 -0.4,-1.8 -0.2,-0.4 -0.4,-1.2 -0.4,-1.9 0,-0.8 -0.2,-1.4 -0.5,-2 -0.4,-0.6 -0.5,-1 -0.4,-1.8 0.1,-0.7 0,-1.1 -0.2,-1.5 -0.2,-0.3 -0.4,-1.5 -0.5,-3.3 -0.1,-1.5 -0.2,-3.4 -0.4,-4.2 -0.2,-0.8 -0.3,-2.2 -0.4,-3.1 -0.1,-0.9 -0.3,-2.4 -0.4,-3.2 -0.1,-0.9 -0.3,-2.1 -0.3,-2.7 0,-0.6 -0.2,-1.3 -0.3,-1.6 -0.2,-0.3 -0.3,-2.3 -0.4,-4.9 -0.1,-5.5 -0.3,-8.5 -0.7,-9.6 -0.2,-0.6 -0.2,-1.6 0,-3.6 0.2,-1.5 0.4,-5.6 0.5,-9.2 0.3,-9.7 0.4,-11 0.7,-13.6 0.1,-1.3 0.4,-3.7 0.5,-5.4 0.2,-2.8 0.9,-7.1 1.9,-12.2 0.3,-1.3 0.5,-2.7 0.5,-3.2 0,-0.5 0.1,-1.3 0.3,-1.7 0.3,-0.7 0.7,-2.3 1.1,-4.8 0.1,-0.6 0.3,-1.3 0.5,-1.4 0.1,-0.1 0.2,-0.5 0.2,-0.9 0,-0.3 0.2,-0.9 0.4,-1.3 0.2,-0.4 0.4,-0.9 0.4,-1.2 0,-0.3 0.1,-0.7 0.3,-1 0.2,-0.3 0.4,-1.2 0.5,-2 0.1,-0.8 0.3,-1.6 0.4,-1.8 0.1,-0.1 0.3,-0.8 0.3,-1.4 0,-0.7 0.1,-1.2 0.4,-1.4 0.2,-0.2 0.4,-0.5 0.4,-0.7 0,-0.2 0.2,-0.7 0.4,-1.1 0.2,-0.4 0.4,-0.9 0.4,-1.1 0,-0.2 0.2,-0.7 0.4,-1.1 0.2,-0.4 0.4,-0.9 0.4,-1.2 0,-0.3 0.2,-0.7 0.4,-0.8 0.2,-0.2 0.4,-0.6 0.4,-0.9 0,-0.3 0.1,-0.8 0.3,-1.1 0.2,-0.3 0.5,-1.1 0.7,-1.9 0.2,-0.8 0.6,-1.7 0.8,-2.1 0.2,-0.4 0.3,-0.9 0.3,-1.1 0,-0.2 0.2,-0.7 0.4,-1.1 0.2,-0.4 0.4,-0.9 0.4,-1.2 0,-0.3 0.2,-0.7 0.4,-1 0.2,-0.3 0.4,-0.6 0.4,-0.8 0,-0.2 0.2,-0.7 0.4,-1.2 0.2,-0.5 0.5,-1.2 0.7,-1.7 0.2,-0.4 0.5,-1.1 0.7,-1.6 0.2,-0.4 0.8,-1.8 1.4,-3 0.6,-1.2 1.1,-2.4 1.1,-2.5 0,-0.2 0.2,-0.6 0.3,-0.9 0.1,-0.3 0.4,-1 0.5,-1.4 0.1,-0.4 0.3,-0.8 0.4,-0.9 0.1,-0.1 0.4,-0.6 0.7,-1.1 0.4,-0.9 1,-2 3.1,-5.7 0.3,-0.6 1.3,-2.4 2.1,-4.1 0.8,-1.7 1.7,-3.2 2,-3.4 0.3,-0.2 0.5,-0.5 0.5,-0.7 0,-0.2 0.3,-0.7 0.7,-1.3 0.4,-0.6 0.7,-1.1 0.7,-1.2 0,-0.1 0.5,-0.8 1.1,-1.7 0.6,-0.9 1.1,-1.7 1.1,-1.8 0,-0.3 0.7,-1.3 1.6,-2.3 1.3,-1.4 2.7,-3.3 2.7,-3.6 0,-0.2 0.2,-0.5 0.4,-0.6 0.2,-0.2 0.5,-0.5 0.5,-0.7 0.1,-0.4 2.3,-3 4.5,-5.5 0.6,-0.6 1,-1.2 1,-1.3 0,-0.1 0.7,-0.9 1.5,-1.8 0.8,-0.9 2.3,-2.5 3.2,-3.6 1.6,-1.9 6.8,-6.9 7.1,-6.9 0.1,0 0.7,-0.5 1.3,-1.1 0.6,-0.6 1.9,-1.7 2.7,-2.4 0.9,-0.7 1.6,-1.3 1.7,-1.5 0,-0.1 0.9,-0.9 2,-1.6 1.1,-0.8 2.6,-2 3.4,-2.8 0.8,-0.7 1.5,-1.3 1.6,-1.3 0.1,0 0.9,-0.7 1.9,-1.5 0.9,-0.8 1.9,-1.5 2.2,-1.6 0.3,-0.1 1.1,-0.7 1.8,-1.2 1.3,-1.1 2.6,-1.9 3.6,-2.3 0.3,-0.1 1.1,-0.8 1.8,-1.4 0.7,-0.6 1.6,-1.3 2.1,-1.5 0.5,-0.2 1.3,-0.6 1.8,-1 0.5,-0.4 1,-0.7 1.2,-0.7 0.2,0 0.5,-0.2 0.7,-0.5 0.2,-0.3 0.5,-0.5 0.7,-0.5 0.1,0 0.6,-0.3 1.1,-0.7 0.5,-0.4 1.5,-0.9 2.2,-1.1 0.7,-0.2 1.6,-0.7 2,-1.1 0.5,-0.5 1,-0.7 1.5,-0.7 0.5,0 1.1,-0.3 1.8,-0.8 0.6,-0.5 1.3,-0.8 1.5,-0.8 0.3,0 0.7,-0.1 0.9,-0.2 0.2,-0.1 1.3,-0.6 2.3,-1.1 1.1,-0.5 2.1,-1 2.3,-1.1 0.2,-0.1 0.6,-0.2 0.7,-0.2 0.2,0 1,-0.3 1.7,-0.7 0.8,-0.4 1.7,-0.8 1.9,-0.9 0.4,-0.1 0.4,-0.2 -0.3,-0.4 -0.5,-0.1 -0.9,-0.1 -1.1,0 -0.2,0.1 -1,0.3 -1.9,0.4 -0.9,0.1 -2.1,0.3 -2.6,0.5 -0.6,0.2 -1.4,0.4 -1.8,0.4 -0.4,0 -1.3,0.3 -1.9,0.6 -0.6,0.3 -1.4,0.6 -1.7,0.6 -0.3,0 -1.4,0.4 -2.4,0.8 -1,0.4 -1.9,0.8 -2.1,0.8 -0.2,0 -0.5,0.2 -0.7,0.4 -0.3,0.2 -0.8,0.4 -1.1,0.4 -0.4,0 -1.1,0.3 -1.6,0.7 -0.6,0.4 -1.3,0.7 -1.7,0.7 -0.4,0 -0.7,0.1 -0.7,0.2 0,0.1 -0.4,0.3 -0.9,0.4 -0.5,0.1 -1.1,0.2 -1.3,0.4 -0.2,0.1 -1,0.6 -1.9,1 -0.8,0.4 -1.6,0.8 -1.6,1 -0.1,0.1 -0.5,0.2 -0.9,0.2 -0.4,0 -0.9,0.2 -1.1,0.4 -0.2,0.2 -0.5,0.4 -0.8,0.4 -0.5,0 -1.6,0.6 -1.9,1.1 -0.1,0.2 -0.5,0.4 -1,0.4 -0.4,0.1 -1.1,0.4 -1.4,0.8 -0.3,0.3 -1,0.7 -1.5,0.7 -0.5,0.1 -1,0.3 -1.2,0.5 -0.2,0.2 -0.5,0.3 -0.7,0.3 -0.5,0 -1.9,0.7 -3.1,1.6 -1.1,0.8 -3.8,2.2 -4.3,2.2 -0.2,0 -0.5,0.1 -0.6,0.3 -0.1,0.2 -0.4,0.4 -0.8,0.5 -0.4,0.1 -1.1,0.5 -1.6,0.9 -0.5,0.4 -1.1,0.7 -1.2,0.7 -0.2,0 -0.4,0.2 -0.6,0.4 -0.2,0.2 -0.9,0.7 -1.6,1 -3.2,1.6 -4.3,2.3 -5.6,3.5 -1.3,1.1 -3.3,2.3 -3.8,2.3 -0.1,0 -0.7,0.4 -1.2,0.8 -0.6,0.5 -1.1,0.8 -1.3,0.8 -0.1,0 -0.8,0.5 -1.4,1 -0.6,0.6 -1.4,1.2 -1.8,1.3 -1.2,0.6 -1.7,0.9 -2.4,1.6 -0.4,0.3 -0.7,0.6 -0.9,0.6 -0.2,0 -2.2,1.5 -2.7,2.1 -0.4,0.5 -3.2,2.5 -3.5,2.5 -0.1,0 -0.4,0.3 -0.5,0.7 -0.2,0.4 -0.5,0.7 -0.8,0.7 -0.5,0.1 -2.7,1.6 -3.3,2.4 -0.3,0.3 -0.6,0.5 -0.8,0.5 -0.2,0 -1.1,0.8 -2,1.7 -0.9,0.9 -1.8,1.7 -1.9,1.7 -0.1,0 -0.7,0.5 -1.3,1.2 -0.6,0.7 -1.1,1.2 -1.2,1.2 -0.3,0 -2.3,1.4 -3.4,2.5 -0.7,0.6 -1.9,1.8 -2.7,2.6 -0.8,0.8 -1.5,1.5 -1.5,1.6 0,0.1 -0.4,0.5 -0.9,0.8 -0.5,0.3 -1.4,1.2 -2.1,2 -0.7,0.8 -1.3,1.4 -1.4,1.4 -0.4,0 -3.2,2.9 -3.2,3.2 0,0.2 -0.2,0.4 -0.4,0.6 -0.7,0.4 -4,3.7 -4,4.1 0,0.2 -0.3,0.4 -0.6,0.6 -0.3,0.2 -0.6,0.4 -0.6,0.5 0,0.4 -1,1.4 -1.4,1.4 -0.2,0 -0.4,0.2 -0.6,0.5 -0.7,1.5 -3.4,5 -3.9,5 -0.2,0 -0.6,0.5 -0.9,1.1 -0.3,0.6 -0.8,1.4 -1.2,1.9 -0.4,0.5 -0.9,1.1 -1.2,1.5 -0.3,0.4 -0.7,0.8 -0.8,0.8 -0.4,0 -1.4,1.1 -2.1,2.3 -0.3,0.5 -1.1,1.6 -1.7,2.3 -1.9,2.1 -2.6,3 -2.6,3.2 0,0.2 -0.9,1.5 -2.1,2.9 -0.6,0.7 -1,1.3 -1,1.5 0,0.2 -0.5,0.8 -1.1,1.5 -0.6,0.6 -1.1,1.3 -1.1,1.4 0,0.1 -0.4,0.8 -0.9,1.4 -1,1.3 -1.6,2.3 -2.1,3.4 -0.2,0.4 -0.9,1.4 -1.5,2.1 -0.6,0.7 -1.4,1.7 -1.6,2.2 -0.5,1.2 -1.2,2.2 -2.1,3.1 -0.4,0.4 -0.8,1.1 -0.9,1.5 -0.2,0.5 -0.5,1.1 -0.7,1.4 -0.2,0.3 -0.4,0.7 -0.4,1 0,0.3 -0.6,1.3 -1.4,2.5 -0.8,1.2 -1.4,2.3 -1.4,2.4 0,0.1 -0.1,0.5 -0.3,0.6 -0.2,0.2 -0.5,0.7 -0.7,1.2 -0.2,0.5 -0.7,1.3 -1,1.8 -0.8,1.3 -1.4,2.5 -2,3.7 -0.3,0.6 -0.7,1.5 -1,1.9 -0.2,0.5 -0.7,1.4 -1.1,2.2 -0.4,0.7 -0.8,1.6 -1,2 -0.2,0.3 -0.3,0.8 -0.3,0.9 0,0.4 -2.1,5.1 -3.3,7.2 -0.2,0.3 -0.3,0.8 -0.4,1.1 0,0.2 -0.2,0.8 -0.5,1.2 -0.3,0.4 -0.5,0.9 -0.6,1.1 -0.1,0.2 -0.3,0.8 -0.6,1.3 -0.3,0.5 -0.5,1.2 -0.5,1.5 0,0.3 -0.2,0.6 -0.4,0.8 -0.2,0.2 -0.4,0.5 -0.4,0.8 0,0.3 -0.2,0.9 -0.5,1.3 -0.3,0.4 -0.8,1.5 -1.1,2.2 -0.3,0.8 -0.7,1.7 -0.9,2.1 -0.2,0.4 -0.3,0.9 -0.3,1.1 0,0.5 -0.1,0.7 -0.9,2.3 -0.3,0.6 -0.5,1.2 -0.5,1.4 0,0.2 -0.2,0.7 -0.4,1.1 -0.2,0.4 -0.4,0.9 -0.4,1.1 0,0.2 -0.2,0.7 -0.4,1.1 -0.2,0.4 -0.4,0.9 -0.4,1.2 0,0.5 -0.1,0.7 -0.8,2.2 -0.2,0.4 -0.4,1.1 -0.4,1.4 0,0.4 -0.2,0.8 -0.4,1.1 -0.2,0.3 -0.4,0.8 -0.4,1.2 0,0.4 -0.2,0.9 -0.4,1.2 -0.2,0.3 -0.4,0.9 -0.4,1.4 0,0.5 -0.1,1 -0.2,1 -0.1,0.1 -0.2,0.4 -0.2,0.7 0,0.3 -0.2,0.9 -0.5,1.3 -0.3,0.4 -0.5,1.1 -0.5,1.5 0,0.4 -0.1,0.8 -0.2,0.8 -0.1,0.1 -0.2,0.7 -0.2,1.4 0,0.9 -0.2,1.6 -0.6,2.6 -0.5,0.9 -0.7,1.7 -0.7,2.8 0,0.9 -0.2,1.8 -0.3,2 -0.4,0.9 -0.6,1.9 -0.5,2.7 0,0.4 -0.1,0.8 -0.2,0.9 -0.1,0.1 -0.3,0.3 -0.3,0.5 0,0.2 -0.2,0.8 -0.5,1.4 -0.3,0.6 -0.5,1.7 -0.6,2.6 -0.3,3.3 -0.4,4.2 -0.6,4.4 -0.1,0.1 -0.2,0.5 -0.2,0.8 0,0.3 -0.2,1.3 -0.5,2.3 -0.3,1 -0.5,2.5 -0.6,3.5 -0.2,2.8 -0.5,5.7 -0.8,6 -0.1,0.2 -0.3,1.9 -0.4,3.8 -0.1,1.9 -0.2,4 -0.3,4.5 -0.7,5.1 -0.8,7.2 -0.9,11.6 0,2.8 0,5.4 0.1,5.9 0.1,0.6 0.1,0.9 -0.1,0.9 -0.4,0 -0.3,2.5 0,2.8 0.2,0.2 0.2,0.4 0,0.8 -0.4,0.6 -0.1,8.6 0.3,8.9 0.1,0.1 0.3,2.6 0.4,5.5 0.1,2.9 0.3,5.8 0.4,6.4 0.1,0.6 0.4,1.6 0.5,2.2 0.1,0.6 0.3,1.5 0.3,2 0,0.5 0.2,1.1 0.3,1.4 0.2,0.3 0.5,1.7 0.6,3.2 0.1,1.5 0.4,3.4 0.5,4.2 0.1,0.8 0.3,2 0.4,2.6 0.1,0.7 0.3,1.6 0.5,2 0.2,0.5 0.4,1.4 0.5,2 0.1,0.7 0.3,1.4 0.4,1.7 0.2,0.3 0.3,1 0.3,1.6 0,0.7 0.2,1.3 0.5,1.7 0.3,0.4 0.5,1 0.5,1.6 0,0.5 0.2,1.3 0.4,1.6 0.2,0.4 0.4,0.9 0.4,1.1 0,0.2 0.2,0.6 0.5,0.8 0.4,0.4 0.5,0.6 0.3,1.5 -0.1,0.6 0,1.3 0.1,1.7 0.1,0.4 0.4,1.1 0.5,1.7 0.6,2.2 1.3,4.2 1.6,4.6 0.2,0.2 0.3,0.6 0.3,0.9 0,0.3 0.2,0.8 0.4,1.2 0.2,0.4 0.4,0.9 0.4,1.2 0,0.3 0.2,0.9 0.5,1.4 0.8,1.4 1.2,2.6 1.2,3.1 0,0.3 0.2,0.8 0.4,1.3 0.2,0.4 0.6,1.2 0.8,1.8 0.2,0.5 0.9,2 1.5,3.2 0.6,1.3 1.1,2.5 1.1,2.8 0,0.4 0.7,2.1 1.2,3 0.2,0.3 0.9,1.8 1.3,2.6 0.1,0.2 0.7,1.3 1.3,2.5 0.6,1.2 1.7,3.1 2.3,4.3 1.3,2.6 1.5,2.9 2.2,3.8 0.3,0.4 0.8,1.4 1.3,2.3 0.9,1.8 1,2.1 2.1,3.8 0.4,0.7 0.8,1.3 0.8,1.5 0,0.1 0.2,0.4 0.5,0.6 0.3,0.2 0.5,0.5 0.5,0.7 0,0.1 0.4,0.7 0.8,1.3 0.4,0.6 1,1.5 1.2,2 0.2,0.5 0.5,1 0.7,1 0.1,0.1 0.3,0.4 0.4,0.7 0.1,0.3 0.7,1.2 1.4,2.1 1.3,1.7 1.9,2.6 2.2,3.1 0.2,0.4 1.6,2.2 2.9,3.6 0.4,0.5 0.8,1 0.8,1.1 0,0.1 0.2,0.5 0.5,0.7 0.3,0.2 0.5,0.5 0.5,0.7 0,0.1 0.5,0.8 1.1,1.5 0.6,0.7 1.1,1.3 1.1,1.5 0,0.1 0.6,0.8 1.2,1.6 0.7,0.7 1.8,2 2.5,2.8 0.7,0.8 1.6,1.8 1.9,2.2 0.4,0.4 0.7,0.9 0.8,1.1 0.1,0.2 0.3,0.4 0.4,0.4 0.1,0 1,0.8 2,1.8 5.1,5.4 7.2,7.5 8.6,8.6 0.8,0.7 1.9,1.6 2.4,2 0.5,0.5 1.3,1.2 1.8,1.6 0.5,0.4 1.5,1.3 2.2,2 1.6,1.5 5.2,4.6 5.8,4.9 1.5,0.9 2.4,1.5 2.6,1.9 0.2,0.2 0.5,0.4 0.6,0.4 0.1,0 0.5,0.3 0.9,0.6 0.3,0.3 0.7,0.6 0.8,0.6 0.1,0 0.9,0.6 1.8,1.4 0.9,0.8 1.9,1.6 2.2,1.7 0.6,0.3 1.3,0.9 2.5,1.9 0.2,0.2 0.7,0.4 1,0.4 0.3,0 0.8,0.2 1,0.5 0.2,0.3 0.6,0.5 0.7,0.5 0.1,0 0.5,0.2 0.7,0.5 0.2,0.3 0.6,0.5 0.7,0.5 0.2,0 0.6,0.4 1.1,0.8 0.4,0.5 0.9,0.8 1,0.8 0.1,0 0.7,0.3 1.3,0.7 0.6,0.4 1.1,0.7 1.2,0.7 0.1,0 0.6,0.3 1.2,0.7 0.6,0.4 1.2,0.7 1.3,0.7 0.1,0 0.4,0.2 0.5,0.4 0.2,0.2 0.5,0.4 0.7,0.4 0.2,0 1,0.4 1.7,1 0.7,0.5 1.4,1 1.5,1 0.2,0 0.8,0.4 1.4,0.8 1,0.7 2.4,1.4 5.8,3 0.6,0.3 1.2,0.6 1.4,0.7 0.2,0.1 1.3,0.7 2.5,1.2 1.2,0.6 2.2,1.1 2.2,1.2 0.1,0.1 0.3,0.2 0.5,0.2 0.3,0 3.3,1.3 4.4,1.9 0.2,0.1 0.6,0.3 1,0.5 0.3,0.1 0.9,0.4 1.3,0.6 0.4,0.2 1.3,0.5 1.9,0.7 1.1,0.4 2.6,1 4,1.7 0.4,0.2 0.9,0.3 1.1,0.3 0.2,0 0.5,0.1 0.6,0.2 0.1,0.1 0.4,0.2 0.6,0.2 0.2,0 1,0.3 1.6,0.6 0.6,0.3 1.2,0.6 1.4,0.6 0.2,0 2.1,0.7 3,1.2 0.2,0.1 1,0.4 1.8,0.6 0.8,0.2 1.8,0.6 2.2,0.8 0.4,0.2 1,0.3 1.3,0.3 0.3,0 0.8,0.2 1.3,0.3 1.2,0.5 3.8,1.3 4.3,1.3 0.3,0 1.1,0.2 1.8,0.5 0.7,0.3 1.6,0.6 1.9,0.6 0.3,0 0.8,0.2 1.1,0.3 0.5,0.2 1.1,0.3 3.1,0.7 0.6,0.1 1.3,0.3 1.4,0.5 0.1,0.1 0.5,0.2 0.8,0.2 0.3,0 0.8,0.1 1.1,0.2 0.3,0.1 1.2,0.3 2,0.5 1.3,0.2 2.3,0.5 5.8,1.2 0.5,0.1 1.5,0.3 2.2,0.4 0.7,0.1 1.7,0.3 2.4,0.5 2.2,0.5 3.8,0.7 6.1,1 1.3,0.1 3,0.3 3.8,0.5 0.9,0.1 2.2,0.3 3,0.4 0.8,0.1 2.2,0.2 3.2,0.4 1,0.1 2.3,0.2 2.9,0.2 0.6,0 1.3,0.1 1.6,0.2 0.2,0.1 1.8,0.3 3.5,0.4 1.7,0.1 3.9,0.2 4.8,0.2 5,0.3 12,0.5 13.8,0.4 2.1,-0.1 4.7,0 5.5,0.2 0.5,0.1 1,0.2 1.2,0.1 1.6,0.9 3.1,0.8 4.7,0.8 z" />
	
	
<path
   style="fill:url(#linearGradient856);stroke-width:0.32"
   d="m -155.55551,574.66643 c -2.77037,-2.31942 -5.10903,-4.30163 -5.19703,-4.40493 -0.088,-0.10326 -1.6,-1.46857 -3.36,-3.03398 -5.75315,-5.11712 -11.68,-10.79424 -11.68,-11.18784 0,-0.21207 1.31393,-5.34695 2.91985,-11.41082 1.60593,-6.0639 3.46481,-13.11328 4.13085,-15.66528 0.66605,-2.552 2.17205,-8.24 3.34668,-12.64 1.97907,-7.41334 2.79241,-10.48345 4.32357,-16.32 1.09882,-4.18851 6.67028,-25.24169 9.44228,-35.68 1.519,-5.72 3.02437,-11.408 3.34527,-12.64 0.3209,-1.232 1.98109,-7.496 3.68931,-13.92 1.70822,-6.424 3.3681,-12.688 3.68863,-13.92 0.65125,-2.50323 5.65174,-21.38889 7.62556,-28.8 0.70312,-2.64 1.78428,-6.744 2.40258,-9.12 0.61829,-2.376 1.64682,-6.264 2.2856,-8.64 0.63879,-2.376 1.93278,-7.272 2.87554,-10.88 0.94275,-3.608 2.59984,-9.872 3.68241,-13.92 1.08257,-4.048 2.59035,-9.736 3.35061,-12.64 0.76027,-2.904 2.85454,-10.824 4.65394,-17.59999 1.7994,-6.776 3.383,-12.752 3.51912,-13.28 0.13612,-0.528 1.71515,-6.504 3.50897,-13.28 1.79382,-6.776 3.52666,-13.328 3.85077,-14.56 1.48948,-5.66189 6.518046,-24.61252 7.216958,-27.19779 0.428553,-1.58522 1.297385,-4.89821 1.930736,-7.36221 0.63335,-2.464 2.065197,-7.864 3.181885,-12 1.116684,-4.136 2.533446,-9.464 3.148346,-11.84 1.35262,-5.22654 2.36038,-9.04706 3.84056,-14.56 0.6143,-2.288 1.70314,-6.392 2.41964,-9.12 0.71649,-2.728 1.73802,-6.544 2.27005,-8.48 0.53203,-1.936 2.05513,-7.624 3.38466,-12.64 3.82847,-14.44395 7.75174,-29.27799 8.80183,-33.28 0.53107,-2.024 1.23448,-4.688 1.56313,-5.92 1.40183,-5.25495 8.10161,-30.59102 8.63122,-32.64 0.31843,-1.232 2.33903,-8.863999 4.49021,-16.959999 2.15118,-8.096 4.35506,-16.4164 4.89751,-18.48978 l 0.98628,-3.76978 -2.25866,-2.31022 c -10.72408,-10.96886 -6.90003,-23.409974 8.23383,-26.787849 l 1.77972,-0.397235 0.74915,-2.67089 c 0.344672,-1.955784 0.699907,-3.198845 0.80216,-4.294246 0,0 0.88409,-2.309283 0.0453,-5.626887 -5.64827,-22.3396815 5.06664,-55.818286 21.88396,-68.376192 4.08436,-3.049889 11.8068799,-5.120896 13.6800099,-3.668673 0.22,0.170564 0.4,0.216787 0.4,0.102718 0,-0.11407 0.46799998,0.0419 1.03999998,0.34661 0.572,0.304706 1.11951002,0.533899 1.21670002,0.509318 1.54571,-0.39096 8.9433001,8.777574 8.9433001,11.084286 0,0.168937 0.16793,0.712531 0.37318,1.207989 0.20525,0.495457 0.39527,0.972832 0.42226,1.060832 0.53104,1.731564 0.9168,3.35291 1.17305,4.930328 0.1742,1.072319 0.3955,2.381672 0.49178,2.909672 0.42267,2.318018 0.36506,13.518668 -0.0848,16.4799995 -0.25398,1.672 -0.51976,3.544 -0.59063,4.16 -0.0709,0.616 -0.42218,2.272 -0.78069,3.68 -0.35851,1.408 -0.72823,2.992 -0.82162,3.52 -0.21746,1.229613 -2.9241101,9.6162525 -3.5113401,10.8799995 -1.75742,3.782086 -4.22584,8.658112 -4.42787,8.746665 -0.13384,0.05867 -0.24335,0.2489 -0.24335,0.422733 0,0.475037 -4.13056,6.645127 -5.42962,8.110602 -0.62406,0.704 -1.40188,1.597219 -1.72848,1.984928 -0.3266,0.387712 -1.27252,3.24959 -2.10205,6.359734 l -1.50823,5.654808 2.43827,2.44026 c 11.07607,11.08516 6.41829998,24.92874 -9.2293099,27.4309 -0.72632,0.11614 -1.32059,0.37514 -1.32059,0.57554 0,0.20041 -0.72,3.02363 -1.6,6.27383 -1.85007,6.83307 -1.7854,6.4 -0.95565,6.4 0.35438,0 0.89438,0.12503 1.2,0.27785 0.30561,0.15281 1.56365,0.51663 2.79565,0.80848 1.232,0.29184 4.28966,1.53481 6.7947999,2.76215 2.50514,1.22733 4.63294,2.23152 4.72845,2.23152 0.0955,0 2.07786,1.27404 4.40520998,2.83121 2.32735002,1.55716 4.73555002,3.090469 5.35155002,3.407359 0.616,0.31688 1.35288,0.84284 1.63753,1.16879 0.28464,0.32595 0.6741,0.59264 0.86545,0.59264 0.19136,0 0.70792,0.36 1.14792,0.8 0.4400001,0.44 0.9212601,0.8 1.0694601,0.8 0.31734,0 1.45925,0.82712 2.54028,1.84 0.42264,0.396 0.91042,0.72 1.08394,0.72 0.17353,0 0.39839,0.216 0.49969,0.48 0.10131,0.264 0.37279,0.48 0.6033,0.48 0.2305,0 0.46709,0.108 0.52576,0.24 0.1769,0.39802 3.20861,2.79538 4.74667,3.75348 0.792,0.49335 2.088,1.46166 2.88,2.15179 1.93866,1.68929 2.16342,1.85473 2.51982,1.85473 0.16876,0 0.35484,0.11046 0.41351,0.24548 0.0587,0.13501 0.82667,0.81901 1.70667,1.52 0.88,0.70098 1.648,1.38252 1.70666,1.51452 0.0587,0.132 0.23212,0.24 0.38546,0.24 0.15333,0 0.61178,0.324 1.01877,0.72 0.407,0.396 1.14523,1.008 1.64053,1.36 0.95419,0.67813 1.73832,1.31783 3.1658,2.5827 0.48248,0.42751 0.94884,0.7773 1.03635,0.7773 0.15205,0 0.66787,0.40365 2.19337,1.71639 0.38118,0.32802 1.91706,1.54798 3.41306,2.71103 1.496,1.16304 2.792,2.19149 2.88,2.28542 0.088,0.0939 0.664,0.54856 1.28,1.01027 0.616,0.46171 1.624,1.2866 2.24,1.83307 0.616,0.54648 1.21692,0.99589 1.33538,0.99871 0.11846,0.003 0.64738,0.43711 1.17538,0.96511 0.528,0.528 1.11508,0.96 1.30462,0.96 0.18954,0 0.3456,0.108 0.3468,0.24 10e-4,0.132 0.53082,0.6 1.17692,1.04 0.6461,0.44 1.32911,0.94607 1.51781,1.1246 0.1887,0.17853 0.99109,0.82546 1.78309,1.43762 0.792,0.61216 1.488,1.22209 1.54666,1.3554 0.0587,0.13331 0.29867,0.24238 0.53334,0.24238 0.23466,0 0.47466,0.10833 0.53333,0.24074 0.15702,0.35438 3.95152,3.26421 6.34667,4.86696 1.144,0.76553 2.33846,1.65838 2.65435,1.98411 0.3159,0.32574 0.9639,0.8422 1.44,1.1477 0.47611,0.30551 1.00965,0.66858 1.18565,0.80683 0.67813,0.5327 4.01712,2.98885 5.02349,3.69527 0.58108,0.40789 2.13651,1.53921 3.45651,2.51405 1.32,0.97484 2.724,1.92423 3.12,2.10975 0.396,0.18553 0.72,0.4582 0.72,0.60595 0,0.14775 0.14708,0.26864 0.32686,0.26864 0.35431,0 2.76939,1.50903 3.45599,2.15943 0.23257,0.22031 0.52057,0.40074 0.64,0.40096 0.11943,2.1e-4 0.64915,0.37829 1.17715,0.84016 0.528,0.46188 1.44899,1.0484 2.04663,1.30339 0.59765,0.25499 1.27666,0.63292 1.5089,0.83984 1.02955,0.91729 1.40447,1.18894 1.40447,1.01757 0,-0.30123 7.029735,3.93502 7.679995,4.62811 0.088,0.0938 0.376,0.21788 0.64,0.27574 0.264,0.0579 0.696,0.28202 0.96,0.49812 0.264,0.21611 0.88412,0.56538 1.37804,0.77616 0.49392,0.21078 0.8279,0.49674 0.74217,0.63545 -0.0857,0.13872 0.14519,0.27489 0.51316,0.30261 0.36797,0.0277 0.78779,0.23761 0.93293,0.46643 0.14515,0.22881 0.2661,0.29881 0.2688,0.15555 0.007,-0.37363 2.5649,1.11501 2.5649,1.49274 0,0.17292 0.0827,0.23175 0.18368,0.13072 0.10102,-0.10102 1.21702,0.40408 2.48,1.12245 1.26297,0.71838 2.61814,1.47521 3.01148,1.68186 0.39333,0.20665 0.60933,0.49263 0.48,0.63552 -0.12934,0.14289 -0.0651,0.16232 0.14286,0.0432 0.38079,-0.21819 2.73024,0.70758 2.92864,1.154 0.0587,0.132 0.28627,0.24 0.50577,0.24 0.21951,0 1.10751,0.3594 1.97333,0.79866 0.86583,0.43926 1.75424,0.79926 1.97424,0.8 0.22,6.4e-4 0.4,0.14534 0.4,0.32134 0,0.176 0.11845,0.284 0.26323,0.24 0.25105,-0.0763 4.20239,1.66562 4.53677,2 0.088,0.088 0.376,0.2068 0.64,0.264 0.264,0.0572 0.52829,0.23809 0.58733,0.40199 0.059,0.1639 0.23903,0.2166 0.4,0.11711 0.16096,-0.0995 0.29267,-0.0199 0.29267,0.1769 0,0.19677 0.144,0.26877 0.32,0.16 0.176,-0.10878 0.3201,-0.0813 0.32022,0.0611 1.3e-4,0.14239 0.37575,0.28063 0.83473,0.3072 0.45897,0.0266 1.28687,0.26939 1.83977,0.5396 1.03908,0.50782 2.12645,0.93623 2.49861,0.98445 0.11733,0.0152 0.32133,0.13564 0.45333,0.26764 0.132,0.132 0.468,0.24316 0.74667,0.24702 0.27867,0.004 1.15467,0.31493 1.94667,0.69125 0.792,0.37632 1.53568,0.66526 1.65264,0.64209 0.39798,-0.0788 3.62563,0.96353 4.04544,1.30648 0.22995,0.18784 0.82432,0.38601 1.3208,0.44036 0.49648,0.0544 1.31635,0.26528 1.82192,0.46873 0.50557,0.20344 1.3512,0.42506 1.8792,0.49249 0.528,0.0674 1.00829,0.26501 1.06733,0.43908 0.059,0.17407 0.23904,0.23509 0.4,0.1356 0.16096,-0.0995 0.47014,-0.0712 0.68704,0.0629 0.49606,0.30658 1.3974,0.45067 2.70156,0.43187 0.55876,-0.008 1.10871,0.13549 1.22212,0.31898 0.11337,0.1835 0.32678,0.25909 0.47417,0.16798 0.14743,-0.0911 1.14445,0.10713 2.21562,0.44051 1.07117,0.33339 1.86912,0.47923 1.77325,0.32409 -0.16644,-0.26927 0.13737,-0.2176 1.37891,0.23455 0.308,0.11217 1.136,0.25699 1.84,0.32184 0.704,0.0648 1.784,0.2034 2.4,0.3079 0.616,0.10449 1.768,0.24082 2.56,0.30295 0.792,0.0621 2.52,0.20674 3.84,0.32136 2.70249,0.23469 12.75609,0.20815 15.2,-0.0401 2.44985,-0.24888 4.68288,-0.50142 5.92,-0.66953 0.616,-0.0837 1.41526,-0.18808 1.77616,-0.23193 0.36089,-0.0439 0.79289,-0.15767 0.96,-0.25292 0.1671,-0.0953 1.95984,-0.49964 3.98384,-0.89865 2.024,-0.39901 5.60371,-1.35413 7.95491,-2.12248 2.3512,-0.76835 4.4032,-1.31771 4.56,-1.2208 0.1568,0.0969 0.28509,0.0152 0.28509,-0.18157 0,-0.19678 0.144,-0.26878 0.32,-0.16 0.176,0.10877 0.32,0.0453 0.32,-0.14112 0,-0.18638 0.16611,-0.33888 0.36912,-0.33888 0.49254,0 8.42691,-3.76077 11.31088,-5.36117 2.56326,-1.42244 6.49293,-3.77761 6.93792,-4.15809 0.29584,-0.25297 0.96521,-0.69862 1.48752,-0.99034 1.49558,-0.83534 3.36179,-2.138 5.22112,-3.64452 0.9424,-0.76357 2.39779,-1.90771 3.23418,-2.54253 2.68233,-2.03585 7.72806,-6.52564 11.11756,-9.89267 0.63636,-0.63213 1.55511,-2.00013 2.0417,-3.04 1.51786,-3.24375 3.79882,-7.58106 4.36,-8.29068 0.1392,-0.176 0.64806,-1.03142 1.13085,-1.90093 0.48275,-0.86951 1.14582,-1.86867 1.47344,-2.22034 0.32765,-0.35168 0.59571,-0.74597 0.59571,-0.87621 0,-0.13025 0.18,-0.42709 0.4,-0.65966 0.22,-0.23258 0.82134,-0.99886 1.33629,-1.70286 3.3975,-4.64468 12.08038,-13.03706 15.54448,-15.02441 0.32176,-0.18457 1.69763,-1.02891 3.05753,-1.87629 12.0624,-7.51627 26.27492,-10.91437 44.3017,-10.59218 8.18326,0.14625 9.58531,0.23076 13.28,0.80044 1.232,0.18996 2.6,0.38358 3.04,0.43027 1.97955,0.21007 5.65719,0.93215 11.95581,2.42645 3.70387,0.78854 6.72969,1.76757 9.79504,2.55538 6.5484,1.97897 12.65409,3.94458 18.53643,6.37487 5.03981,2.36864 9.98411,3.93291 14.77346,7.09518 0.45139,0.31321 1.89376,1.04666 3.20521,1.62988 3.69783,1.64445 14.82525,8.86826 14.37018,9.32894 -0.16346,0.16546 -2.38637,0.47567 -5.11613,0.71396 -0.792,0.0691 -2.16,0.20846 -3.04,0.30959 -0.88,0.10114 -1.816,0.18575 -2.08,0.18804 -0.264,0.002 -1.488,0.13323 -2.72,0.29098 -1.232,0.15775 -3.104,0.36766 -4.16,0.46646 -1.056,0.0988 -2.136,0.24186 -2.4,0.3179 -0.264,0.076 -1.056,0.20769 -1.76,0.29256 -4.21853,0.50853 -11.53571,1.7773 -12.32,2.13623 -0.088,0.0403 -0.304,0.10084 -0.48,0.13459 -0.176,0.0337 -0.72537,0.22781 -1.22083,0.43126 -0.49546,0.20344 -1.03107,0.3699 -1.19027,0.3699 -1.00327,0 -3.68557,1.9946 -4.31239,3.20675 -0.39622,0.76623 0.30263,3.21723 1.093,3.83325 0.11289,0.088 0.4766,0.592 0.80825,1.12 1.58965,2.40494 3.65752,4.05194 5.56127,5.89525 1.80808,1.25952 2.39697,1.7207 3.10097,2.16898 0.704,0.44829 1.66787,1.22922 2.14195,1.73542 1.4561,1.05979 2.85209,2.30484 4.09805,3.22977 1.32,0.97673 2.76,2.07801 3.2,2.44729 1.74698,1.32387 3.19803,2.39027 4.72218,3.56043 0.65881,0.43843 1.26982,0.87415 1.35782,0.96827 0.088,0.0941 0.81478,0.66163 1.6,1.28048 1.97459,1.55621 7.31449,5.87961 1.54666,1.35173 2.44603,1.30829 4.51138,3.51955 7.01984,5.19587 1.72761,1.13804 1.54589,1.32088 -0.67203,0.67611 -0.96413,-0.28028 -2.11088,-0.5096 -2.54836,-0.5096 -0.43744,0 -2.14326,-0.36432 -3.79072,-0.8096 -5.45852,-1.47535 -25.69036,-6.23421 -27.15539,-6.38739 -0.792,-0.0828 -1.92851,-0.2932 -2.52557,-0.46752 -0.59705,-0.17432 -1.18448,-0.25582 -1.30537,-0.1811 -4.50497,-0.59992 -7.79702,-0.93586 -10.56906,-1.16429 -10.56003,-0.86957 -20.05664,-0.47967 -28.12032,1.15454 -3.70714,0.7513 -10.25651,2.75877 -13.55968,4.15622 -0.66,0.27922 -1.20221,0.39774 -1.2049,0.26338 -0.003,-0.13436 -0.11068,-0.0974 -0.24,0.0822 -0.19884,0.27618 -1.80198,1.15062 -2.3151,1.2628 -0.46019,0.10061 -3.05696,1.45199 -5.67344,2.95253 -1.62438,0.93157 -3.12771,1.73076 -3.34074,1.77597 -0.21302,0.0452 -0.79116,0.42926 -1.28476,0.85346 -0.8944,0.76869 -1.15908,0.95708 -3.81802,2.71779 -1.37123,0.90801 -5.08528,3.66861 -5.40304,4.01601 -0.088,0.0962 -1.096,0.95655 -2.24,1.91187 -11.08976,9.26072 -27.14189,28.74397 -33.10656,40.18306 -2.84246,5.45126 -3.40182,6.41277 -6.05014,10.4 -2.03223,3.05963 -6.45847,9.21137 -6.9073,9.6 -0.10163,0.088 -0.82573,0.952 -1.60909,1.92 -5.37021,6.636 -14.37254,15.71542 -21.92691,22.11462 -0.704,0.59635 -1.352,1.16141 -1.44,1.25568 -0.088,0.0943 -0.88,0.74253 -1.76,1.44054 -0.88,0.69805 -1.672,1.34938 -1.76,1.44746 -0.088,0.0981 -1.384,1.09933 -2.88,2.22502 -1.496,1.12567 -2.768,2.16144 -2.82666,2.3017 -0.0587,0.14022 -0.30352,0.25498 -0.54409,0.25498 -0.24061,0 -0.55261,0.18 -0.69335,0.4 -0.14073,0.22 -0.9759,0.89424 -1.8559,1.4983 -6.66752,4.5768 -11.09408,7.44237 -15.88563,10.28381 -3.05492,1.81155 -6.19108,3.69968 -6.96922,4.19581 -0.77818,0.49616 -1.50803,0.90208 -1.62189,0.90208 -0.11385,0 -2.28518,1.11641 -4.82515,2.48089 -4.1071,2.2064 -6.8929,3.56864 -12.29811,6.01379 -0.88,0.39808 -2.41907,1.09764 -3.42019,1.55456 -1.00109,0.45693 -1.90266,0.83076 -2.00349,0.83076 -0.1008,0 -0.86573,0.30476 -1.69981,0.67724 -2.28899,1.02221 -3.15146,1.36845 -6.63651,2.66436 -1.76,0.65446 -3.92,1.46582 -4.8,1.80307 -0.88,0.33721 -2.392,0.8431 -3.36,1.12416 -0.968,0.28108 -2.192,0.69459 -2.72,0.91894 -2.46051,1.04544 -18.52995,5.51744 -23.2,6.45638 -0.44,0.0885 -2.096,0.4312 -3.68,0.76164 -5.83066,1.21632 -13.91675,2.53862 -18.56,3.03513 -1.056,0.11293 -2.424,0.26675 -3.039995,0.34183 -0.616,0.0751 -2.128,0.21449 -3.36,0.30982 -1.232,0.0953 -3.752,0.29974 -5.6,0.45421 -3.28771,0.27485 -23.39835,0.16979 -26.88,-0.14042 -1.83395,-0.16339 -6.59077,-0.68774 -8.8,-0.97001 -0.704,-0.09 -2.504,-0.31428 -4,-0.4985 -1.496,-0.18426 -3.152,-0.46022 -3.68,-0.61331 -0.528,-0.15309 -1.70541,-0.36029 -2.61645,-0.46042 -0.91105,-0.10013 -2.03642,-0.32653 -2.50083,-0.5031 -0.46441,-0.17655 -1.17104,-0.32103 -1.57028,-0.32103 -1.07463,0 -18.32933,-4.67104 -18.91244,-5.1198 -0.176,-0.13546 -0.824,-0.35069 -1.44,-0.47834 -1.40391,-0.29085 -10.7715201,-3.97635 -14.4000001,-5.66544 -2.5343097,-1.33938 -5.37751249,-2.60587 -8.00299,-4.00867 -7.9555059,-4.27793 -16.0582059,-8.85077 -23.7916999,-14.78415 -10.61,-8.28377 -21.39636,-18.55884 -28.24242,-26.90364 -0.50536,-0.616 -1.06375,-1.27466 -1.24087,-1.46368 -0.17711,-0.18903 -0.68203,-0.81348 -1.12203,-1.38765 -0.44,-0.57418 -0.94592,-1.21152 -1.12426,-1.41632 -2.368607,-3.52823 -4.312022,-5.76119 -6.60056,-8.71836 -2.10432,-2.85797 -2.45372,-3.21431 -2.6415,-2.69401 -0.1771,0.49068 -3.0597,11.31446 -5.15597,19.36 -0.64199,2.464 -1.59866,6.064 -2.12591,8 -0.52726,1.936 -1.72829,6.472 -2.66897,10.08 -0.94068,3.608 -2.86423,10.88 -4.27456,16.16 -4.48377,16.7863 -6.77351,25.41923 -8.529892,32.15999 -0.940106,3.608 -2.233069,8.504 -2.873254,10.88 -0.640186,2.376 -1.863556,6.984 -2.718599,10.24 -0.855046,3.256 -2.34841,8.872 -3.318586,12.48 -0.970179,3.608 -2.555164,9.584 -3.522194,13.28 -0.96703,3.696 -2.33671,8.88 -3.04373,11.52 -0.70702,2.64 -2.36327,8.904 -3.68055,13.92 -1.31729,5.016 -3.63817,13.8 -5.15752,19.52 -6.94158,26.13338 -9.99913,37.69811 -12.479,47.2 -1.46987,5.632 -3.40343,12.976 -4.29679,16.32 -0.89336,3.344 -2.47883,9.32 -3.52325,13.28 -1.04443,3.96 -2.47455,9.36 -3.17805,12 -0.7035,2.64 -1.9394,7.32 -2.74645,10.4 -0.80704,3.08 -1.89613,7.184 -2.42021,9.12 -0.52407,1.936 -1.75107,6.616 -2.72666,10.4 -2.76493,10.72429 -4.43973,16.64 -4.71095,16.64 -0.13668,0 -2.51518,-1.89773 -5.28555,-4.21715 z m 98.082965,-325.06502 c 0.22,0.001 0.4,-0.1392 0.4,-0.312 0,-0.1728 0.468,-0.81825 1.04,-1.43433 0.572,-0.61607 1.472,-1.64667 2,-2.29021 0.528,-0.64354 1.14,-1.35581 1.36,-1.58282 0.22,-0.22701 0.4,-0.49504 0.4,-0.59561 0,-0.10057 0.252,-0.45632 0.56,-0.79057 1.2941,-1.40434 5.51867,-6.78193 5.52511,-7.03307 0.003,-0.10957 0.41328,-0.66205 0.91213,-1.22774 0.49886,-0.56569 1.68456,-2.22169 2.63489,-3.68 0.95033,-1.45831 1.83587,-2.69947 1.96787,-2.75814 0.132,-0.0587 0.24,-0.31067 0.24,-0.56 0,-0.24933 0.144,-0.45333 0.32,-0.45333 0.176,0 0.32309,-0.18 0.32685,-0.4 0.006,-0.36819 2.42955,-4.37432 3.18562,-5.2665 0.18015,-0.21257 0.32753,-0.60857 0.32753,-0.88 0,-0.27143 0.11684,-0.4935 0.25964,-0.4935 0.1428,0 0.82273,-1.08 1.51095,-2.4 0.68822,-1.32 1.36338,-2.4 1.50036,-2.4 0.13698,0 0.24905,-0.16463 0.24905,-0.36584 0,-0.48528 2.3326,-5.2042 2.64,-5.34083 0.132,-0.0587 0.24,-0.38267 0.24,-0.72 0,-0.33733 0.12429,-0.61333 0.2762,-0.61333 0.15191,0 0.52523,-0.79173 0.8296,-1.75941 0.30437,-0.96767 0.66813,-1.83031 0.80835,-1.91698 0.14023,-0.0867 0.35343,-0.54993 0.47379,-1.02949 0.21408,-0.85294 1.20986,-3.28991 1.7426,-4.26463 0.14745,-0.26977 0.37649,-0.98977 0.50898,-1.6 0.13249,-0.61022 0.34535,-1.18149 0.47302,-1.26949 0.12767,-0.088 0.6249,-1.384 1.10494,-2.88 1.12636,-3.51012 1.11874,-3.48544 1.16098,-3.76336 0.0198,-0.13015 0.16812,-0.39587 0.32963,-0.59049 0.16152,-0.19461 0.35178,-0.77061 0.42281,-1.28 0.071,-0.50938 0.50264,-2.13953 0.95913,-3.62255 0.45648,-1.48301 0.82997,-3.00701 0.82997,-3.38666 0,-0.37965 0.0997,-0.78999 0.22159,-0.91185 0.12186,-0.12187 0.26585,-0.54187 0.31997,-0.93334 0.0541,-0.39146 0.38121,-2.00775 0.72688,-3.59175 0.34567,-1.584 0.87845,-4.032 1.18396,-5.44 0.30552,-1.408 0.5889,-3.064 0.62974,-3.68 0.14532,-2.19161 0.35956,-3.77442 0.55332,-4.08793 0.10812,-0.17493 0.20987,-1.01872 0.22612,-1.87507 0.0163,-0.85635 0.15915,-2.637 0.31757,-3.957 0.79864,-6.65467 0.85781,-21.62395 0.11763,-29.76 -0.0881,-0.968 -0.22837,-2.552 -0.3118,-3.52 -0.1877,-2.17776 -0.43117,-4.38486 -0.60011,-5.44 -0.25324,-1.5817 -0.55078,-3.89473 -0.68449,-5.32116 -0.0749,-0.79929 -0.19511,-1.54901 -0.26708,-1.66604 -0.072,-0.11704 -0.23095,-1.0048 -0.3533,-1.9728 -0.12234,-0.968 -0.27778,-1.85002 -0.34541,-1.96004 -0.0676,-0.11003 -0.2,-0.83003 -0.29414,-1.6 -0.0941,-0.76998 -0.46532,-2.76796 -0.82481,-4.43996 -0.3595,-1.671999 -0.72748,-3.497929 -0.81772,-4.057629 -0.0903,-0.5597 -0.42466,-1.52871 -0.74313,-2.15336 l -0.57903,-1.13573 -0.681,2.79336 c -0.37454,1.53634 -1.16812,4.593359 -1.76348,6.793359 -1.4602,5.3957 -5.08993,19.08141 -13.19739,49.76 -1.67442,6.336 -4.53511,17.136 -6.3571,24 -1.82198,6.864 -4.69953,17.736 -6.39457,24.16 -1.69503,6.424 -3.48899,13.192 -3.98656,15.04 -0.49758,1.848 -1.86689,7.032 -3.04291,11.52 -2.21584,8.45618 -7.46329,28.27742 -7.70919,29.12 -0.077,0.264 1.40713,-1.14098 3.29818,-3.12218 1.89104,-1.98119 3.61826,-3.60119 3.83826,-3.6 z"
   id="path988"
   sodipodi:nodetypes="csssssssssssssssssssssssssssssssssscssccccssssssscssscscsssssscssssssssssssssssssssssscscsssssssssscsscssscsssssssssssssssssssssssssssssscssscssssssssssssscsssssssscsssssssssssssssssssssssssssssssssssssssccccsssscssssssssssccsccccssccsssssccsscsssssssssssssssssssssssssssssssssssssssssssssssccccsssccssssssssssssssssssssscccsssssscssssscssssssssssssssssssssssssssscscssccsccscscscsssssssc" /><path
   style="fill:url(#linearGradient850);stroke-width:0.32"
   d="m -152.40658,577.13957 c -7.35188,-6.06995 -8.24961,-6.95175 -7.93087,-7.79011 0.16707,-0.43943 0.81298,-2.84778 1.43537,-5.35191 0.62238,-2.50416 1.28667,-5.12019 1.4762,-5.81341 0.18952,-0.69324 0.39672,-1.62924 0.46044,-2.08 0.0637,-0.45078 0.4237,-1.82758 0.79996,-3.05958 0.37626,-1.232 0.71527,-2.48906 0.75335,-2.79347 0.0381,-0.30442 0.15825,-0.6425 0.26704,-0.7513 0.10879,-0.1088 0.12032,-0.39971 0.0256,-0.64653 -0.0947,-0.24678 -0.004,-0.4487 0.20093,-0.4487 0.20522,0 0.29714,-0.12294 0.20426,-0.27322 -0.0929,-0.15027 0.26197,-1.62627 0.78854,-3.28 0.52657,-1.65372 1.32872,-4.59078 1.78256,-6.52678 0.45384,-1.936 1.25888,-5.032 1.78898,-6.88 0.5301,-1.848 0.99635,-3.648 1.03611,-4 0.0398,-0.352 0.51569,-2.08 1.05763,-3.84 0.99037,-3.21632 2.3547,-8.41037 3.61437,-13.76 0.37298,-1.584 1.04907,-4.104 1.50242,-5.6 0.45335,-1.496 0.86092,-3.008 0.90571,-3.36 0.0448,-0.352 0.11144,-0.676 0.14811,-0.72 0.0367,-0.044 0.10266,-0.224 0.14666,-0.4 0.044,-0.176 0.1087,-0.356 0.14378,-0.4 0.0351,-0.044 0.1279,-0.42845 0.20628,-0.8543 0.0784,-0.42589 0.49271,-1.93789 0.92074,-3.36 0.6843,-2.27354 1.57009,-5.79008 1.94101,-7.7057 0.17508,-0.90416 1.29167,-5.07417 2.61339,-9.76 1.1895,-4.21705 2.46538,-9.12915 3.61563,-13.92 0.38031,-1.584 1.12711,-4.392 1.65956,-6.24 0.53244,-1.848 1.02949,-3.72 1.10454,-4.16 0.0751,-0.44 0.56529,-2.19577 1.08941,-3.90176 0.52412,-1.70595 1.3849,-4.94595 1.91284,-7.2 1.30913,-5.58931 2.24982,-9.16105 3.6077,-13.69824 0.63208,-2.112 1.59465,-5.712 2.13905,-8 1.05195,-4.42112 3.46979,-13.75686 3.77086,-14.56 0.099,-0.264 0.21037,-0.588 0.24757,-0.72 0.0372,-0.132 0.10269,-0.348 0.14554,-0.48 0.0428,-0.132 0.0639,-0.33869 0.0469,-0.45933 -0.0171,-0.1206 0.18304,-0.82592 0.44463,-1.56736 0.2616,-0.74144 1.34259,-4.81875 2.4022,-9.0607 1.05961,-4.24192 2.41371,-9.36861 3.00911,-11.39261 0.5954,-2.024 1.81707,-6.632 2.71483,-10.24 0.89777,-3.608 2.07326,-8.144 2.61221,-10.08 2.56302,-9.20685 3.17602,-11.50313 4.14304,-15.52 0.57201,-2.376 1.799124,-6.984 2.726944,-10.24 0.92782,-3.256 2.34442,-8.584 3.14801,-11.84 0.80359,-3.256 2.0443,-8.08 2.75713,-10.72 0.71284,-2.64 2.1517,-8.112 3.19747,-12.16 1.04578,-4.048 2.26316,-8.656 2.70529,-10.24 0.44213,-1.584 1.53443,-5.688 2.42732,-9.12 2.75567,-10.59197 4.45486,-16.95847 5.59413,-20.96 0.6013,-2.112 1.67888,-6.216 2.39461,-9.12 0.71573,-2.904 1.95734,-7.57355 2.75912,-10.37677 0.80178,-2.80323 1.50241,-5.32323 1.55695,-5.6 0.42554,-2.15923 3.07295,-12.26001 5.49968,-20.98323 0.44066,-1.584 1.58137,-5.9693 2.53491,-9.74512 0.95355,-3.77582 2.44372,-9.31982 3.31149,-12.32 0.86777,-3.00018 1.88158,-6.77887 2.2529,-8.39709 0.37132,-1.61822 1.3993,-5.57822 2.28441,-8.8 0.8851,-3.22178 1.64176,-6.03362 1.68146,-6.24852 0.0397,-0.21491 0.16242,-0.48099 0.27272,-0.59129 0.1103,-0.1103 0.12306,-0.40247 0.0283,-0.64926 -0.0947,-0.24679 -0.0217,-0.44871 0.16217,-0.44871 0.18389,0 0.32804,-0.252 0.32034,-0.56 -0.0206,-0.82306 3.71543,-15.31832 5.95895,-23.12 0.58205,-2.024 1.52501,-5.624 2.09548,-8 0.57047,-2.376 1.74155,-6.912 2.60241,-10.08 0.86086,-3.168 2.42014,-9.072 3.46507,-13.12 1.04493,-4.048 2.41378,-9.16 3.04188,-11.36 0.62809,-2.199999 1.51736,-5.511999 1.97613,-7.359999 1.70756,-6.87824 3.95836,-15.27288 4.57755,-17.07259 0.35164,-1.02206 0.62611,-1.95485 0.60993,-2.07286 -0.0162,-0.118 0.006,-0.32255 0.0485,-0.45455 0.0428,-0.132 0.11389,-0.384 0.15789,-0.56 0.044,-0.176 0.1087,-0.356 0.14378,-0.4 0.72628,-0.91099 0.2027,-1.42831 -1.9744,-1.95082 -7.37296,-1.76951 -15.254119,-4.94972 -18.37075,-8.36025 -4.588277,-5.020953 -6.10784,-10.8006 -4.42698,-15.47491 1.25078,-3.47829 1.23962,-3.48274 4.80967,1.91649 6.65945,10.07154 13.53636,14.16802 24.45868,14.56971 10.063891,0.37012 12.568251,-1.26455 12.593561,-8.22022 0.0154,-4.24143 -4.61719,-12.27738 -7.77779,-13.4917 -0.43133,-0.16572 -4.607331,-1.31592 -9.280001,-2.556 -10.14166,-2.69151 -9.625835,-2.255074 -8.812195,-5.304194 0.51764,-1.93983 0.369532,-2.549078 0.563095,-3.318016 0.294791,-1.17107 0.65262,-1.26394 9.7338,1.14991 9.478481,2.51945 8.525801,2.52771 9.217421,-0.08 0.54728,-2.06344 1.12973,-2.99767 3.54124,-5.68 1.01756,-1.13184 3.66087,-5.15839 3.66087,-5.57661 0,-0.15953 0.108,-0.33806 0.24,-0.39673 2.627316,-4.445524 5.6035522,-9.056742 7.1199997,-14.6385296 0,-0.16856 0.16613,-0.71184 0.36917,-1.2073 0.20305,-0.4954599 0.40318,-1.0448299 0.44474,-1.2208299 0.0416,-0.176 0.3646099,-1.2559999 0.7178799,-2.3999999 0.6164001,-1.99607995 1.4382801,-5.8732098 2.03503,-9.5999996 0.155,-0.968 0.35392,-2.192 0.44204,-2.72 2.2414199,-13.429531 -0.55791,-28.249751 -6.6774698,-35.351871 l -0.9580399,-1.11187 0.7733299,-0.21623 c 1.97642,-0.55264 6.3398598,0.0649 7.5733198,1.0718 0.22,0.1796 0.4,0.22998 0.4,0.11198 0,-0.2246 2.2561698,1.31098 3.3624398,2.28851 2.8238398,2.49525 5.9993496,8.57575 7.0647396,13.52768 0.85727,3.98459 1.20451,7.515821 1.22721,12.480001 0.0362,7.90904 -0.16971,9.79877 -1.95236,17.91999965 C 8.3342642,11.881151 2.7154445,23.908111 -3.6869953,31.273581 c -1.9102099,2.19752 -1.8306399,2.00145 -3.8348298,9.45024 l -1.1191,4.15924 1.86351,1.76076 c 11.4125195,10.78318 8.0891296,23.73108 -7.0668299,27.53231 l -2.73991,0.68719 -0.55258,2.13062 c -0.30392,1.17185 -1.04171,3.92278 -1.63954,6.11319 -1.3096,4.7983 -1.30721,4.74156 -0.20697,4.90824 0.85018,0.12879 0.84608,0.13493 -0.12109,0.18125 -1.24817,0.0598 -2.282471,3.20291 -1.710381,5.19767 0.411031,1.43319 0.354421,1.62513 -0.14556,0.49354 -0.38854,-0.87937 -0.44452,-0.76197 -1.373289,2.88 -1.001031,3.925299 -4.456201,16.997089 -7.812521,29.556739 -1.05823,3.96 -2.26443,8.496 -2.68044,10.08 -0.41601,1.584 -1.98006,7.488 -3.47566,13.12 -1.4956,5.632 -4.39384,16.576 -6.44053,24.32 -2.04669,7.744 -5.09128,19.264 -6.76576,25.59999 -1.67448,6.336 -4.17875,15.768 -5.56504,20.96 -1.38629,5.192 -3.30944,12.464 -4.27367,16.16 -1.96036,7.51429 -4.85043,18.37869 -5.17554,19.456 -1.277716,4.02479 -1.730931,7.79176 -2.45867,9.504 -0.0729,0.088 -1.53043,5.488 -3.2389,12 -1.70847,6.512 -4.38409,16.664 -5.94581,22.56 -1.56172,5.896 -4.51806,17.056 -6.56965,24.8 -2.05158,7.744 -5.36751,20.272 -7.36872,27.84 -2.00122,7.568 -4.52559,17.072 -5.60972,21.12 -1.08412,4.048 -2.23381,8.368 -2.55486,9.6 -0.32104,1.232 -1.03762,3.896 -1.59238,5.92 -0.554764,2.024 -1.780054,6.632 -2.722864,10.24 -0.94282,3.608 -2.95572,11.24 -4.47312,16.96 -9.41713,35.49895 -15.56616,58.79719 -19.04496,72.16 -1.55783,5.984 -3.35876,12.824 -4.00206,15.2 -0.92258,3.40749 -3.86255,14.55978 -5.14587,19.52 -0.11384,0.44 -0.90462,3.392 -1.7573,6.56 -0.85267,3.168 -2.18817,8.208 -2.96777,11.2 -0.7796,2.992 -3.17912,12.064 -5.33225,20.16 -2.15314,8.096 -4.06524,15.332 -4.24912,16.08 -0.41878,1.70358 -0.41686,1.70381 -2.84988,-0.30499 z M 71.573034,342.13893 c -0.0419,-0.0393 -2.16423,-0.1632 -4.71623,-0.27536 -7.4643,-0.32803 -7.4193,-0.28983 -2.64501,-2.24509 63.842656,-26.14592 136.820096,-90.69586 183.799166,-162.57391 2.41568,-3.696 4.94195,-7.49101 5.61392,-8.43335 0.672,-0.94234 1.38272,-2.09434 1.57943,-2.56 0.1967,-0.46566 0.95497,-1.82119 1.68508,-3.01229 0.0908,-2.7612 0.60255,-3.74382 1.60772,-5.71516 5.12337,-11.7945 14.89701,-22.24632 24.84729,-28.30243 2.83079,-1.84564 2.96362,-1.92143 5.75242,-3.28248 2.36425,-1.15385 3.57395,-1.71088 6.56,-3.02075 1.93101,-0.84706 8.87837,-2.87987 11.2,-3.27714 0.616,-0.10541 1.76675,-0.33612 2.55718,-0.51268 5.48064,-1.22423 19.76311,-1.89423 26.08282,-1.22358 1.408,0.14942 3.352,0.3503 4.32,0.4464 0.968,0.0961 2.336,0.25744 3.04,0.35852 0.704,0.10108 1.568,0.22192 1.92,0.26852 2.1495,0.28461 5.28,0.91031 5.28,1.05533 0,0.0941 -0.45949,0.0792 -1.02106,-0.0331 -2.44038,-0.48808 -18.748,17.73186 -28.46614,31.80421 -10.57258,15.30961 -22.60842,39.10428 -26.54547,52.47999 -0.33194,1.1277 -1.0857,2.10499 -3.47559,4.50627 -4.89859,4.92191 -6.57517,6.74897 -10.57174,11.52075 -0.792,0.94562 -1.764,2.05292 -2.16,2.46069 -0.396,0.40776 -0.72,0.81107 -0.72,0.89625 -2.94501,3.30856 -4.93808,6.26322 -7.36,10.06173 0,0.11812 -0.35984,0.63316 -0.79962,1.14454 -0.43977,0.51138 -0.79977,1.02749 -0.8,1.14691 -2.2e-4,0.11943 -0.18576,0.40743 -0.41235,0.64 -0.64557,0.6626 -1.63466,2.38461 -3.45952,6.02286 -2.04541,4.07804 -6.73088,11.83111 -8.224,13.60832 -0.15168,0.18057 -0.54896,0.75657 -0.88278,1.28 -0.33383,0.52343 -0.69213,1.02368 -0.79623,1.11168 -0.10409,0.088 -0.95421,1.168 -1.88912,2.4 -0.93494,1.232 -1.80141,2.312 -1.92547,2.4 -0.1241,0.088 -0.35731,0.39458 -0.51827,0.68128 -0.28983,0.51625 -2.96435,3.60208 -6.05264,6.98349 -3.73178,4.08592 -10.04455,10.17264 -14.63936,14.1151 -0.57235,0.49111 -1.61664,1.41655 -2.32064,2.05655 -0.704,0.64 -1.892,1.61104 -2.64,2.15785 -0.748,0.54682 -1.36,1.11383 -1.36,1.25997 0,0.14618 -0.144,0.26576 -0.32,0.26576 -0.176,0 -0.572,0.23491 -0.88,0.52205 -0.46816,0.43642 -7.71645,5.84269 -9.84,7.33936 -0.352,0.24809 -1.144,0.80697 -1.76,1.24198 -0.616,0.43501 -1.63364,1.07418 -2.26141,1.42039 -0.62778,0.3462 -1.32941,0.85596 -1.55917,1.13283 -0.22979,0.27686 -0.52419,0.50339 -0.65427,0.50339 -0.13005,0 -1.30042,0.69805 -2.6008,1.5512 -1.30039,0.85318 -3.94835,2.45405 -5.88435,3.5575 -1.936,1.10346 -4.168,2.40384 -4.96,2.88976 -3.86906,2.37386 -14.8864,7.91632 -22.24,11.18823 -3.21597,1.43091 -7.24672,3.04985 -11.28672,4.53334 -2.41629,0.88727 -4.82528,1.80711 -5.35328,2.0441 -0.528,0.23699 -3.12,1.10528 -5.76,1.92957 -2.64,0.82425 -5.448,1.71446 -6.24,1.97817 -2.04244,0.6801 -11.59327,3.16493 -16.48,4.28755 -5.53097,1.27066 -18.43268,3.43981 -23.52,3.9544 -0.968,0.0979 -2.408006,0.24455 -3.200006,0.3258 -1.59765,0.1639 -4.07522,0.35673 -8.64001,0.67254 -2.86413,0.19814 -17.83938,0.41622 -18.00377,0.26221 z M 270.97867,230.9646 c -297.847473,-185.804605 -148.92374,-92.9023 0,0 z"
   id="path1036"
   sodipodi:nodetypes="sssssssssssssssssssssssssssssssssssscssssssssssssssssssssssscsssssssssscssssssssssssssssccscsscscssssssssscsscssssssssssssssccsssssssssssssssssssscssscccsssssssssssssssccsssssssssssssssssssssssssssssssssssscc" /><path
   style="fill:url(#linearGradient862);stroke-width:0.32"
   d="m -32.427894,62.524381 c -5.807964,-1.56416 -10.124656,-6.18908 -10.124656,-10.8476 0,-9.60527 15.003399,-12.93557 23.371867,-5.18785 8.81424,8.16043 -0.522515,19.46236 -13.247211,16.03545 z"
   id="path1020" /><path
   style="fill:url(#linearGradient850);stroke-width:0.32"
   d="m -152.40658,577.13957 c -7.35188,-6.06995 -8.24961,-6.95175 -7.93087,-7.79011 0.16707,-0.43943 0.81298,-2.84778 1.43537,-5.35191 0.62238,-2.50416 1.28667,-5.12019 1.4762,-5.81341 0.18952,-0.69324 0.39672,-1.62924 0.46044,-2.08 0.0637,-0.45078 0.4237,-1.82758 0.79996,-3.05958 0.37626,-1.232 0.71527,-2.48906 0.75335,-2.79347 0.0381,-0.30442 0.15825,-0.6425 0.26704,-0.7513 0.10879,-0.1088 0.12032,-0.39971 0.0256,-0.64653 -0.0947,-0.24678 -0.004,-0.4487 0.20093,-0.4487 0.20522,0 0.29714,-0.12294 0.20426,-0.27322 -0.0929,-0.15027 0.26197,-1.62627 0.78854,-3.28 0.52657,-1.65372 1.32872,-4.59078 1.78256,-6.52678 0.45384,-1.936 1.25888,-5.032 1.78898,-6.88 0.5301,-1.848 0.99635,-3.648 1.03611,-4 0.0398,-0.352 0.51569,-2.08 1.05763,-3.84 0.99037,-3.21632 2.3547,-8.41037 3.61437,-13.76 0.37298,-1.584 1.04907,-4.104 1.50242,-5.6 0.45335,-1.496 0.86092,-3.008 0.90571,-3.36 0.0448,-0.352 0.11144,-0.676 0.14811,-0.72 0.0367,-0.044 0.10266,-0.224 0.14666,-0.4 0.044,-0.176 0.1087,-0.356 0.14378,-0.4 0.0351,-0.044 0.1279,-0.42845 0.20628,-0.8543 0.0784,-0.42589 0.49271,-1.93789 0.92074,-3.36 0.6843,-2.27354 1.57009,-5.79008 1.94101,-7.7057 0.17508,-0.90416 1.29167,-5.07417 2.61339,-9.76 1.1895,-4.21705 2.46538,-9.12915 3.61563,-13.92 0.38031,-1.584 1.12711,-4.392 1.65956,-6.24 0.53244,-1.848 1.02949,-3.72 1.10454,-4.16 0.0751,-0.44 0.56529,-2.19577 1.08941,-3.90176 0.52412,-1.70595 1.3849,-4.94595 1.91284,-7.2 1.30913,-5.58931 2.24982,-9.16105 3.6077,-13.69824 0.63208,-2.112 1.59465,-5.712 2.13905,-8 1.05195,-4.42112 3.46979,-13.75686 3.77086,-14.56 0.099,-0.264 0.21037,-0.588 0.24757,-0.72 0.0372,-0.132 0.10269,-0.348 0.14554,-0.48 0.0428,-0.132 0.0639,-0.33869 0.0469,-0.45933 -0.0171,-0.1206 0.18304,-0.82592 0.44463,-1.56736 0.2616,-0.74144 1.34259,-4.81875 2.4022,-9.0607 1.05961,-4.24192 2.41371,-9.36861 3.00911,-11.39261 0.5954,-2.024 1.81707,-6.632 2.71483,-10.24 0.89777,-3.608 2.07326,-8.144 2.61221,-10.08 2.56302,-9.20685 3.17602,-11.50313 4.14304,-15.52 0.57201,-2.376 1.799124,-6.984 2.726944,-10.24 0.92782,-3.256 2.34442,-8.584 3.14801,-11.84 0.80359,-3.256 2.0443,-8.08 2.75713,-10.72 0.71284,-2.64 2.1517,-8.112 3.19747,-12.16 1.04578,-4.048 2.26316,-8.656 2.70529,-10.24 0.44213,-1.584 1.53443,-5.688 2.42732,-9.12 2.75567,-10.59197 4.45486,-16.95847 5.59413,-20.96 0.6013,-2.112 1.67888,-6.216 2.39461,-9.12 0.71573,-2.904 1.95734,-7.57355 2.75912,-10.37677 0.80178,-2.80323 1.50241,-5.32323 1.55695,-5.6 0.42554,-2.15923 3.07295,-12.26001 5.49968,-20.98323 0.44066,-1.584 1.58137,-5.9693 2.53491,-9.74512 0.95355,-3.77582 2.44372,-9.31982 3.31149,-12.32 0.86777,-3.00018 1.88158,-6.77887 2.2529,-8.39709 0.37132,-1.61822 1.3993,-5.57822 2.28441,-8.8 0.8851,-3.22178 1.64176,-6.03362 1.68146,-6.24852 0.0397,-0.21491 0.16242,-0.48099 0.27272,-0.59129 0.1103,-0.1103 0.12306,-0.40247 0.0283,-0.64926 -0.0947,-0.24679 -0.0217,-0.44871 0.16217,-0.44871 0.18389,0 0.32804,-0.252 0.32034,-0.56 -0.0206,-0.82306 3.71543,-15.31832 5.95895,-23.12 0.58205,-2.024 1.52501,-5.624 2.09548,-8 0.57047,-2.376 1.74155,-6.912 2.60241,-10.08 0.86086,-3.168 2.42014,-9.072 3.46507,-13.12 1.04493,-4.048 2.41378,-9.16 3.04188,-11.36 0.62809,-2.199999 1.51736,-5.511999 1.97613,-7.359999 1.70756,-6.87824 3.95836,-15.27288 4.57755,-17.07259 0.450966,-1.233645 0.627878,-2.351411 0.9601,-3.48741 0.72628,-0.91099 0.2027,-1.42831 -1.9744,-1.95082 -7.37296,-1.76951 -15.254119,-4.94972 -18.37075,-8.36025 -4.588277,-5.020953 -6.10784,-10.8006 -4.42698,-15.47491 1.25078,-3.47829 1.23962,-3.48274 4.80967,1.91649 6.65945,10.07154 13.53636,14.16802 24.45868,14.56971 10.063891,0.37012 12.568251,-1.26455 12.593561,-8.22022 0.0154,-4.24143 -4.61719,-12.27738 -7.77779,-13.4917 -0.43133,-0.16572 -4.607331,-1.31592 -9.280001,-2.556 -10.14166,-2.69151 -9.625835,-2.255074 -8.812195,-5.304194 0.51764,-1.93983 0.369532,-2.549078 0.563095,-3.318016 0.294791,-1.17107 0.65262,-1.26394 9.7338,1.14991 9.478481,2.51945 8.525801,2.52771 9.217421,-0.08 0.54728,-2.06344 1.12973,-2.99767 3.54124,-5.68 1.01756,-1.13184 3.66087,-5.15839 3.66087,-5.57661 0,-0.15953 0.108,-0.33806 0.24,-0.39673 2.627316,-4.445524 5.6035522,-9.056742 7.1199997,-14.6385296 0,-0.16856 0.16613,-0.71184 0.36917,-1.2073 0.20305,-0.4954599 0.40318,-1.0448299 0.44474,-1.2208299 0.0416,-0.176 0.3646099,-1.2559999 0.7178799,-2.3999999 0.6164001,-1.99607995 1.4382801,-5.8732098 2.03503,-9.5999996 0.155,-0.968 0.35392,-2.192 0.44204,-2.72 2.2414199,-13.429531 -0.55791,-28.249751 -6.6774698,-35.351871 l -0.9580399,-1.11187 0.7733299,-0.21623 c 1.97642,-0.55264 6.3398598,0.0649 7.5733198,1.0718 0.22,0.1796 0.4,0.22998 0.4,0.11198 0,-0.2246 2.2561698,1.31098 3.3624398,2.28851 2.8238398,2.49525 5.9993496,8.57575 7.0647396,13.52768 0.85727,3.98459 1.20451,7.515821 1.22721,12.480001 0.0362,7.90904 -0.16971,9.79877 -1.95236,17.91999965 C 8.3342642,11.881151 2.7154445,23.908111 -3.6869953,31.273581 c -1.9102099,2.19752 -1.8306399,2.00145 -3.8348298,9.45024 l -1.1191,4.15924 1.86351,1.76076 c 11.4125195,10.78318 8.7320148,25.725978 -6.6690819,27.797475 l -3.137658,0.422025 -0.55258,2.13062 c -0.30392,1.17185 -0.909127,3.878586 -1.506957,6.068996 -0.964416,5.825272 -3.175545,11.735132 -3.689873,13.704894 -1.001031,3.925299 -4.456201,16.997089 -7.812521,29.556739 -1.05823,3.96 -2.26443,8.496 -2.68044,10.08 -0.41601,1.584 -1.98006,7.488 -3.47566,13.12 -1.4956,5.632 -4.39384,16.576 -6.44053,24.32 -2.04669,7.744 -5.09128,19.264 -6.76576,25.59999 -1.67448,6.336 -4.17875,15.768 -5.56504,20.96 -1.38629,5.192 -3.30944,12.464 -4.27367,16.16 -1.96036,7.51429 -4.85043,18.37869 -5.17554,19.456 -1.277716,4.02479 -1.730931,7.79176 -2.45867,9.504 -0.0729,0.088 -1.53043,5.488 -3.2389,12 -1.70847,6.512 -4.38409,16.664 -5.94581,22.56 -1.56172,5.896 -4.51806,17.056 -6.56965,24.8 -2.05158,7.744 -5.36751,20.272 -7.36872,27.84 -2.00122,7.568 -4.52559,17.072 -5.60972,21.12 -1.08412,4.048 -2.23381,8.368 -2.55486,9.6 -0.32104,1.232 -1.03762,3.896 -1.59238,5.92 -0.554764,2.024 -1.780054,6.632 -2.722864,10.24 -0.94282,3.608 -2.95572,11.24 -4.47312,16.96 -9.41713,35.49895 -15.56616,58.79719 -19.04496,72.16 -1.55783,5.984 -3.35876,12.824 -4.00206,15.2 -0.92258,3.40749 -3.86255,14.55978 -5.14587,19.52 -0.11384,0.44 -0.90462,3.392 -1.7573,6.56 -0.85267,3.168 -2.18817,8.208 -2.96777,11.2 -0.7796,2.992 -3.17912,12.064 -5.33225,20.16 -2.15314,8.096 -4.06524,15.332 -4.24912,16.08 -0.41878,1.70358 -0.41686,1.70381 -2.84988,-0.30499 z M 71.573034,342.13893 c -0.0419,-0.0393 -2.16423,-0.1632 -4.71623,-0.27536 -7.4643,-0.32803 -7.4193,-0.28983 -2.64501,-2.24509 63.842656,-26.14592 136.820096,-90.69586 183.799166,-162.57391 2.41568,-3.696 4.94195,-7.49101 5.61392,-8.43335 0.672,-0.94234 1.38272,-2.09434 1.57943,-2.56 0.1967,-0.46566 0.95497,-1.82119 1.68508,-3.01229 0.0908,-2.7612 0.60255,-3.74382 1.60772,-5.71516 5.12337,-11.7945 14.89701,-22.24632 24.84729,-28.30243 2.83079,-1.84564 2.96362,-1.92143 5.75242,-3.28248 2.36425,-1.15385 3.57395,-1.71088 6.56,-3.02075 1.93101,-0.84706 8.87837,-2.87987 11.2,-3.27714 0.616,-0.10541 1.76675,-0.33612 2.55718,-0.51268 5.48064,-1.22423 19.76311,-1.89423 26.08282,-1.22358 1.408,0.14942 3.352,0.3503 4.32,0.4464 0.968,0.0961 2.336,0.25744 3.04,0.35852 0.704,0.10108 1.568,0.22192 1.92,0.26852 2.1495,0.28461 5.28,0.91031 5.28,1.05533 0,0.0941 -0.45949,0.0792 -1.02106,-0.0331 -2.44038,-0.48808 -18.748,17.73186 -28.46614,31.80421 -10.57258,15.30961 -22.60842,39.10428 -26.54547,52.47999 -0.33194,1.1277 -1.0857,2.10499 -3.47559,4.50627 -4.89859,4.92191 -6.57517,6.74897 -10.57174,11.52075 -0.792,0.94562 -1.764,2.05292 -2.16,2.46069 -0.396,0.40776 -0.72,0.81107 -0.72,0.89625 -2.94501,3.30856 -4.93808,6.26322 -7.36,10.06173 0,0.11812 -0.35984,0.63316 -0.79962,1.14454 -0.43977,0.51138 -0.79977,1.02749 -0.8,1.14691 -2.2e-4,0.11943 -0.18576,0.40743 -0.41235,0.64 -0.64557,0.6626 -1.63466,2.38461 -3.45952,6.02286 -2.04541,4.07804 -6.73088,11.83111 -8.224,13.60832 -0.15168,0.18057 -0.54896,0.75657 -0.88278,1.28 -0.33383,0.52343 -0.69213,1.02368 -0.79623,1.11168 -0.10409,0.088 -0.95421,1.168 -1.88912,2.4 -0.93494,1.232 -1.80141,2.312 -1.92547,2.4 -0.1241,0.088 -0.35731,0.39458 -0.51827,0.68128 -0.28983,0.51625 -2.96435,3.60208 -6.05264,6.98349 -3.73178,4.08592 -10.04455,10.17264 -14.63936,14.1151 -0.57235,0.49111 -1.61664,1.41655 -2.32064,2.05655 -0.704,0.64 -1.892,1.61104 -2.64,2.15785 -0.748,0.54682 -1.36,1.11383 -1.36,1.25997 0,0.14618 -0.144,0.26576 -0.32,0.26576 -0.176,0 -0.572,0.23491 -0.88,0.52205 -0.46816,0.43642 -7.71645,5.84269 -9.84,7.33936 -0.352,0.24809 -1.144,0.80697 -1.76,1.24198 -0.616,0.43501 -1.63364,1.07418 -2.26141,1.42039 -0.62778,0.3462 -1.32941,0.85596 -1.55917,1.13283 -0.22979,0.27686 -0.52419,0.50339 -0.65427,0.50339 -0.13005,0 -1.30042,0.69805 -2.6008,1.5512 -1.30039,0.85318 -3.94835,2.45405 -5.88435,3.5575 -1.936,1.10346 -4.168,2.40384 -4.96,2.88976 -3.86906,2.37386 -14.8864,7.91632 -22.24,11.18823 -3.21597,1.43091 -7.24672,3.04985 -11.28672,4.53334 -2.41629,0.88727 -4.82528,1.80711 -5.35328,2.0441 -0.528,0.23699 -3.12,1.10528 -5.76,1.92957 -2.64,0.82425 -5.448,1.71446 -6.24,1.97817 -2.04244,0.6801 -11.59327,3.16493 -16.48,4.28755 -5.53097,1.27066 -18.43268,3.43981 -23.52,3.9544 -0.968,0.0979 -2.408006,0.24455 -3.200006,0.3258 -1.59765,0.1639 -4.07522,0.35673 -8.64001,0.67254 -2.86413,0.19814 -17.83938,0.41622 -18.00377,0.26221 z M 270.97867,230.9646 c -297.847473,-185.804605 -148.92374,-92.9023 0,0 z"
   id="path1038"
   sodipodi:nodetypes="sssssssssssssssssssssssssssssssssssscssssssssssssssssssssssscssssssssccssssssssssssssccscsscscssssssssscsscsccsssssssccsssssssssssssssssssscssscccsssssssssssssssccsssssssssssssssssssssssssssssssssssscc" /></g>
</svg>
